G04 #@! TF.FileFunction,Legend,Top*
%FSLAX46Y46*%
G04 Gerber Fmt 4.6, Leading zero omitted, Abs format (unit mm)*
G04 Created by KiCad (PCBNEW 4.0.1-stable) date 22/07/2016 18:26:52*
%MOMM*%
G01*
G04 APERTURE LIST*
%ADD10C,0.100000*%
%ADD11C,0.152400*%
%ADD12C,0.300000*%
%ADD13C,0.635000*%
%ADD14C,0.010000*%
%ADD15C,0.150000*%
G04 APERTURE END LIST*
D10*
D11*
X100348143Y-124460000D02*
X101073857Y-124460000D01*
X100203000Y-124895429D02*
X100711000Y-123371429D01*
X101219000Y-124895429D01*
X101636285Y-121212429D02*
X102579714Y-121212429D01*
X102071714Y-121793000D01*
X102289428Y-121793000D01*
X102434571Y-121865571D01*
X102507142Y-121938143D01*
X102579714Y-122083286D01*
X102579714Y-122446143D01*
X102507142Y-122591286D01*
X102434571Y-122663857D01*
X102289428Y-122736429D01*
X101854000Y-122736429D01*
X101708857Y-122663857D01*
X101636285Y-122591286D01*
X104031143Y-122736429D02*
X103160286Y-122736429D01*
X103595714Y-122736429D02*
X103595714Y-121212429D01*
X103450571Y-121430143D01*
X103305429Y-121575286D01*
X103160286Y-121647857D01*
X179505429Y-122736429D02*
X178634572Y-122736429D01*
X179070000Y-122736429D02*
X179070000Y-121212429D01*
X178924857Y-121430143D01*
X178779715Y-121575286D01*
X178634572Y-121647857D01*
X148323905Y-102313619D02*
X148323905Y-101297619D01*
X148565810Y-101297619D01*
X148710952Y-101346000D01*
X148807714Y-101442762D01*
X148856095Y-101539524D01*
X148904476Y-101733048D01*
X148904476Y-101878190D01*
X148856095Y-102071714D01*
X148807714Y-102168476D01*
X148710952Y-102265238D01*
X148565810Y-102313619D01*
X148323905Y-102313619D01*
X146364476Y-102216857D02*
X146316095Y-102265238D01*
X146170952Y-102313619D01*
X146074190Y-102313619D01*
X145929048Y-102265238D01*
X145832286Y-102168476D01*
X145783905Y-102071714D01*
X145735524Y-101878190D01*
X145735524Y-101733048D01*
X145783905Y-101539524D01*
X145832286Y-101442762D01*
X145929048Y-101346000D01*
X146074190Y-101297619D01*
X146170952Y-101297619D01*
X146316095Y-101346000D01*
X146364476Y-101394381D01*
X143582571Y-101781429D02*
X143727714Y-101829810D01*
X143776095Y-101878190D01*
X143824476Y-101974952D01*
X143824476Y-102120095D01*
X143776095Y-102216857D01*
X143727714Y-102265238D01*
X143630952Y-102313619D01*
X143243905Y-102313619D01*
X143243905Y-101297619D01*
X143582571Y-101297619D01*
X143679333Y-101346000D01*
X143727714Y-101394381D01*
X143776095Y-101491143D01*
X143776095Y-101587905D01*
X143727714Y-101684667D01*
X143679333Y-101733048D01*
X143582571Y-101781429D01*
X143243905Y-101781429D01*
X140728096Y-102023333D02*
X141211905Y-102023333D01*
X140631334Y-102313619D02*
X140970001Y-101297619D01*
X141308667Y-102313619D01*
X133059715Y-101394381D02*
X133108096Y-101346000D01*
X133204858Y-101297619D01*
X133446762Y-101297619D01*
X133543524Y-101346000D01*
X133591905Y-101394381D01*
X133640286Y-101491143D01*
X133640286Y-101587905D01*
X133591905Y-101733048D01*
X133011334Y-102313619D01*
X133640286Y-102313619D01*
X131051905Y-101297619D02*
X130568096Y-101297619D01*
X130519715Y-101781429D01*
X130568096Y-101733048D01*
X130664858Y-101684667D01*
X130906762Y-101684667D01*
X131003524Y-101733048D01*
X131051905Y-101781429D01*
X131100286Y-101878190D01*
X131100286Y-102120095D01*
X131051905Y-102216857D01*
X131003524Y-102265238D01*
X130906762Y-102313619D01*
X130664858Y-102313619D01*
X130568096Y-102265238D01*
X130519715Y-102216857D01*
X127931334Y-101297619D02*
X128560286Y-101297619D01*
X128221620Y-101684667D01*
X128366762Y-101684667D01*
X128463524Y-101733048D01*
X128511905Y-101781429D01*
X128560286Y-101878190D01*
X128560286Y-102120095D01*
X128511905Y-102216857D01*
X128463524Y-102265238D01*
X128366762Y-102313619D01*
X128076477Y-102313619D01*
X127979715Y-102265238D01*
X127931334Y-102216857D01*
D12*
X71603810Y-32766000D02*
X72813333Y-32766000D01*
X71361905Y-33419143D02*
X72208571Y-31133143D01*
X73055238Y-33419143D01*
X74990476Y-33419143D02*
X74990476Y-31133143D01*
X74990476Y-33310286D02*
X74748572Y-33419143D01*
X74264762Y-33419143D01*
X74022857Y-33310286D01*
X73901905Y-33201429D01*
X73780953Y-32983714D01*
X73780953Y-32330571D01*
X73901905Y-32112857D01*
X74022857Y-32004000D01*
X74264762Y-31895143D01*
X74748572Y-31895143D01*
X74990476Y-32004000D01*
X79344762Y-33419143D02*
X78135238Y-33419143D01*
X78135238Y-31133143D01*
X80191428Y-33419143D02*
X80191428Y-31895143D01*
X80191428Y-31133143D02*
X80070476Y-31242000D01*
X80191428Y-31350857D01*
X80312380Y-31242000D01*
X80191428Y-31133143D01*
X80191428Y-31350857D01*
X81400952Y-33419143D02*
X81400952Y-31133143D01*
X81400952Y-32004000D02*
X81642857Y-31895143D01*
X82126666Y-31895143D01*
X82368571Y-32004000D01*
X82489523Y-32112857D01*
X82610476Y-32330571D01*
X82610476Y-32983714D01*
X82489523Y-33201429D01*
X82368571Y-33310286D01*
X82126666Y-33419143D01*
X81642857Y-33419143D01*
X81400952Y-33310286D01*
X85634285Y-33419143D02*
X85634285Y-31133143D01*
X86843809Y-31895143D02*
X86843809Y-33419143D01*
X86843809Y-32112857D02*
X86964761Y-32004000D01*
X87206666Y-31895143D01*
X87569523Y-31895143D01*
X87811428Y-32004000D01*
X87932380Y-32221714D01*
X87932380Y-33419143D01*
X90230475Y-33310286D02*
X89988571Y-33419143D01*
X89504761Y-33419143D01*
X89262856Y-33310286D01*
X89141904Y-33201429D01*
X89020952Y-32983714D01*
X89020952Y-32330571D01*
X89141904Y-32112857D01*
X89262856Y-32004000D01*
X89504761Y-31895143D01*
X89988571Y-31895143D01*
X90230475Y-32004000D01*
X91319047Y-33201429D02*
X91439999Y-33310286D01*
X91319047Y-33419143D01*
X91198095Y-33310286D01*
X91319047Y-33201429D01*
X91319047Y-33419143D01*
X96519999Y-31677429D02*
X96278095Y-31568571D01*
X95794285Y-31568571D01*
X95552380Y-31677429D01*
X95310476Y-31895143D01*
X95189523Y-32112857D01*
X95189523Y-32548286D01*
X95310476Y-32766000D01*
X95552380Y-32983714D01*
X95794285Y-33092571D01*
X96278095Y-33092571D01*
X96519999Y-32983714D01*
X96036190Y-30806571D02*
X95431428Y-30915429D01*
X94826666Y-31242000D01*
X94463809Y-31786286D01*
X94342857Y-32330571D01*
X94463809Y-32874857D01*
X94826666Y-33419143D01*
X95431428Y-33745714D01*
X96036190Y-33854571D01*
X96640952Y-33745714D01*
X97245714Y-33419143D01*
X97608571Y-32874857D01*
X97729523Y-32330571D01*
X97608571Y-31786286D01*
X97245714Y-31242000D01*
X96640952Y-30915429D01*
X96036190Y-30806571D01*
X102083809Y-33419143D02*
X100632381Y-33419143D01*
X101358095Y-33419143D02*
X101358095Y-31133143D01*
X101116190Y-31459714D01*
X100874285Y-31677429D01*
X100632381Y-31786286D01*
X103293333Y-33419143D02*
X103777143Y-33419143D01*
X104019048Y-33310286D01*
X104140000Y-33201429D01*
X104381905Y-32874857D01*
X104502857Y-32439429D01*
X104502857Y-31568571D01*
X104381905Y-31350857D01*
X104260952Y-31242000D01*
X104019048Y-31133143D01*
X103535238Y-31133143D01*
X103293333Y-31242000D01*
X103172381Y-31350857D01*
X103051429Y-31568571D01*
X103051429Y-32112857D01*
X103172381Y-32330571D01*
X103293333Y-32439429D01*
X103535238Y-32548286D01*
X104019048Y-32548286D01*
X104260952Y-32439429D01*
X104381905Y-32330571D01*
X104502857Y-32112857D01*
X105712381Y-33419143D02*
X106196191Y-33419143D01*
X106438096Y-33310286D01*
X106559048Y-33201429D01*
X106800953Y-32874857D01*
X106921905Y-32439429D01*
X106921905Y-31568571D01*
X106800953Y-31350857D01*
X106680000Y-31242000D01*
X106438096Y-31133143D01*
X105954286Y-31133143D01*
X105712381Y-31242000D01*
X105591429Y-31350857D01*
X105470477Y-31568571D01*
X105470477Y-32112857D01*
X105591429Y-32330571D01*
X105712381Y-32439429D01*
X105954286Y-32548286D01*
X106438096Y-32548286D01*
X106680000Y-32439429D01*
X106800953Y-32330571D01*
X106921905Y-32112857D01*
X108494286Y-31133143D02*
X108736191Y-31133143D01*
X108978096Y-31242000D01*
X109099048Y-31350857D01*
X109220001Y-31568571D01*
X109340953Y-32004000D01*
X109340953Y-32548286D01*
X109220001Y-32983714D01*
X109099048Y-33201429D01*
X108978096Y-33310286D01*
X108736191Y-33419143D01*
X108494286Y-33419143D01*
X108252382Y-33310286D01*
X108131429Y-33201429D01*
X108010477Y-32983714D01*
X107889525Y-32548286D01*
X107889525Y-32004000D01*
X108010477Y-31568571D01*
X108131429Y-31350857D01*
X108252382Y-31242000D01*
X108494286Y-31133143D01*
D11*
X191652000Y-86010000D02*
X193952000Y-86010000D01*
X203152000Y-86010000D02*
X196352000Y-86010000D01*
X191652000Y-86010000D02*
X191652000Y-74010000D01*
X203152000Y-86010000D02*
X203152000Y-74010000D01*
X191652000Y-74010000D02*
X193952000Y-74010000D01*
X203152000Y-74010000D02*
X196352000Y-74010000D01*
X156210000Y-94615000D02*
X154940000Y-95885000D01*
X154940000Y-93345000D02*
X156210000Y-94615000D01*
X154940000Y-100965000D02*
X154940000Y-88265000D01*
X185420000Y-100965000D02*
X154940000Y-100965000D01*
X185420000Y-88265000D02*
X185420000Y-100965000D01*
X154940000Y-88265000D02*
X185420000Y-88265000D01*
X158115000Y-69215000D02*
X158115000Y-64135000D01*
X155575000Y-64135000D02*
X155575000Y-69215000D01*
X155575000Y-66675000D02*
G75*
G03X158115000Y-66675000I1270000J0D01*
G01*
X155575000Y-69215000D02*
G75*
G03X158115000Y-69215000I1270000J0D01*
G01*
X158115000Y-64135000D02*
G75*
G03X155575000Y-64135000I-1270000J0D01*
G01*
X154940000Y-69215000D02*
X154940000Y-64135000D01*
X152400000Y-64135000D02*
X152400000Y-69215000D01*
X152400000Y-66675000D02*
G75*
G03X154940000Y-66675000I1270000J0D01*
G01*
X152400000Y-69215000D02*
G75*
G03X154940000Y-69215000I1270000J0D01*
G01*
X154940000Y-64135000D02*
G75*
G03X152400000Y-64135000I-1270000J0D01*
G01*
D13*
X107950000Y-95885000D02*
X110490000Y-95885000D01*
D11*
X107950000Y-97155000D02*
X107950000Y-89535000D01*
X110490000Y-97155000D02*
X107950000Y-97155000D01*
X110490000Y-89535000D02*
X110490000Y-97155000D01*
X107950000Y-89535000D02*
X110490000Y-89535000D01*
X132080000Y-102870000D02*
X132080000Y-107950000D01*
X129540000Y-102870000D02*
X129540000Y-107950000D01*
X127000000Y-107950000D02*
X127000000Y-102870000D01*
X134620000Y-107950000D02*
X127000000Y-107950000D01*
X134620000Y-102870000D02*
X134620000Y-107950000D01*
X127000000Y-102870000D02*
X134620000Y-102870000D01*
X142240000Y-102870000D02*
X142240000Y-107950000D01*
X144780000Y-102870000D02*
X144780000Y-107950000D01*
X147320000Y-102870000D02*
X147320000Y-107950000D01*
X139700000Y-107950000D02*
X139700000Y-102870000D01*
X149860000Y-107950000D02*
X139700000Y-107950000D01*
X149860000Y-102870000D02*
X149860000Y-107950000D01*
X139700000Y-102870000D02*
X149860000Y-102870000D01*
X128522691Y-49146056D02*
G75*
G03X128270000Y-49276000I1017309J-2288944D01*
G01*
X128270000Y-53594000D02*
X128270000Y-49276000D01*
X128522691Y-53723944D02*
G75*
G02X128270000Y-53594000I1017309J2288944D01*
G01*
X130683000Y-53721000D02*
G75*
G03X130683000Y-49149000I-1143000J2286000D01*
G01*
X122555000Y-101600000D02*
X122555000Y-92710000D01*
X120015000Y-101600000D02*
X122555000Y-101600000D01*
X120015000Y-92710000D02*
X120015000Y-101600000D01*
X122555000Y-92710000D02*
X120015000Y-92710000D01*
X118745000Y-85090000D02*
X118745000Y-76200000D01*
X116205000Y-85090000D02*
X118745000Y-85090000D01*
X116205000Y-76200000D02*
X116205000Y-85090000D01*
X118745000Y-76200000D02*
X116205000Y-76200000D01*
X122555000Y-85090000D02*
X122555000Y-76200000D01*
X120015000Y-85090000D02*
X122555000Y-85090000D01*
X120015000Y-76200000D02*
X120015000Y-85090000D01*
X122555000Y-76200000D02*
X120015000Y-76200000D01*
X136525000Y-85090000D02*
X136525000Y-76200000D01*
X133985000Y-85090000D02*
X136525000Y-85090000D01*
X133985000Y-76200000D02*
X133985000Y-85090000D01*
X136525000Y-76200000D02*
X133985000Y-76200000D01*
X133985000Y-85090000D02*
X133985000Y-76200000D01*
X131445000Y-85090000D02*
X133985000Y-85090000D01*
X131445000Y-76200000D02*
X131445000Y-85090000D01*
X133985000Y-76200000D02*
X131445000Y-76200000D01*
X125730000Y-85090000D02*
X125730000Y-76200000D01*
X123190000Y-85090000D02*
X125730000Y-85090000D01*
X123190000Y-76200000D02*
X123190000Y-85090000D01*
X125730000Y-76200000D02*
X123190000Y-76200000D01*
X129540000Y-69215000D02*
X129540000Y-60325000D01*
X127000000Y-69215000D02*
X129540000Y-69215000D01*
X127000000Y-60325000D02*
X127000000Y-69215000D01*
X129540000Y-60325000D02*
X127000000Y-60325000D01*
X116205000Y-60325000D02*
X116205000Y-69215000D01*
X118745000Y-60325000D02*
X116205000Y-60325000D01*
X118745000Y-69215000D02*
X118745000Y-60325000D01*
X116205000Y-69215000D02*
X118745000Y-69215000D01*
X125730000Y-69215000D02*
X125730000Y-60325000D01*
X123190000Y-69215000D02*
X125730000Y-69215000D01*
X123190000Y-60325000D02*
X123190000Y-69215000D01*
X125730000Y-60325000D02*
X123190000Y-60325000D01*
X141605000Y-56515000D02*
X141605000Y-47625000D01*
X139065000Y-56515000D02*
X141605000Y-56515000D01*
X139065000Y-47625000D02*
X139065000Y-56515000D01*
X141605000Y-47625000D02*
X139065000Y-47625000D01*
X144780000Y-56515000D02*
X144780000Y-47625000D01*
X142240000Y-56515000D02*
X144780000Y-56515000D01*
X142240000Y-47625000D02*
X142240000Y-56515000D01*
X144780000Y-47625000D02*
X142240000Y-47625000D01*
X113665000Y-97790000D02*
X113665000Y-88900000D01*
X111125000Y-97790000D02*
X113665000Y-97790000D01*
X111125000Y-88900000D02*
X111125000Y-97790000D01*
X113665000Y-88900000D02*
X111125000Y-88900000D01*
X153670000Y-56515000D02*
X153670000Y-47625000D01*
X151130000Y-56515000D02*
X153670000Y-56515000D01*
X151130000Y-47625000D02*
X151130000Y-56515000D01*
X153670000Y-47625000D02*
X151130000Y-47625000D01*
X203136500Y-49784000D02*
X203136500Y-59436000D01*
X193611500Y-49784000D02*
X203136500Y-49784000D01*
X193611500Y-46355000D02*
X180784500Y-46355000D01*
X180784500Y-46355000D02*
X180784500Y-62865000D01*
X193611500Y-46355000D02*
X193611500Y-62865000D01*
X193611500Y-62865000D02*
X180784500Y-62865000D01*
X193611500Y-59436000D02*
X203136500Y-59436000D01*
X167005000Y-53975000D02*
X167005000Y-45085000D01*
X164465000Y-53975000D02*
X167005000Y-53975000D01*
X164465000Y-45085000D02*
X164465000Y-53975000D01*
X167005000Y-45085000D02*
X164465000Y-45085000D01*
X172720000Y-41275000D02*
X172720000Y-32385000D01*
X170180000Y-41275000D02*
X172720000Y-41275000D01*
X170180000Y-32385000D02*
X170180000Y-41275000D01*
X172720000Y-32385000D02*
X170180000Y-32385000D01*
X173990000Y-32385000D02*
X173990000Y-41275000D01*
X176530000Y-32385000D02*
X173990000Y-32385000D01*
X176530000Y-41275000D02*
X176530000Y-32385000D01*
X173990000Y-41275000D02*
X176530000Y-41275000D01*
X177800000Y-32385000D02*
X177800000Y-41275000D01*
X180340000Y-32385000D02*
X177800000Y-32385000D01*
X180340000Y-41275000D02*
X180340000Y-32385000D01*
X177800000Y-41275000D02*
X180340000Y-41275000D01*
X76327000Y-113665000D02*
X75565000Y-114427000D01*
X75565000Y-112903000D02*
X76327000Y-113665000D01*
X75565000Y-116205000D02*
X75565000Y-111125000D01*
X95885000Y-116205000D02*
X75565000Y-116205000D01*
X95885000Y-111125000D02*
X95885000Y-116205000D01*
X75565000Y-111125000D02*
X95885000Y-111125000D01*
X104902000Y-113665000D02*
X104140000Y-114427000D01*
X104140000Y-112903000D02*
X104902000Y-113665000D01*
X104140000Y-116205000D02*
X104140000Y-111125000D01*
X124460000Y-116205000D02*
X104140000Y-116205000D01*
X124460000Y-111125000D02*
X124460000Y-116205000D01*
X104140000Y-111125000D02*
X124460000Y-111125000D01*
X130302000Y-113665000D02*
X129540000Y-114427000D01*
X129540000Y-112903000D02*
X130302000Y-113665000D01*
X129540000Y-116205000D02*
X129540000Y-111125000D01*
X149860000Y-116205000D02*
X129540000Y-116205000D01*
X149860000Y-111125000D02*
X149860000Y-116205000D01*
X129540000Y-111125000D02*
X149860000Y-111125000D01*
X155702000Y-113665000D02*
X154940000Y-114427000D01*
X154940000Y-112903000D02*
X155702000Y-113665000D01*
X154940000Y-116205000D02*
X154940000Y-111125000D01*
X180340000Y-116205000D02*
X154940000Y-116205000D01*
X180340000Y-111125000D02*
X180340000Y-116205000D01*
X154940000Y-111125000D02*
X180340000Y-111125000D01*
X130175000Y-94615000D02*
X129413000Y-95377000D01*
X129413000Y-93853000D02*
X130175000Y-94615000D01*
X129413000Y-92075000D02*
X147320000Y-92075000D01*
X129413000Y-97155000D02*
X129413000Y-92075000D01*
X147320000Y-97155000D02*
X129413000Y-97155000D01*
X147320000Y-92075000D02*
X147320000Y-97155000D01*
X155702000Y-78105000D02*
X154940000Y-78867000D01*
X154940000Y-77343000D02*
X155702000Y-78105000D01*
X154940000Y-80645000D02*
X154940000Y-75565000D01*
X165100000Y-80645000D02*
X154940000Y-80645000D01*
X165100000Y-75565000D02*
X165100000Y-80645000D01*
X154940000Y-75565000D02*
X165100000Y-75565000D01*
X132715000Y-66675000D02*
X131953000Y-67437000D01*
X131953000Y-65913000D02*
X132715000Y-66675000D01*
X131953000Y-64135000D02*
X149860000Y-64135000D01*
X131953000Y-69215000D02*
X131953000Y-64135000D01*
X149860000Y-69215000D02*
X131953000Y-69215000D01*
X149860000Y-64135000D02*
X149860000Y-69215000D01*
X149352000Y-37338000D02*
X148590000Y-38100000D01*
X148590000Y-36576000D02*
X149352000Y-37338000D01*
X148590000Y-39878000D02*
X148590000Y-34798000D01*
X158750000Y-39878000D02*
X148590000Y-39878000D01*
X158750000Y-34798000D02*
X158750000Y-39878000D01*
X148590000Y-34798000D02*
X158750000Y-34798000D01*
X141478000Y-35052000D02*
X140462000Y-35052000D01*
X140970000Y-35560000D02*
X140970000Y-34544000D01*
X138430000Y-41275000D02*
X135890000Y-41275000D01*
X134620000Y-32385000D02*
X118110000Y-32385000D01*
X134620000Y-32385001D02*
G75*
G03X135890000Y-32385001I635000J254000D01*
G01*
X138430000Y-32385000D02*
X135890000Y-32385000D01*
X118110000Y-36830000D02*
X116713000Y-36830000D01*
X138430000Y-36830000D02*
X139827000Y-36830000D01*
X138430000Y-32385000D02*
X138430000Y-41275000D01*
X118110000Y-41275000D02*
X118110000Y-32385000D01*
X135890000Y-41275000D02*
G75*
G03X134620000Y-41275000I-635000J-254000D01*
G01*
X134620000Y-41275000D02*
X118110000Y-41275000D01*
X128905000Y-116205000D02*
X128905000Y-111125000D01*
X126365000Y-111125000D02*
X126365000Y-116205000D01*
X126365000Y-113665000D02*
G75*
G03X128905000Y-113665000I1270000J0D01*
G01*
X126365000Y-116205000D02*
G75*
G03X128905000Y-116205000I1270000J0D01*
G01*
X128905000Y-111125000D02*
G75*
G03X126365000Y-111125000I-1270000J0D01*
G01*
X154305000Y-80645000D02*
X154305000Y-75565000D01*
X151765000Y-75565000D02*
X151765000Y-80645000D01*
X151765000Y-78105000D02*
G75*
G03X154305000Y-78105000I1270000J0D01*
G01*
X151765000Y-80645000D02*
G75*
G03X154305000Y-80645000I1270000J0D01*
G01*
X154305000Y-75565000D02*
G75*
G03X151765000Y-75565000I-1270000J0D01*
G01*
X154305000Y-116205000D02*
X154305000Y-111125000D01*
X151765000Y-111125000D02*
X151765000Y-116205000D01*
X151765000Y-113665000D02*
G75*
G03X154305000Y-113665000I1270000J0D01*
G01*
X151765000Y-116205000D02*
G75*
G03X154305000Y-116205000I1270000J0D01*
G01*
X154305000Y-111125000D02*
G75*
G03X151765000Y-111125000I-1270000J0D01*
G01*
X101600000Y-116205000D02*
X101600000Y-111125000D01*
X99060000Y-111125000D02*
X99060000Y-116205000D01*
X99060000Y-113665000D02*
G75*
G03X101600000Y-113665000I1270000J0D01*
G01*
X99060000Y-116205000D02*
G75*
G03X101600000Y-116205000I1270000J0D01*
G01*
X101600000Y-111125000D02*
G75*
G03X99060000Y-111125000I-1270000J0D01*
G01*
X74295000Y-116205000D02*
X74295000Y-111125000D01*
X71755000Y-111125000D02*
X71755000Y-116205000D01*
X71755000Y-113665000D02*
G75*
G03X74295000Y-113665000I1270000J0D01*
G01*
X71755000Y-116205000D02*
G75*
G03X74295000Y-116205000I1270000J0D01*
G01*
X74295000Y-111125000D02*
G75*
G03X71755000Y-111125000I-1270000J0D01*
G01*
X128270000Y-97155000D02*
X128270000Y-92075000D01*
X125730000Y-92075000D02*
X125730000Y-97155000D01*
X125730000Y-94615000D02*
G75*
G03X128270000Y-94615000I1270000J0D01*
G01*
X125730000Y-97155000D02*
G75*
G03X128270000Y-97155000I1270000J0D01*
G01*
X128270000Y-92075000D02*
G75*
G03X125730000Y-92075000I-1270000J0D01*
G01*
X189230000Y-102235000D02*
X189230000Y-97155000D01*
X186690000Y-97155000D02*
X186690000Y-102235000D01*
X186690000Y-99695000D02*
G75*
G03X189230000Y-99695000I1270000J0D01*
G01*
X186690000Y-102235000D02*
G75*
G03X189230000Y-102235000I1270000J0D01*
G01*
X189230000Y-97155000D02*
G75*
G03X186690000Y-97155000I-1270000J0D01*
G01*
X129540000Y-86995000D02*
X129540000Y-81915000D01*
X127000000Y-81915000D02*
X127000000Y-86995000D01*
X127000000Y-84455000D02*
G75*
G03X129540000Y-84455000I1270000J0D01*
G01*
X127000000Y-86995000D02*
G75*
G03X129540000Y-86995000I1270000J0D01*
G01*
X129540000Y-81915000D02*
G75*
G03X127000000Y-81915000I-1270000J0D01*
G01*
X129540000Y-79375000D02*
X129540000Y-74295000D01*
X127000000Y-74295000D02*
X127000000Y-79375000D01*
X127000000Y-76835000D02*
G75*
G03X129540000Y-76835000I1270000J0D01*
G01*
X127000000Y-79375000D02*
G75*
G03X129540000Y-79375000I1270000J0D01*
G01*
X129540000Y-74295000D02*
G75*
G03X127000000Y-74295000I-1270000J0D01*
G01*
X122555000Y-71120000D02*
X122555000Y-66040000D01*
X120015000Y-66040000D02*
X120015000Y-71120000D01*
X120015000Y-68580000D02*
G75*
G03X122555000Y-68580000I1270000J0D01*
G01*
X120015000Y-71120000D02*
G75*
G03X122555000Y-71120000I1270000J0D01*
G01*
X122555000Y-66040000D02*
G75*
G03X120015000Y-66040000I-1270000J0D01*
G01*
X122555000Y-63500000D02*
X122555000Y-58420000D01*
X120015000Y-58420000D02*
X120015000Y-63500000D01*
X120015000Y-60960000D02*
G75*
G03X122555000Y-60960000I1270000J0D01*
G01*
X120015000Y-63500000D02*
G75*
G03X122555000Y-63500000I1270000J0D01*
G01*
X122555000Y-58420000D02*
G75*
G03X120015000Y-58420000I-1270000J0D01*
G01*
X149225000Y-58420000D02*
X149225000Y-53340000D01*
X146685000Y-53340000D02*
X146685000Y-58420000D01*
X146685000Y-55880000D02*
G75*
G03X149225000Y-55880000I1270000J0D01*
G01*
X146685000Y-58420000D02*
G75*
G03X149225000Y-58420000I1270000J0D01*
G01*
X149225000Y-53340000D02*
G75*
G03X146685000Y-53340000I-1270000J0D01*
G01*
X149225000Y-50800000D02*
X149225000Y-45720000D01*
X146685000Y-45720000D02*
X146685000Y-50800000D01*
X146685000Y-48260000D02*
G75*
G03X149225000Y-48260000I1270000J0D01*
G01*
X146685000Y-50800000D02*
G75*
G03X149225000Y-50800000I1270000J0D01*
G01*
X149225000Y-45720000D02*
G75*
G03X146685000Y-45720000I-1270000J0D01*
G01*
X163195000Y-40005000D02*
X163195000Y-34925000D01*
X160655000Y-34925000D02*
X160655000Y-40005000D01*
X160655000Y-37465000D02*
G75*
G03X163195000Y-37465000I1270000J0D01*
G01*
X160655000Y-40005000D02*
G75*
G03X163195000Y-40005000I1270000J0D01*
G01*
X163195000Y-34925000D02*
G75*
G03X160655000Y-34925000I-1270000J0D01*
G01*
X167005000Y-40005000D02*
X167005000Y-34925000D01*
X164465000Y-34925000D02*
X164465000Y-40005000D01*
X164465000Y-37465000D02*
G75*
G03X167005000Y-37465000I1270000J0D01*
G01*
X164465000Y-40005000D02*
G75*
G03X167005000Y-40005000I1270000J0D01*
G01*
X167005000Y-34925000D02*
G75*
G03X164465000Y-34925000I-1270000J0D01*
G01*
X179705000Y-57150000D02*
X179705000Y-52070000D01*
X177165000Y-52070000D02*
X177165000Y-57150000D01*
X177165000Y-54610000D02*
G75*
G03X179705000Y-54610000I1270000J0D01*
G01*
X177165000Y-57150000D02*
G75*
G03X179705000Y-57150000I1270000J0D01*
G01*
X179705000Y-52070000D02*
G75*
G03X177165000Y-52070000I-1270000J0D01*
G01*
X183810326Y-115293071D02*
G75*
G03X183769000Y-112014000I-930326J1628071D01*
G01*
X184531000Y-110998000D02*
X184531000Y-111760000D01*
X184912000Y-111379000D02*
X184150000Y-111379000D01*
X181991000Y-112014000D02*
G75*
G03X182032326Y-115293071I930326J-1628071D01*
G01*
X190795326Y-121643071D02*
G75*
G03X190754000Y-118364000I-930326J1628071D01*
G01*
X191516000Y-117348000D02*
X191516000Y-118110000D01*
X191897000Y-117729000D02*
X191135000Y-117729000D01*
X188976000Y-118364000D02*
G75*
G03X189017326Y-121643071I930326J-1628071D01*
G01*
X195875326Y-121643071D02*
G75*
G03X195834000Y-118364000I-930326J1628071D01*
G01*
X196596000Y-117348000D02*
X196596000Y-118110000D01*
X196977000Y-117729000D02*
X196215000Y-117729000D01*
X194056000Y-118364000D02*
G75*
G03X194097326Y-121643071I930326J-1628071D01*
G01*
X106340326Y-98783071D02*
G75*
G03X106299000Y-95504000I-930326J1628071D01*
G01*
X107061000Y-94488000D02*
X107061000Y-95250000D01*
X107442000Y-94869000D02*
X106680000Y-94869000D01*
X104521000Y-95504000D02*
G75*
G03X104562326Y-98783071I930326J-1628071D01*
G01*
X168633826Y-79733071D02*
G75*
G03X168592500Y-76454000I-930326J1628071D01*
G01*
X169354500Y-75438000D02*
X169354500Y-76200000D01*
X169735500Y-75819000D02*
X168973500Y-75819000D01*
X166814500Y-76454000D02*
G75*
G03X166855826Y-79733071I930326J-1628071D01*
G01*
X136820326Y-53063071D02*
G75*
G03X136779000Y-49784000I-930326J1628071D01*
G01*
X137541000Y-48768000D02*
X137541000Y-49530000D01*
X137922000Y-49149000D02*
X137160000Y-49149000D01*
X135001000Y-49784000D02*
G75*
G03X135042326Y-53063071I930326J-1628071D01*
G01*
X146345326Y-39093071D02*
G75*
G03X146304000Y-35814000I-930326J1628071D01*
G01*
X147066000Y-34798000D02*
X147066000Y-35560000D01*
X147447000Y-35179000D02*
X146685000Y-35179000D01*
X144526000Y-35814000D02*
G75*
G03X144567326Y-39093071I930326J-1628071D01*
G01*
D14*
G36*
X80951608Y-87509627D02*
X80952046Y-87772814D01*
X80952917Y-88028348D01*
X80954180Y-88272108D01*
X80955793Y-88499970D01*
X80957714Y-88707811D01*
X80959902Y-88891507D01*
X80962315Y-89046935D01*
X80964912Y-89169972D01*
X80967650Y-89256495D01*
X80969583Y-89292506D01*
X80978416Y-89396480D01*
X80988059Y-89466992D01*
X81001066Y-89514002D01*
X81019995Y-89547470D01*
X81041094Y-89571161D01*
X81114021Y-89618248D01*
X81186079Y-89638020D01*
X81243216Y-89648493D01*
X81269177Y-89666560D01*
X81276116Y-89703092D01*
X81276306Y-89718700D01*
X81276306Y-89787278D01*
X80727675Y-89890074D01*
X80577868Y-89917936D01*
X80441533Y-89942898D01*
X80324686Y-89963892D01*
X80233343Y-89979846D01*
X80173519Y-89989692D01*
X80151883Y-89992459D01*
X80137970Y-89978314D01*
X80129310Y-89933148D01*
X80125243Y-89852105D01*
X80124724Y-89792931D01*
X80124724Y-89593815D01*
X79978060Y-89735402D01*
X79872909Y-89831923D01*
X79782926Y-89899642D01*
X79696227Y-89943767D01*
X79600925Y-89969502D01*
X79485136Y-89982054D01*
X79407700Y-89985245D01*
X79255230Y-89984691D01*
X79140475Y-89973901D01*
X79087996Y-89961680D01*
X78917399Y-89883841D01*
X78760938Y-89767577D01*
X78621843Y-89616527D01*
X78503342Y-89434332D01*
X78408665Y-89224631D01*
X78392048Y-89177249D01*
X78371320Y-89112597D01*
X78356175Y-89055402D01*
X78345722Y-88996967D01*
X78339071Y-88928595D01*
X78335330Y-88841587D01*
X78333609Y-88727248D01*
X78333067Y-88601458D01*
X78333253Y-88475567D01*
X79189470Y-88475567D01*
X79192232Y-88702576D01*
X79201423Y-88892612D01*
X79218052Y-89051817D01*
X79243132Y-89186334D01*
X79277673Y-89302307D01*
X79322688Y-89405879D01*
X79351173Y-89457906D01*
X79416170Y-89552311D01*
X79483313Y-89610442D01*
X79562492Y-89638787D01*
X79635514Y-89644400D01*
X79719650Y-89637907D01*
X79785954Y-89613324D01*
X79833568Y-89582161D01*
X79920486Y-89511018D01*
X79993634Y-89431915D01*
X80067310Y-89329733D01*
X80124724Y-89243209D01*
X80124724Y-87827438D01*
X80032380Y-87690419D01*
X79929659Y-87560558D01*
X79823329Y-87471969D01*
X79710385Y-87422471D01*
X79648064Y-87411459D01*
X79532846Y-87413428D01*
X79443316Y-87446577D01*
X79371891Y-87514129D01*
X79357049Y-87535140D01*
X79303635Y-87628935D01*
X79261842Y-87734192D01*
X79230623Y-87856790D01*
X79208931Y-88002608D01*
X79195718Y-88177523D01*
X79189936Y-88387415D01*
X79189470Y-88475567D01*
X78333253Y-88475567D01*
X78333287Y-88453181D01*
X78335211Y-88339431D01*
X78339602Y-88251289D01*
X78347222Y-88179836D01*
X78358833Y-88116154D01*
X78375198Y-88051323D01*
X78382209Y-88026646D01*
X78467390Y-87792963D01*
X78577658Y-87590272D01*
X78711027Y-87420302D01*
X78865510Y-87284784D01*
X79039122Y-87185449D01*
X79229877Y-87124027D01*
X79435789Y-87102250D01*
X79442879Y-87102227D01*
X79603216Y-87112291D01*
X79737863Y-87145985D01*
X79860510Y-87208563D01*
X79984846Y-87305281D01*
X79994526Y-87313971D01*
X80131806Y-87438203D01*
X80118650Y-86858721D01*
X80113884Y-86668235D01*
X80108540Y-86516250D01*
X80101651Y-86397810D01*
X80092251Y-86307961D01*
X80079372Y-86241749D01*
X80062049Y-86194220D01*
X80039315Y-86160418D01*
X80010202Y-86135390D01*
X79973744Y-86114182D01*
X79973339Y-86113973D01*
X79910619Y-86093131D01*
X79832735Y-86081737D01*
X79810747Y-86081013D01*
X79750198Y-86079177D01*
X79721360Y-86068514D01*
X79712500Y-86041287D01*
X79711892Y-86015829D01*
X79711892Y-85950645D01*
X80950386Y-85950645D01*
X80951608Y-87509627D01*
X80951608Y-87509627D01*
G37*
X80951608Y-87509627D02*
X80952046Y-87772814D01*
X80952917Y-88028348D01*
X80954180Y-88272108D01*
X80955793Y-88499970D01*
X80957714Y-88707811D01*
X80959902Y-88891507D01*
X80962315Y-89046935D01*
X80964912Y-89169972D01*
X80967650Y-89256495D01*
X80969583Y-89292506D01*
X80978416Y-89396480D01*
X80988059Y-89466992D01*
X81001066Y-89514002D01*
X81019995Y-89547470D01*
X81041094Y-89571161D01*
X81114021Y-89618248D01*
X81186079Y-89638020D01*
X81243216Y-89648493D01*
X81269177Y-89666560D01*
X81276116Y-89703092D01*
X81276306Y-89718700D01*
X81276306Y-89787278D01*
X80727675Y-89890074D01*
X80577868Y-89917936D01*
X80441533Y-89942898D01*
X80324686Y-89963892D01*
X80233343Y-89979846D01*
X80173519Y-89989692D01*
X80151883Y-89992459D01*
X80137970Y-89978314D01*
X80129310Y-89933148D01*
X80125243Y-89852105D01*
X80124724Y-89792931D01*
X80124724Y-89593815D01*
X79978060Y-89735402D01*
X79872909Y-89831923D01*
X79782926Y-89899642D01*
X79696227Y-89943767D01*
X79600925Y-89969502D01*
X79485136Y-89982054D01*
X79407700Y-89985245D01*
X79255230Y-89984691D01*
X79140475Y-89973901D01*
X79087996Y-89961680D01*
X78917399Y-89883841D01*
X78760938Y-89767577D01*
X78621843Y-89616527D01*
X78503342Y-89434332D01*
X78408665Y-89224631D01*
X78392048Y-89177249D01*
X78371320Y-89112597D01*
X78356175Y-89055402D01*
X78345722Y-88996967D01*
X78339071Y-88928595D01*
X78335330Y-88841587D01*
X78333609Y-88727248D01*
X78333067Y-88601458D01*
X78333253Y-88475567D01*
X79189470Y-88475567D01*
X79192232Y-88702576D01*
X79201423Y-88892612D01*
X79218052Y-89051817D01*
X79243132Y-89186334D01*
X79277673Y-89302307D01*
X79322688Y-89405879D01*
X79351173Y-89457906D01*
X79416170Y-89552311D01*
X79483313Y-89610442D01*
X79562492Y-89638787D01*
X79635514Y-89644400D01*
X79719650Y-89637907D01*
X79785954Y-89613324D01*
X79833568Y-89582161D01*
X79920486Y-89511018D01*
X79993634Y-89431915D01*
X80067310Y-89329733D01*
X80124724Y-89243209D01*
X80124724Y-87827438D01*
X80032380Y-87690419D01*
X79929659Y-87560558D01*
X79823329Y-87471969D01*
X79710385Y-87422471D01*
X79648064Y-87411459D01*
X79532846Y-87413428D01*
X79443316Y-87446577D01*
X79371891Y-87514129D01*
X79357049Y-87535140D01*
X79303635Y-87628935D01*
X79261842Y-87734192D01*
X79230623Y-87856790D01*
X79208931Y-88002608D01*
X79195718Y-88177523D01*
X79189936Y-88387415D01*
X79189470Y-88475567D01*
X78333253Y-88475567D01*
X78333287Y-88453181D01*
X78335211Y-88339431D01*
X78339602Y-88251289D01*
X78347222Y-88179836D01*
X78358833Y-88116154D01*
X78375198Y-88051323D01*
X78382209Y-88026646D01*
X78467390Y-87792963D01*
X78577658Y-87590272D01*
X78711027Y-87420302D01*
X78865510Y-87284784D01*
X79039122Y-87185449D01*
X79229877Y-87124027D01*
X79435789Y-87102250D01*
X79442879Y-87102227D01*
X79603216Y-87112291D01*
X79737863Y-87145985D01*
X79860510Y-87208563D01*
X79984846Y-87305281D01*
X79994526Y-87313971D01*
X80131806Y-87438203D01*
X80118650Y-86858721D01*
X80113884Y-86668235D01*
X80108540Y-86516250D01*
X80101651Y-86397810D01*
X80092251Y-86307961D01*
X80079372Y-86241749D01*
X80062049Y-86194220D01*
X80039315Y-86160418D01*
X80010202Y-86135390D01*
X79973744Y-86114182D01*
X79973339Y-86113973D01*
X79910619Y-86093131D01*
X79832735Y-86081737D01*
X79810747Y-86081013D01*
X79750198Y-86079177D01*
X79721360Y-86068514D01*
X79712500Y-86041287D01*
X79711892Y-86015829D01*
X79711892Y-85950645D01*
X80950386Y-85950645D01*
X80951608Y-87509627D01*
G36*
X88164073Y-87406919D02*
X88288878Y-87305264D01*
X88372040Y-87243684D01*
X88463614Y-87185121D01*
X88533318Y-87147487D01*
X88590915Y-87122560D01*
X88644330Y-87106274D01*
X88705342Y-87096839D01*
X88785733Y-87092465D01*
X88897281Y-87091365D01*
X88902824Y-87091363D01*
X89010943Y-87091818D01*
X89087733Y-87094854D01*
X89145323Y-87102980D01*
X89195841Y-87118705D01*
X89251414Y-87144536D01*
X89310519Y-87175690D01*
X89486575Y-87292999D01*
X89633815Y-87441716D01*
X89752809Y-87622629D01*
X89844124Y-87836529D01*
X89883086Y-87969830D01*
X89901506Y-88049158D01*
X89913664Y-88121072D01*
X89920324Y-88196790D01*
X89922247Y-88287530D01*
X89920196Y-88404512D01*
X89917777Y-88480437D01*
X89909232Y-88653633D01*
X89895253Y-88795090D01*
X89873285Y-88916430D01*
X89840773Y-89029274D01*
X89795162Y-89145244D01*
X89750256Y-89242433D01*
X89626467Y-89455079D01*
X89477053Y-89634494D01*
X89303707Y-89779044D01*
X89108124Y-89887096D01*
X89062312Y-89905795D01*
X88957262Y-89934950D01*
X88823968Y-89955757D01*
X88676993Y-89967341D01*
X88530902Y-89968824D01*
X88400258Y-89959329D01*
X88340814Y-89949231D01*
X88177761Y-89895695D01*
X88022715Y-89811985D01*
X87891355Y-89706862D01*
X87872789Y-89687793D01*
X87776492Y-89584844D01*
X87618569Y-89777582D01*
X87546096Y-89863881D01*
X87493076Y-89920712D01*
X87453212Y-89953614D01*
X87420210Y-89968125D01*
X87399528Y-89970320D01*
X87338410Y-89970320D01*
X87336518Y-88270106D01*
X87336030Y-87996734D01*
X87335201Y-87732033D01*
X87335133Y-87716866D01*
X88157413Y-87716866D01*
X88170617Y-88544833D01*
X88174196Y-88735189D01*
X88178593Y-88913665D01*
X88183603Y-89075056D01*
X88189022Y-89214158D01*
X88194645Y-89325768D01*
X88200268Y-89404681D01*
X88205687Y-89445692D01*
X88206038Y-89446957D01*
X88248001Y-89543349D01*
X88309515Y-89632333D01*
X88379624Y-89699357D01*
X88410130Y-89718023D01*
X88501543Y-89744894D01*
X88610126Y-89750671D01*
X88715071Y-89735375D01*
X88764482Y-89717621D01*
X88830912Y-89668614D01*
X88891071Y-89593287D01*
X88896385Y-89584490D01*
X88944084Y-89491554D01*
X88981142Y-89390429D01*
X89009061Y-89273666D01*
X89029340Y-89133816D01*
X89043481Y-88963431D01*
X89050661Y-88818737D01*
X89058231Y-88539615D01*
X89056748Y-88299805D01*
X89045699Y-88096012D01*
X89024573Y-87924940D01*
X88992858Y-87783293D01*
X88950043Y-87667777D01*
X88895616Y-87575094D01*
X88849218Y-87520919D01*
X88793407Y-87468457D01*
X88749152Y-87440675D01*
X88699073Y-87429831D01*
X88640944Y-87428147D01*
X88503909Y-87447252D01*
X88378244Y-87505804D01*
X88260105Y-87605659D01*
X88249426Y-87617043D01*
X88157413Y-87716866D01*
X87335133Y-87716866D01*
X87334066Y-87479805D01*
X87332657Y-87243853D01*
X87331007Y-87027979D01*
X87329151Y-86835985D01*
X87327121Y-86671675D01*
X87324951Y-86538850D01*
X87322673Y-86441313D01*
X87320321Y-86382866D01*
X87319969Y-86377763D01*
X87311862Y-86284325D01*
X87302260Y-86222799D01*
X87287322Y-86181705D01*
X87263211Y-86149562D01*
X87234606Y-86122460D01*
X87158195Y-86072443D01*
X87088196Y-86059285D01*
X87037253Y-86055609D01*
X87016419Y-86037003D01*
X87012491Y-85994101D01*
X87012491Y-85928917D01*
X88164073Y-85928917D01*
X88164073Y-87406919D01*
X88164073Y-87406919D01*
G37*
X88164073Y-87406919D02*
X88288878Y-87305264D01*
X88372040Y-87243684D01*
X88463614Y-87185121D01*
X88533318Y-87147487D01*
X88590915Y-87122560D01*
X88644330Y-87106274D01*
X88705342Y-87096839D01*
X88785733Y-87092465D01*
X88897281Y-87091365D01*
X88902824Y-87091363D01*
X89010943Y-87091818D01*
X89087733Y-87094854D01*
X89145323Y-87102980D01*
X89195841Y-87118705D01*
X89251414Y-87144536D01*
X89310519Y-87175690D01*
X89486575Y-87292999D01*
X89633815Y-87441716D01*
X89752809Y-87622629D01*
X89844124Y-87836529D01*
X89883086Y-87969830D01*
X89901506Y-88049158D01*
X89913664Y-88121072D01*
X89920324Y-88196790D01*
X89922247Y-88287530D01*
X89920196Y-88404512D01*
X89917777Y-88480437D01*
X89909232Y-88653633D01*
X89895253Y-88795090D01*
X89873285Y-88916430D01*
X89840773Y-89029274D01*
X89795162Y-89145244D01*
X89750256Y-89242433D01*
X89626467Y-89455079D01*
X89477053Y-89634494D01*
X89303707Y-89779044D01*
X89108124Y-89887096D01*
X89062312Y-89905795D01*
X88957262Y-89934950D01*
X88823968Y-89955757D01*
X88676993Y-89967341D01*
X88530902Y-89968824D01*
X88400258Y-89959329D01*
X88340814Y-89949231D01*
X88177761Y-89895695D01*
X88022715Y-89811985D01*
X87891355Y-89706862D01*
X87872789Y-89687793D01*
X87776492Y-89584844D01*
X87618569Y-89777582D01*
X87546096Y-89863881D01*
X87493076Y-89920712D01*
X87453212Y-89953614D01*
X87420210Y-89968125D01*
X87399528Y-89970320D01*
X87338410Y-89970320D01*
X87336518Y-88270106D01*
X87336030Y-87996734D01*
X87335201Y-87732033D01*
X87335133Y-87716866D01*
X88157413Y-87716866D01*
X88170617Y-88544833D01*
X88174196Y-88735189D01*
X88178593Y-88913665D01*
X88183603Y-89075056D01*
X88189022Y-89214158D01*
X88194645Y-89325768D01*
X88200268Y-89404681D01*
X88205687Y-89445692D01*
X88206038Y-89446957D01*
X88248001Y-89543349D01*
X88309515Y-89632333D01*
X88379624Y-89699357D01*
X88410130Y-89718023D01*
X88501543Y-89744894D01*
X88610126Y-89750671D01*
X88715071Y-89735375D01*
X88764482Y-89717621D01*
X88830912Y-89668614D01*
X88891071Y-89593287D01*
X88896385Y-89584490D01*
X88944084Y-89491554D01*
X88981142Y-89390429D01*
X89009061Y-89273666D01*
X89029340Y-89133816D01*
X89043481Y-88963431D01*
X89050661Y-88818737D01*
X89058231Y-88539615D01*
X89056748Y-88299805D01*
X89045699Y-88096012D01*
X89024573Y-87924940D01*
X88992858Y-87783293D01*
X88950043Y-87667777D01*
X88895616Y-87575094D01*
X88849218Y-87520919D01*
X88793407Y-87468457D01*
X88749152Y-87440675D01*
X88699073Y-87429831D01*
X88640944Y-87428147D01*
X88503909Y-87447252D01*
X88378244Y-87505804D01*
X88260105Y-87605659D01*
X88249426Y-87617043D01*
X88157413Y-87716866D01*
X87335133Y-87716866D01*
X87334066Y-87479805D01*
X87332657Y-87243853D01*
X87331007Y-87027979D01*
X87329151Y-86835985D01*
X87327121Y-86671675D01*
X87324951Y-86538850D01*
X87322673Y-86441313D01*
X87320321Y-86382866D01*
X87319969Y-86377763D01*
X87311862Y-86284325D01*
X87302260Y-86222799D01*
X87287322Y-86181705D01*
X87263211Y-86149562D01*
X87234606Y-86122460D01*
X87158195Y-86072443D01*
X87088196Y-86059285D01*
X87037253Y-86055609D01*
X87016419Y-86037003D01*
X87012491Y-85994101D01*
X87012491Y-85928917D01*
X88164073Y-85928917D01*
X88164073Y-87406919D01*
G36*
X76288266Y-85856395D02*
X76300958Y-85868590D01*
X76317534Y-85891876D01*
X76339123Y-85928677D01*
X76366857Y-85981417D01*
X76401865Y-86052519D01*
X76445277Y-86144407D01*
X76498224Y-86259503D01*
X76561835Y-86400232D01*
X76637242Y-86569017D01*
X76725573Y-86768282D01*
X76827959Y-87000449D01*
X76945531Y-87267943D01*
X77061349Y-87531967D01*
X77175439Y-87791770D01*
X77286340Y-88043449D01*
X77392566Y-88283681D01*
X77492630Y-88509142D01*
X77585047Y-88716512D01*
X77668329Y-88902468D01*
X77740992Y-89063688D01*
X77801549Y-89196850D01*
X77848514Y-89298630D01*
X77880401Y-89365708D01*
X77890885Y-89386439D01*
X77971758Y-89524282D01*
X78048664Y-89624322D01*
X78126150Y-89691371D01*
X78208762Y-89730239D01*
X78218374Y-89733005D01*
X78281359Y-89750178D01*
X78328397Y-89763127D01*
X78337598Y-89765704D01*
X78358139Y-89790646D01*
X78364758Y-89828406D01*
X78364758Y-89883408D01*
X76430968Y-89883408D01*
X76430968Y-89831804D01*
X76446356Y-89792065D01*
X76494867Y-89766775D01*
X76580017Y-89754614D01*
X76640798Y-89753040D01*
X76734229Y-89741164D01*
X76812583Y-89709228D01*
X76864837Y-89662766D01*
X76878270Y-89633789D01*
X76885479Y-89587529D01*
X76883187Y-89535148D01*
X76869604Y-89470422D01*
X76842943Y-89387126D01*
X76801413Y-89279036D01*
X76743226Y-89139927D01*
X76722461Y-89091691D01*
X76576222Y-88753553D01*
X75213838Y-88753553D01*
X75125745Y-88943673D01*
X75052708Y-89108621D01*
X75001509Y-89242287D01*
X74970530Y-89349969D01*
X74958154Y-89436967D01*
X74959620Y-89487754D01*
X74986167Y-89584874D01*
X75043061Y-89657866D01*
X75133065Y-89708691D01*
X75258942Y-89739312D01*
X75324471Y-89746728D01*
X75403291Y-89754136D01*
X75448271Y-89762914D01*
X75468899Y-89777770D01*
X75474664Y-89803410D01*
X75474937Y-89821375D01*
X75474937Y-89883408D01*
X74149531Y-89883408D01*
X74149531Y-89818224D01*
X74157504Y-89768948D01*
X74184507Y-89752677D01*
X74187555Y-89752563D01*
X74251085Y-89738072D01*
X74330662Y-89701253D01*
X74411288Y-89650184D01*
X74471358Y-89599708D01*
X74518966Y-89544260D01*
X74575336Y-89467086D01*
X74628472Y-89384636D01*
X74629729Y-89382525D01*
X74651736Y-89340618D01*
X74689929Y-89262225D01*
X74742830Y-89150565D01*
X74808960Y-89008854D01*
X74886841Y-88840312D01*
X74974996Y-88648157D01*
X75034033Y-88518723D01*
X75322842Y-88518723D01*
X75343629Y-88523382D01*
X75402229Y-88527576D01*
X75493001Y-88531133D01*
X75610302Y-88533883D01*
X75748491Y-88535654D01*
X75900443Y-88536274D01*
X76053298Y-88535605D01*
X76190432Y-88533718D01*
X76306297Y-88530796D01*
X76395346Y-88527019D01*
X76452029Y-88522568D01*
X76470803Y-88517631D01*
X76460604Y-88493875D01*
X76435062Y-88435201D01*
X76396305Y-88346481D01*
X76346466Y-88232584D01*
X76287674Y-88098381D01*
X76222059Y-87948742D01*
X76181660Y-87856670D01*
X76104038Y-87680184D01*
X76041783Y-87539948D01*
X75992989Y-87432337D01*
X75955752Y-87353724D01*
X75928167Y-87300485D01*
X75908327Y-87268994D01*
X75894327Y-87255624D01*
X75884263Y-87256750D01*
X75876228Y-87268748D01*
X75874598Y-87272362D01*
X75859446Y-87306576D01*
X75828943Y-87374870D01*
X75785576Y-87471700D01*
X75731831Y-87591518D01*
X75670195Y-87728780D01*
X75603152Y-87877939D01*
X75586138Y-87915772D01*
X75519515Y-88064472D01*
X75459088Y-88200442D01*
X75407072Y-88318611D01*
X75365681Y-88413910D01*
X75337128Y-88481271D01*
X75323626Y-88515623D01*
X75322842Y-88518723D01*
X75034033Y-88518723D01*
X75071946Y-88435605D01*
X75176214Y-88205876D01*
X75286320Y-87962187D01*
X75400787Y-87707757D01*
X75473773Y-87544967D01*
X75608733Y-87243769D01*
X75727222Y-86979902D01*
X75830381Y-86750969D01*
X75919349Y-86554574D01*
X75995265Y-86388320D01*
X76059269Y-86249810D01*
X76112501Y-86136647D01*
X76156100Y-86046435D01*
X76191207Y-85976777D01*
X76218959Y-85925275D01*
X76240499Y-85889533D01*
X76256963Y-85867155D01*
X76269494Y-85855744D01*
X76278328Y-85852869D01*
X76288266Y-85856395D01*
X76288266Y-85856395D01*
G37*
X76288266Y-85856395D02*
X76300958Y-85868590D01*
X76317534Y-85891876D01*
X76339123Y-85928677D01*
X76366857Y-85981417D01*
X76401865Y-86052519D01*
X76445277Y-86144407D01*
X76498224Y-86259503D01*
X76561835Y-86400232D01*
X76637242Y-86569017D01*
X76725573Y-86768282D01*
X76827959Y-87000449D01*
X76945531Y-87267943D01*
X77061349Y-87531967D01*
X77175439Y-87791770D01*
X77286340Y-88043449D01*
X77392566Y-88283681D01*
X77492630Y-88509142D01*
X77585047Y-88716512D01*
X77668329Y-88902468D01*
X77740992Y-89063688D01*
X77801549Y-89196850D01*
X77848514Y-89298630D01*
X77880401Y-89365708D01*
X77890885Y-89386439D01*
X77971758Y-89524282D01*
X78048664Y-89624322D01*
X78126150Y-89691371D01*
X78208762Y-89730239D01*
X78218374Y-89733005D01*
X78281359Y-89750178D01*
X78328397Y-89763127D01*
X78337598Y-89765704D01*
X78358139Y-89790646D01*
X78364758Y-89828406D01*
X78364758Y-89883408D01*
X76430968Y-89883408D01*
X76430968Y-89831804D01*
X76446356Y-89792065D01*
X76494867Y-89766775D01*
X76580017Y-89754614D01*
X76640798Y-89753040D01*
X76734229Y-89741164D01*
X76812583Y-89709228D01*
X76864837Y-89662766D01*
X76878270Y-89633789D01*
X76885479Y-89587529D01*
X76883187Y-89535148D01*
X76869604Y-89470422D01*
X76842943Y-89387126D01*
X76801413Y-89279036D01*
X76743226Y-89139927D01*
X76722461Y-89091691D01*
X76576222Y-88753553D01*
X75213838Y-88753553D01*
X75125745Y-88943673D01*
X75052708Y-89108621D01*
X75001509Y-89242287D01*
X74970530Y-89349969D01*
X74958154Y-89436967D01*
X74959620Y-89487754D01*
X74986167Y-89584874D01*
X75043061Y-89657866D01*
X75133065Y-89708691D01*
X75258942Y-89739312D01*
X75324471Y-89746728D01*
X75403291Y-89754136D01*
X75448271Y-89762914D01*
X75468899Y-89777770D01*
X75474664Y-89803410D01*
X75474937Y-89821375D01*
X75474937Y-89883408D01*
X74149531Y-89883408D01*
X74149531Y-89818224D01*
X74157504Y-89768948D01*
X74184507Y-89752677D01*
X74187555Y-89752563D01*
X74251085Y-89738072D01*
X74330662Y-89701253D01*
X74411288Y-89650184D01*
X74471358Y-89599708D01*
X74518966Y-89544260D01*
X74575336Y-89467086D01*
X74628472Y-89384636D01*
X74629729Y-89382525D01*
X74651736Y-89340618D01*
X74689929Y-89262225D01*
X74742830Y-89150565D01*
X74808960Y-89008854D01*
X74886841Y-88840312D01*
X74974996Y-88648157D01*
X75034033Y-88518723D01*
X75322842Y-88518723D01*
X75343629Y-88523382D01*
X75402229Y-88527576D01*
X75493001Y-88531133D01*
X75610302Y-88533883D01*
X75748491Y-88535654D01*
X75900443Y-88536274D01*
X76053298Y-88535605D01*
X76190432Y-88533718D01*
X76306297Y-88530796D01*
X76395346Y-88527019D01*
X76452029Y-88522568D01*
X76470803Y-88517631D01*
X76460604Y-88493875D01*
X76435062Y-88435201D01*
X76396305Y-88346481D01*
X76346466Y-88232584D01*
X76287674Y-88098381D01*
X76222059Y-87948742D01*
X76181660Y-87856670D01*
X76104038Y-87680184D01*
X76041783Y-87539948D01*
X75992989Y-87432337D01*
X75955752Y-87353724D01*
X75928167Y-87300485D01*
X75908327Y-87268994D01*
X75894327Y-87255624D01*
X75884263Y-87256750D01*
X75876228Y-87268748D01*
X75874598Y-87272362D01*
X75859446Y-87306576D01*
X75828943Y-87374870D01*
X75785576Y-87471700D01*
X75731831Y-87591518D01*
X75670195Y-87728780D01*
X75603152Y-87877939D01*
X75586138Y-87915772D01*
X75519515Y-88064472D01*
X75459088Y-88200442D01*
X75407072Y-88318611D01*
X75365681Y-88413910D01*
X75337128Y-88481271D01*
X75323626Y-88515623D01*
X75322842Y-88518723D01*
X75034033Y-88518723D01*
X75071946Y-88435605D01*
X75176214Y-88205876D01*
X75286320Y-87962187D01*
X75400787Y-87707757D01*
X75473773Y-87544967D01*
X75608733Y-87243769D01*
X75727222Y-86979902D01*
X75830381Y-86750969D01*
X75919349Y-86554574D01*
X75995265Y-86388320D01*
X76059269Y-86249810D01*
X76112501Y-86136647D01*
X76156100Y-86046435D01*
X76191207Y-85976777D01*
X76218959Y-85925275D01*
X76240499Y-85889533D01*
X76256963Y-85867155D01*
X76269494Y-85855744D01*
X76278328Y-85852869D01*
X76288266Y-85856395D01*
G36*
X83840207Y-85979418D02*
X83837369Y-86003574D01*
X83823381Y-86020044D01*
X83790033Y-86031870D01*
X83729112Y-86042096D01*
X83642850Y-86052571D01*
X83520211Y-86071090D01*
X83431045Y-86097278D01*
X83365447Y-86136213D01*
X83313511Y-86192970D01*
X83286144Y-86235380D01*
X83277855Y-86250516D01*
X83270693Y-86267844D01*
X83264576Y-86290461D01*
X83259420Y-86321466D01*
X83255144Y-86363960D01*
X83251666Y-86421039D01*
X83248903Y-86495804D01*
X83246774Y-86591353D01*
X83245195Y-86710784D01*
X83244085Y-86857198D01*
X83243362Y-87033692D01*
X83242943Y-87243365D01*
X83242746Y-87489317D01*
X83242690Y-87774646D01*
X83242688Y-87873570D01*
X83242744Y-88173243D01*
X83242962Y-88432535D01*
X83243412Y-88654522D01*
X83244168Y-88842280D01*
X83245301Y-88998885D01*
X83246882Y-89127412D01*
X83248985Y-89230936D01*
X83251680Y-89312534D01*
X83255041Y-89375280D01*
X83259138Y-89422250D01*
X83264044Y-89456521D01*
X83269831Y-89481167D01*
X83276571Y-89499264D01*
X83280936Y-89507956D01*
X83317492Y-89561858D01*
X83363791Y-89599016D01*
X83429086Y-89623431D01*
X83522632Y-89639100D01*
X83601199Y-89646356D01*
X83857658Y-89651755D01*
X84083616Y-89626412D01*
X84279375Y-89570237D01*
X84445234Y-89483143D01*
X84581495Y-89365040D01*
X84589694Y-89355881D01*
X84670826Y-89247766D01*
X84754281Y-89108061D01*
X84834306Y-88947875D01*
X84905151Y-88778318D01*
X84940150Y-88678889D01*
X84969461Y-88590773D01*
X84991163Y-88536074D01*
X85010913Y-88506826D01*
X85034369Y-88495064D01*
X85067187Y-88492825D01*
X85072316Y-88492818D01*
X85124404Y-88499392D01*
X85143791Y-88522338D01*
X85144601Y-88530842D01*
X85142532Y-88561352D01*
X85136330Y-88629410D01*
X85126564Y-88729359D01*
X85113800Y-88855546D01*
X85098604Y-89002316D01*
X85081544Y-89164014D01*
X85074911Y-89226137D01*
X85004505Y-89883408D01*
X81710866Y-89883408D01*
X81710866Y-89831898D01*
X81713941Y-89806119D01*
X81728932Y-89788884D01*
X81764490Y-89776570D01*
X81829262Y-89765556D01*
X81887750Y-89757808D01*
X82007770Y-89736851D01*
X82094964Y-89705939D01*
X82159747Y-89659427D01*
X82212537Y-89591669D01*
X82221473Y-89576945D01*
X82230303Y-89560659D01*
X82237875Y-89541826D01*
X82244306Y-89517112D01*
X82249712Y-89483183D01*
X82254210Y-89436702D01*
X82257916Y-89374337D01*
X82260947Y-89292752D01*
X82263420Y-89188612D01*
X82265450Y-89058583D01*
X82267155Y-88899330D01*
X82268650Y-88707518D01*
X82270053Y-88479814D01*
X82271480Y-88212881D01*
X82271882Y-88134306D01*
X82272808Y-87885326D01*
X82273069Y-87642271D01*
X82272701Y-87409821D01*
X82271739Y-87192655D01*
X82270221Y-86995452D01*
X82268181Y-86822890D01*
X82265657Y-86679650D01*
X82262684Y-86570409D01*
X82259299Y-86499847D01*
X82259225Y-86498832D01*
X82250337Y-86385916D01*
X82241776Y-86307352D01*
X82231329Y-86254112D01*
X82216779Y-86217167D01*
X82195913Y-86187489D01*
X82178072Y-86167982D01*
X82123505Y-86121133D01*
X82058218Y-86088186D01*
X81971464Y-86065245D01*
X81852497Y-86048411D01*
X81846665Y-86047783D01*
X81772363Y-86038422D01*
X81731542Y-86027242D01*
X81714333Y-86009398D01*
X81710866Y-85981103D01*
X81710866Y-85928917D01*
X83840207Y-85928917D01*
X83840207Y-85979418D01*
X83840207Y-85979418D01*
G37*
X83840207Y-85979418D02*
X83837369Y-86003574D01*
X83823381Y-86020044D01*
X83790033Y-86031870D01*
X83729112Y-86042096D01*
X83642850Y-86052571D01*
X83520211Y-86071090D01*
X83431045Y-86097278D01*
X83365447Y-86136213D01*
X83313511Y-86192970D01*
X83286144Y-86235380D01*
X83277855Y-86250516D01*
X83270693Y-86267844D01*
X83264576Y-86290461D01*
X83259420Y-86321466D01*
X83255144Y-86363960D01*
X83251666Y-86421039D01*
X83248903Y-86495804D01*
X83246774Y-86591353D01*
X83245195Y-86710784D01*
X83244085Y-86857198D01*
X83243362Y-87033692D01*
X83242943Y-87243365D01*
X83242746Y-87489317D01*
X83242690Y-87774646D01*
X83242688Y-87873570D01*
X83242744Y-88173243D01*
X83242962Y-88432535D01*
X83243412Y-88654522D01*
X83244168Y-88842280D01*
X83245301Y-88998885D01*
X83246882Y-89127412D01*
X83248985Y-89230936D01*
X83251680Y-89312534D01*
X83255041Y-89375280D01*
X83259138Y-89422250D01*
X83264044Y-89456521D01*
X83269831Y-89481167D01*
X83276571Y-89499264D01*
X83280936Y-89507956D01*
X83317492Y-89561858D01*
X83363791Y-89599016D01*
X83429086Y-89623431D01*
X83522632Y-89639100D01*
X83601199Y-89646356D01*
X83857658Y-89651755D01*
X84083616Y-89626412D01*
X84279375Y-89570237D01*
X84445234Y-89483143D01*
X84581495Y-89365040D01*
X84589694Y-89355881D01*
X84670826Y-89247766D01*
X84754281Y-89108061D01*
X84834306Y-88947875D01*
X84905151Y-88778318D01*
X84940150Y-88678889D01*
X84969461Y-88590773D01*
X84991163Y-88536074D01*
X85010913Y-88506826D01*
X85034369Y-88495064D01*
X85067187Y-88492825D01*
X85072316Y-88492818D01*
X85124404Y-88499392D01*
X85143791Y-88522338D01*
X85144601Y-88530842D01*
X85142532Y-88561352D01*
X85136330Y-88629410D01*
X85126564Y-88729359D01*
X85113800Y-88855546D01*
X85098604Y-89002316D01*
X85081544Y-89164014D01*
X85074911Y-89226137D01*
X85004505Y-89883408D01*
X81710866Y-89883408D01*
X81710866Y-89831898D01*
X81713941Y-89806119D01*
X81728932Y-89788884D01*
X81764490Y-89776570D01*
X81829262Y-89765556D01*
X81887750Y-89757808D01*
X82007770Y-89736851D01*
X82094964Y-89705939D01*
X82159747Y-89659427D01*
X82212537Y-89591669D01*
X82221473Y-89576945D01*
X82230303Y-89560659D01*
X82237875Y-89541826D01*
X82244306Y-89517112D01*
X82249712Y-89483183D01*
X82254210Y-89436702D01*
X82257916Y-89374337D01*
X82260947Y-89292752D01*
X82263420Y-89188612D01*
X82265450Y-89058583D01*
X82267155Y-88899330D01*
X82268650Y-88707518D01*
X82270053Y-88479814D01*
X82271480Y-88212881D01*
X82271882Y-88134306D01*
X82272808Y-87885326D01*
X82273069Y-87642271D01*
X82272701Y-87409821D01*
X82271739Y-87192655D01*
X82270221Y-86995452D01*
X82268181Y-86822890D01*
X82265657Y-86679650D01*
X82262684Y-86570409D01*
X82259299Y-86499847D01*
X82259225Y-86498832D01*
X82250337Y-86385916D01*
X82241776Y-86307352D01*
X82231329Y-86254112D01*
X82216779Y-86217167D01*
X82195913Y-86187489D01*
X82178072Y-86167982D01*
X82123505Y-86121133D01*
X82058218Y-86088186D01*
X81971464Y-86065245D01*
X81852497Y-86048411D01*
X81846665Y-86047783D01*
X81772363Y-86038422D01*
X81731542Y-86027242D01*
X81714333Y-86009398D01*
X81710866Y-85981103D01*
X81710866Y-85928917D01*
X83840207Y-85928917D01*
X83840207Y-85979418D01*
G36*
X86603864Y-88422202D02*
X86605909Y-88675324D01*
X86608040Y-88888612D01*
X86610385Y-89065688D01*
X86613075Y-89210172D01*
X86616239Y-89325687D01*
X86620006Y-89415855D01*
X86624505Y-89484297D01*
X86629866Y-89534634D01*
X86636218Y-89570489D01*
X86643690Y-89595483D01*
X86645964Y-89600944D01*
X86690671Y-89678570D01*
X86747091Y-89723328D01*
X86829065Y-89745755D01*
X86837815Y-89746990D01*
X86894162Y-89757809D01*
X86919327Y-89776751D01*
X86925528Y-89814132D01*
X86925579Y-89821085D01*
X86925579Y-89883408D01*
X85448077Y-89883408D01*
X85448077Y-89818224D01*
X85453666Y-89771880D01*
X85478739Y-89754810D01*
X85507829Y-89752959D01*
X85585499Y-89735596D01*
X85662672Y-89691379D01*
X85721442Y-89631826D01*
X85735754Y-89606366D01*
X85742993Y-89567635D01*
X85749175Y-89491106D01*
X85754307Y-89382423D01*
X85758393Y-89247232D01*
X85761440Y-89091178D01*
X85763454Y-88919904D01*
X85764439Y-88739056D01*
X85764402Y-88554279D01*
X85763349Y-88371218D01*
X85761285Y-88195517D01*
X85758216Y-88032821D01*
X85754147Y-87888776D01*
X85749085Y-87769025D01*
X85743035Y-87679214D01*
X85736003Y-87624987D01*
X85733732Y-87616585D01*
X85685147Y-87536056D01*
X85610654Y-87477468D01*
X85523580Y-87450651D01*
X85507829Y-87449956D01*
X85465354Y-87443802D01*
X85449738Y-87416428D01*
X85448077Y-87384691D01*
X85448077Y-87319507D01*
X86595641Y-87319507D01*
X86603864Y-88422202D01*
X86603864Y-88422202D01*
G37*
X86603864Y-88422202D02*
X86605909Y-88675324D01*
X86608040Y-88888612D01*
X86610385Y-89065688D01*
X86613075Y-89210172D01*
X86616239Y-89325687D01*
X86620006Y-89415855D01*
X86624505Y-89484297D01*
X86629866Y-89534634D01*
X86636218Y-89570489D01*
X86643690Y-89595483D01*
X86645964Y-89600944D01*
X86690671Y-89678570D01*
X86747091Y-89723328D01*
X86829065Y-89745755D01*
X86837815Y-89746990D01*
X86894162Y-89757809D01*
X86919327Y-89776751D01*
X86925528Y-89814132D01*
X86925579Y-89821085D01*
X86925579Y-89883408D01*
X85448077Y-89883408D01*
X85448077Y-89818224D01*
X85453666Y-89771880D01*
X85478739Y-89754810D01*
X85507829Y-89752959D01*
X85585499Y-89735596D01*
X85662672Y-89691379D01*
X85721442Y-89631826D01*
X85735754Y-89606366D01*
X85742993Y-89567635D01*
X85749175Y-89491106D01*
X85754307Y-89382423D01*
X85758393Y-89247232D01*
X85761440Y-89091178D01*
X85763454Y-88919904D01*
X85764439Y-88739056D01*
X85764402Y-88554279D01*
X85763349Y-88371218D01*
X85761285Y-88195517D01*
X85758216Y-88032821D01*
X85754147Y-87888776D01*
X85749085Y-87769025D01*
X85743035Y-87679214D01*
X85736003Y-87624987D01*
X85733732Y-87616585D01*
X85685147Y-87536056D01*
X85610654Y-87477468D01*
X85523580Y-87450651D01*
X85507829Y-87449956D01*
X85465354Y-87443802D01*
X85449738Y-87416428D01*
X85448077Y-87384691D01*
X85448077Y-87319507D01*
X86595641Y-87319507D01*
X86603864Y-88422202D01*
G36*
X91772229Y-84966471D02*
X91898412Y-84981429D01*
X92013029Y-85010969D01*
X92131739Y-85058864D01*
X92237001Y-85111264D01*
X92339727Y-85177285D01*
X92452032Y-85268970D01*
X92561522Y-85374488D01*
X92655803Y-85482011D01*
X92716182Y-85568614D01*
X92816850Y-85780620D01*
X92877475Y-86000773D01*
X92898640Y-86224080D01*
X92880923Y-86445549D01*
X92824907Y-86660188D01*
X92731172Y-86863005D01*
X92600297Y-87049007D01*
X92535813Y-87119477D01*
X92364651Y-87271330D01*
X92187908Y-87382830D01*
X91998692Y-87457062D01*
X91790110Y-87497109D01*
X91673141Y-87505397D01*
X91569240Y-87506895D01*
X91471643Y-87504437D01*
X91395118Y-87498556D01*
X91368949Y-87494407D01*
X91150405Y-87427564D01*
X90951481Y-87324508D01*
X90767279Y-87182492D01*
X90703279Y-87120947D01*
X90556186Y-86942265D01*
X90446358Y-86745153D01*
X90374361Y-86534453D01*
X90340764Y-86315009D01*
X90344300Y-86167925D01*
X90603680Y-86167925D01*
X90609690Y-86369241D01*
X90653900Y-86558550D01*
X90732100Y-86732333D01*
X90840078Y-86887069D01*
X90973625Y-87019239D01*
X91128531Y-87125324D01*
X91300586Y-87201804D01*
X91485579Y-87245160D01*
X91679301Y-87251872D01*
X91864493Y-87221912D01*
X92057049Y-87152825D01*
X92224933Y-87050614D01*
X92335975Y-86953036D01*
X92466778Y-86793640D01*
X92559594Y-86620138D01*
X92615500Y-86437458D01*
X92635573Y-86250531D01*
X92620889Y-86064288D01*
X92572526Y-85883658D01*
X92491561Y-85713572D01*
X92379070Y-85558959D01*
X92236130Y-85424750D01*
X92063819Y-85315876D01*
X91969059Y-85273296D01*
X91899223Y-85249467D01*
X91827461Y-85234738D01*
X91740134Y-85227230D01*
X91623602Y-85225065D01*
X91618821Y-85225063D01*
X91501018Y-85227075D01*
X91412898Y-85234364D01*
X91340822Y-85248808D01*
X91271149Y-85272286D01*
X91268583Y-85273296D01*
X91080709Y-85369565D01*
X90918845Y-85497449D01*
X90786474Y-85652260D01*
X90687083Y-85829307D01*
X90624157Y-86023901D01*
X90603680Y-86167925D01*
X90344300Y-86167925D01*
X90346134Y-86091665D01*
X90391038Y-85869266D01*
X90476043Y-85652655D01*
X90521460Y-85568614D01*
X90592204Y-85469068D01*
X90689026Y-85361153D01*
X90799531Y-85256699D01*
X90911326Y-85167535D01*
X91000641Y-85111264D01*
X91133371Y-85046471D01*
X91249823Y-85002970D01*
X91365653Y-84976987D01*
X91496521Y-84964752D01*
X91618821Y-84962323D01*
X91772229Y-84966471D01*
X91772229Y-84966471D01*
G37*
X91772229Y-84966471D02*
X91898412Y-84981429D01*
X92013029Y-85010969D01*
X92131739Y-85058864D01*
X92237001Y-85111264D01*
X92339727Y-85177285D01*
X92452032Y-85268970D01*
X92561522Y-85374488D01*
X92655803Y-85482011D01*
X92716182Y-85568614D01*
X92816850Y-85780620D01*
X92877475Y-86000773D01*
X92898640Y-86224080D01*
X92880923Y-86445549D01*
X92824907Y-86660188D01*
X92731172Y-86863005D01*
X92600297Y-87049007D01*
X92535813Y-87119477D01*
X92364651Y-87271330D01*
X92187908Y-87382830D01*
X91998692Y-87457062D01*
X91790110Y-87497109D01*
X91673141Y-87505397D01*
X91569240Y-87506895D01*
X91471643Y-87504437D01*
X91395118Y-87498556D01*
X91368949Y-87494407D01*
X91150405Y-87427564D01*
X90951481Y-87324508D01*
X90767279Y-87182492D01*
X90703279Y-87120947D01*
X90556186Y-86942265D01*
X90446358Y-86745153D01*
X90374361Y-86534453D01*
X90340764Y-86315009D01*
X90344300Y-86167925D01*
X90603680Y-86167925D01*
X90609690Y-86369241D01*
X90653900Y-86558550D01*
X90732100Y-86732333D01*
X90840078Y-86887069D01*
X90973625Y-87019239D01*
X91128531Y-87125324D01*
X91300586Y-87201804D01*
X91485579Y-87245160D01*
X91679301Y-87251872D01*
X91864493Y-87221912D01*
X92057049Y-87152825D01*
X92224933Y-87050614D01*
X92335975Y-86953036D01*
X92466778Y-86793640D01*
X92559594Y-86620138D01*
X92615500Y-86437458D01*
X92635573Y-86250531D01*
X92620889Y-86064288D01*
X92572526Y-85883658D01*
X92491561Y-85713572D01*
X92379070Y-85558959D01*
X92236130Y-85424750D01*
X92063819Y-85315876D01*
X91969059Y-85273296D01*
X91899223Y-85249467D01*
X91827461Y-85234738D01*
X91740134Y-85227230D01*
X91623602Y-85225065D01*
X91618821Y-85225063D01*
X91501018Y-85227075D01*
X91412898Y-85234364D01*
X91340822Y-85248808D01*
X91271149Y-85272286D01*
X91268583Y-85273296D01*
X91080709Y-85369565D01*
X90918845Y-85497449D01*
X90786474Y-85652260D01*
X90687083Y-85829307D01*
X90624157Y-86023901D01*
X90603680Y-86167925D01*
X90344300Y-86167925D01*
X90346134Y-86091665D01*
X90391038Y-85869266D01*
X90476043Y-85652655D01*
X90521460Y-85568614D01*
X90592204Y-85469068D01*
X90689026Y-85361153D01*
X90799531Y-85256699D01*
X90911326Y-85167535D01*
X91000641Y-85111264D01*
X91133371Y-85046471D01*
X91249823Y-85002970D01*
X91365653Y-84976987D01*
X91496521Y-84964752D01*
X91618821Y-84962323D01*
X91772229Y-84966471D01*
G36*
X86297126Y-85852091D02*
X86402623Y-85883323D01*
X86493301Y-85945456D01*
X86563197Y-86021047D01*
X86614801Y-86116233D01*
X86641413Y-86236342D01*
X86640885Y-86369331D01*
X86633787Y-86417254D01*
X86599686Y-86502524D01*
X86534900Y-86588163D01*
X86450195Y-86661491D01*
X86401598Y-86690676D01*
X86315333Y-86719073D01*
X86209323Y-86732098D01*
X86101229Y-86729410D01*
X86008709Y-86710668D01*
X85980412Y-86698805D01*
X85892004Y-86639104D01*
X85814478Y-86561912D01*
X85760732Y-86480883D01*
X85750283Y-86455237D01*
X85738321Y-86392477D01*
X85733065Y-86308093D01*
X85734442Y-86244432D01*
X85745396Y-86151960D01*
X85767980Y-86084272D01*
X85801970Y-86030816D01*
X85879412Y-85942902D01*
X85958460Y-85887481D01*
X86052851Y-85857584D01*
X86165100Y-85846629D01*
X86297126Y-85852091D01*
X86297126Y-85852091D01*
G37*
X86297126Y-85852091D02*
X86402623Y-85883323D01*
X86493301Y-85945456D01*
X86563197Y-86021047D01*
X86614801Y-86116233D01*
X86641413Y-86236342D01*
X86640885Y-86369331D01*
X86633787Y-86417254D01*
X86599686Y-86502524D01*
X86534900Y-86588163D01*
X86450195Y-86661491D01*
X86401598Y-86690676D01*
X86315333Y-86719073D01*
X86209323Y-86732098D01*
X86101229Y-86729410D01*
X86008709Y-86710668D01*
X85980412Y-86698805D01*
X85892004Y-86639104D01*
X85814478Y-86561912D01*
X85760732Y-86480883D01*
X85750283Y-86455237D01*
X85738321Y-86392477D01*
X85733065Y-86308093D01*
X85734442Y-86244432D01*
X85745396Y-86151960D01*
X85767980Y-86084272D01*
X85801970Y-86030816D01*
X85879412Y-85942902D01*
X85958460Y-85887481D01*
X86052851Y-85857584D01*
X86165100Y-85846629D01*
X86297126Y-85852091D01*
G36*
X85414318Y-64497021D02*
X85426627Y-64499030D01*
X85450667Y-64533946D01*
X85482831Y-64589509D01*
X85517727Y-64655063D01*
X85549963Y-64719951D01*
X85574146Y-64773517D01*
X85584884Y-64805102D01*
X85583648Y-64809328D01*
X85559679Y-64810891D01*
X85495499Y-64815428D01*
X85394237Y-64822711D01*
X85259020Y-64832512D01*
X85092976Y-64844601D01*
X84899232Y-64858751D01*
X84680917Y-64874733D01*
X84441157Y-64892319D01*
X84183081Y-64911280D01*
X83909815Y-64931388D01*
X83651783Y-64950402D01*
X83308893Y-64975368D01*
X82935496Y-65001981D01*
X82540061Y-65029670D01*
X82131055Y-65057863D01*
X81716948Y-65085988D01*
X81306207Y-65113472D01*
X80907302Y-65139743D01*
X80528700Y-65164230D01*
X80178871Y-65186360D01*
X79949928Y-65200490D01*
X79624113Y-65220440D01*
X79339005Y-65238125D01*
X79091927Y-65253757D01*
X78880199Y-65267548D01*
X78701143Y-65279711D01*
X78552082Y-65290458D01*
X78430337Y-65300000D01*
X78333230Y-65308550D01*
X78258083Y-65316319D01*
X78202217Y-65323520D01*
X78162955Y-65330365D01*
X78137618Y-65337066D01*
X78123528Y-65343836D01*
X78121790Y-65345247D01*
X78087174Y-65401888D01*
X78090322Y-65465017D01*
X78122659Y-65512690D01*
X78137581Y-65523453D01*
X78158848Y-65531475D01*
X78191554Y-65536859D01*
X78240791Y-65539711D01*
X78311654Y-65540137D01*
X78409237Y-65538242D01*
X78538633Y-65534132D01*
X78704935Y-65527910D01*
X78758203Y-65525828D01*
X78849775Y-65522738D01*
X78981817Y-65519035D01*
X79151344Y-65514780D01*
X79355376Y-65510032D01*
X79590930Y-65504850D01*
X79855023Y-65499294D01*
X80144674Y-65493423D01*
X80456900Y-65487297D01*
X80788719Y-65480976D01*
X81137149Y-65474518D01*
X81499208Y-65467983D01*
X81871913Y-65461431D01*
X82252282Y-65454922D01*
X82622075Y-65448764D01*
X82995484Y-65442565D01*
X83356989Y-65436431D01*
X83704209Y-65430408D01*
X84034763Y-65424544D01*
X84346268Y-65418885D01*
X84636343Y-65413477D01*
X84902608Y-65408367D01*
X85142679Y-65403602D01*
X85354177Y-65399228D01*
X85534719Y-65395293D01*
X85681924Y-65391842D01*
X85793410Y-65388923D01*
X85866797Y-65386581D01*
X85899701Y-65384864D01*
X85901320Y-65384542D01*
X85915501Y-65397817D01*
X85945700Y-65441933D01*
X85987161Y-65509559D01*
X86024932Y-65575107D01*
X86069874Y-65657632D01*
X86103699Y-65724790D01*
X86122572Y-65768619D01*
X86124387Y-65781513D01*
X86100485Y-65784021D01*
X86036051Y-65789318D01*
X85933905Y-65797205D01*
X85796867Y-65807484D01*
X85627759Y-65819957D01*
X85429400Y-65834426D01*
X85204612Y-65850694D01*
X84956215Y-65868561D01*
X84687029Y-65887831D01*
X84399876Y-65908304D01*
X84097576Y-65929783D01*
X83782949Y-65952070D01*
X83458816Y-65974966D01*
X83127998Y-65998274D01*
X82793316Y-66021796D01*
X82457589Y-66045333D01*
X82123639Y-66068688D01*
X81794285Y-66091662D01*
X81472350Y-66114057D01*
X81160653Y-66135676D01*
X80862015Y-66156320D01*
X80579256Y-66175790D01*
X80315198Y-66193891D01*
X80072660Y-66210422D01*
X79854464Y-66225186D01*
X79663429Y-66237985D01*
X79502378Y-66248621D01*
X79374129Y-66256895D01*
X79281505Y-66262610D01*
X79238824Y-66265011D01*
X79084270Y-66273246D01*
X78966742Y-66280515D01*
X78879848Y-66287711D01*
X78817197Y-66295727D01*
X78772397Y-66305459D01*
X78739059Y-66317798D01*
X78710790Y-66333638D01*
X78700826Y-66340232D01*
X78625033Y-66391667D01*
X78692119Y-66458752D01*
X78749645Y-66505342D01*
X78810041Y-66523837D01*
X78849876Y-66525690D01*
X78899475Y-66525002D01*
X78988055Y-66523086D01*
X79112920Y-66520024D01*
X79271375Y-66515897D01*
X79460723Y-66510786D01*
X79678269Y-66504773D01*
X79921317Y-66497938D01*
X80187171Y-66490364D01*
X80473135Y-66482130D01*
X80776513Y-66473319D01*
X81094609Y-66464012D01*
X81424727Y-66454290D01*
X81764173Y-66444234D01*
X82110248Y-66433925D01*
X82460259Y-66423445D01*
X82811508Y-66412875D01*
X83161300Y-66402296D01*
X83506939Y-66391789D01*
X83845729Y-66381436D01*
X84174974Y-66371318D01*
X84491979Y-66361516D01*
X84794047Y-66352112D01*
X85078482Y-66343186D01*
X85342590Y-66334820D01*
X85583673Y-66327095D01*
X85799035Y-66320092D01*
X85985982Y-66313893D01*
X86141817Y-66308579D01*
X86263844Y-66304231D01*
X86349367Y-66300930D01*
X86395691Y-66298758D01*
X86403525Y-66298054D01*
X86420105Y-66310917D01*
X86450313Y-66352208D01*
X86488131Y-66411594D01*
X86527538Y-66478744D01*
X86562516Y-66543325D01*
X86587043Y-66595005D01*
X86595100Y-66623452D01*
X86594244Y-66625407D01*
X86571993Y-66627862D01*
X86508630Y-66633217D01*
X86406394Y-66641307D01*
X86267522Y-66651968D01*
X86094249Y-66665037D01*
X85888815Y-66680349D01*
X85653454Y-66697740D01*
X85390406Y-66717045D01*
X85101906Y-66738102D01*
X84790191Y-66760745D01*
X84457500Y-66784810D01*
X84106068Y-66810134D01*
X83738133Y-66836552D01*
X83355932Y-66863900D01*
X82961702Y-66892014D01*
X82915753Y-66895285D01*
X79245968Y-67156456D01*
X79197788Y-67215954D01*
X79149607Y-67275452D01*
X79208936Y-67335685D01*
X79268266Y-67395918D01*
X83086746Y-67330024D01*
X83490992Y-67323021D01*
X83883636Y-67316167D01*
X84262465Y-67309502D01*
X84625267Y-67303068D01*
X84969828Y-67296905D01*
X85293937Y-67291054D01*
X85595380Y-67285557D01*
X85871945Y-67280453D01*
X86121419Y-67275785D01*
X86341589Y-67271592D01*
X86530243Y-67267917D01*
X86685167Y-67264799D01*
X86804150Y-67262280D01*
X86884977Y-67260401D01*
X86925438Y-67259203D01*
X86929806Y-67258927D01*
X86947309Y-67274556D01*
X86979677Y-67318362D01*
X87020934Y-67380597D01*
X87065103Y-67451511D01*
X87106205Y-67521354D01*
X87138266Y-67580378D01*
X87155307Y-67618832D01*
X87155976Y-67627846D01*
X87133970Y-67629754D01*
X87071400Y-67633736D01*
X86971104Y-67639644D01*
X86835918Y-67647327D01*
X86668679Y-67656639D01*
X86472221Y-67667429D01*
X86249383Y-67679548D01*
X86003000Y-67692849D01*
X85735908Y-67707183D01*
X85450943Y-67722400D01*
X85150943Y-67738352D01*
X84838743Y-67754890D01*
X84517180Y-67771866D01*
X84189090Y-67789130D01*
X83857309Y-67806533D01*
X83524674Y-67823928D01*
X83194021Y-67841165D01*
X82868186Y-67858095D01*
X82550005Y-67874571D01*
X82242315Y-67890442D01*
X81947953Y-67905560D01*
X81669754Y-67919776D01*
X81410554Y-67932942D01*
X81173191Y-67944909D01*
X80960500Y-67955528D01*
X80775318Y-67964650D01*
X80620481Y-67972127D01*
X80498826Y-67977809D01*
X80413188Y-67981549D01*
X80411343Y-67981624D01*
X80254218Y-67988318D01*
X80110772Y-67995045D01*
X79986904Y-68001479D01*
X79888511Y-68007294D01*
X79821491Y-68012165D01*
X79791743Y-68015765D01*
X79791385Y-68015888D01*
X79761798Y-68040584D01*
X79730002Y-68083428D01*
X79709233Y-68123578D01*
X79713536Y-68151140D01*
X79747160Y-68184442D01*
X79754953Y-68191029D01*
X79814692Y-68241296D01*
X80844259Y-68219988D01*
X81160315Y-68213481D01*
X81435706Y-68207909D01*
X81673211Y-68203258D01*
X81875612Y-68199510D01*
X82045688Y-68196648D01*
X82186219Y-68194658D01*
X82299986Y-68193521D01*
X82389769Y-68193223D01*
X82458347Y-68193746D01*
X82508502Y-68195074D01*
X82543013Y-68197190D01*
X82564660Y-68200079D01*
X82576224Y-68203724D01*
X82580485Y-68208108D01*
X82580763Y-68209755D01*
X82591049Y-68235439D01*
X82618929Y-68291902D01*
X82660729Y-68372030D01*
X82712772Y-68468707D01*
X82742973Y-68523721D01*
X82798240Y-68624685D01*
X82844637Y-68711272D01*
X82878691Y-68776849D01*
X82896927Y-68814785D01*
X82898953Y-68821468D01*
X82876853Y-68823716D01*
X82815379Y-68828146D01*
X82718543Y-68834510D01*
X82590358Y-68842564D01*
X82434839Y-68852059D01*
X82255998Y-68862749D01*
X82057849Y-68874387D01*
X81844405Y-68886727D01*
X81742660Y-68892545D01*
X81450181Y-68909171D01*
X81198038Y-68923507D01*
X80983187Y-68935848D01*
X80802585Y-68946493D01*
X80653189Y-68955737D01*
X80531955Y-68963879D01*
X80435840Y-68971215D01*
X80361801Y-68978043D01*
X80306795Y-68984659D01*
X80267778Y-68991360D01*
X80241706Y-68998445D01*
X80225538Y-69006209D01*
X80216229Y-69014949D01*
X80210736Y-69024964D01*
X80206016Y-69036550D01*
X80203089Y-69042840D01*
X80186941Y-69083554D01*
X80193455Y-69115384D01*
X80227127Y-69156350D01*
X80232918Y-69162435D01*
X80292080Y-69224267D01*
X80854809Y-69199587D01*
X80917560Y-69197336D01*
X81020705Y-69194271D01*
X81161191Y-69190458D01*
X81335964Y-69185963D01*
X81541972Y-69180854D01*
X81776161Y-69175196D01*
X82035478Y-69169056D01*
X82316870Y-69162500D01*
X82617283Y-69155595D01*
X82933665Y-69148408D01*
X83262963Y-69141003D01*
X83602122Y-69133449D01*
X83948091Y-69125811D01*
X84297816Y-69118156D01*
X84648243Y-69110551D01*
X84996320Y-69103061D01*
X85338993Y-69095753D01*
X85673210Y-69088693D01*
X85995916Y-69081949D01*
X86304060Y-69075586D01*
X86594587Y-69069670D01*
X86864445Y-69064269D01*
X87110580Y-69059449D01*
X87329940Y-69055275D01*
X87519470Y-69051816D01*
X87676119Y-69049136D01*
X87796832Y-69047302D01*
X87878557Y-69046381D01*
X87901591Y-69046282D01*
X87916535Y-69032275D01*
X87912296Y-69019122D01*
X87907284Y-69003660D01*
X87920643Y-69013690D01*
X87939298Y-69039423D01*
X87971457Y-69091338D01*
X88010997Y-69158657D01*
X88051791Y-69230599D01*
X88087714Y-69296384D01*
X88112642Y-69345232D01*
X88120617Y-69365629D01*
X88106743Y-69365806D01*
X88101159Y-69362740D01*
X88077500Y-69362893D01*
X88013081Y-69366224D01*
X87910465Y-69372549D01*
X87772218Y-69381684D01*
X87600903Y-69393445D01*
X87399087Y-69407648D01*
X87169333Y-69424108D01*
X86914207Y-69442642D01*
X86636272Y-69463066D01*
X86338094Y-69485195D01*
X86022238Y-69508845D01*
X85691268Y-69533832D01*
X85347748Y-69559973D01*
X85260226Y-69566665D01*
X84720273Y-69607713D01*
X84222604Y-69644963D01*
X83766219Y-69678481D01*
X83350118Y-69708336D01*
X82973303Y-69734597D01*
X82634773Y-69757330D01*
X82333529Y-69776605D01*
X82068572Y-69792489D01*
X81838901Y-69805050D01*
X81643517Y-69814357D01*
X81591362Y-69816528D01*
X80743971Y-69850440D01*
X80695011Y-69905943D01*
X80662563Y-69953998D01*
X80663275Y-69992834D01*
X80666665Y-69999963D01*
X80679314Y-70022942D01*
X80693037Y-70041733D01*
X80711887Y-70056579D01*
X80739918Y-70067724D01*
X80781182Y-70075410D01*
X80839731Y-70079881D01*
X80919619Y-70081381D01*
X81024898Y-70080152D01*
X81159621Y-70076438D01*
X81327841Y-70070482D01*
X81533610Y-70062527D01*
X81639452Y-70058364D01*
X81778112Y-70053566D01*
X81956764Y-70048456D01*
X82171944Y-70043098D01*
X82420190Y-70037551D01*
X82698040Y-70031877D01*
X83002029Y-70026138D01*
X83328696Y-70020395D01*
X83674578Y-70014709D01*
X84036212Y-70009143D01*
X84410134Y-70003757D01*
X84792883Y-69998612D01*
X85180994Y-69993772D01*
X85467643Y-69990443D01*
X85821774Y-69986389D01*
X86163966Y-69982327D01*
X86491700Y-69978295D01*
X86802458Y-69974328D01*
X87093721Y-69970465D01*
X87362969Y-69966742D01*
X87607684Y-69963196D01*
X87825348Y-69959863D01*
X88013441Y-69956782D01*
X88169444Y-69953989D01*
X88290840Y-69951521D01*
X88375109Y-69949414D01*
X88419732Y-69947707D01*
X88426416Y-69947000D01*
X88442790Y-69959981D01*
X88472669Y-70001452D01*
X88510094Y-70061050D01*
X88549108Y-70128412D01*
X88583751Y-70193175D01*
X88608064Y-70244976D01*
X88616090Y-70273451D01*
X88615246Y-70275407D01*
X88592154Y-70278828D01*
X88528553Y-70285166D01*
X88427274Y-70294209D01*
X88291151Y-70305745D01*
X88123016Y-70319560D01*
X87925702Y-70335443D01*
X87702043Y-70353182D01*
X87454870Y-70372564D01*
X87187018Y-70393376D01*
X86901319Y-70415407D01*
X86600605Y-70438444D01*
X86287710Y-70462274D01*
X85965466Y-70486686D01*
X85636707Y-70511467D01*
X85304265Y-70536404D01*
X84970973Y-70561286D01*
X84639665Y-70585899D01*
X84313172Y-70610033D01*
X83994328Y-70633473D01*
X83685966Y-70656009D01*
X83390919Y-70677427D01*
X83112019Y-70697515D01*
X82852099Y-70716062D01*
X82613993Y-70732854D01*
X82400532Y-70747679D01*
X82214551Y-70760325D01*
X82058882Y-70770579D01*
X81936358Y-70778230D01*
X81849811Y-70783065D01*
X81830369Y-70783974D01*
X81663039Y-70791302D01*
X81533659Y-70797497D01*
X81436764Y-70803285D01*
X81366886Y-70809389D01*
X81318561Y-70816534D01*
X81286322Y-70825446D01*
X81264703Y-70836848D01*
X81248237Y-70851465D01*
X81238211Y-70862471D01*
X81205736Y-70910204D01*
X81206505Y-70948943D01*
X81209864Y-70955994D01*
X81220794Y-70976270D01*
X81232440Y-70993318D01*
X81248301Y-71007270D01*
X81271877Y-71018257D01*
X81306668Y-71026413D01*
X81356172Y-71031870D01*
X81423891Y-71034758D01*
X81513324Y-71035211D01*
X81627970Y-71033361D01*
X81771328Y-71029339D01*
X81946900Y-71023278D01*
X82158184Y-71015310D01*
X82408680Y-71005567D01*
X82464929Y-71003372D01*
X82644649Y-70996896D01*
X82863367Y-70989913D01*
X83116627Y-70982530D01*
X83399976Y-70974849D01*
X83708960Y-70966975D01*
X84039124Y-70959012D01*
X84386013Y-70951065D01*
X84745175Y-70943238D01*
X85112153Y-70935635D01*
X85482495Y-70928360D01*
X85851745Y-70921518D01*
X86215450Y-70915213D01*
X86269192Y-70914321D01*
X86604252Y-70908755D01*
X86927362Y-70903312D01*
X87235848Y-70898042D01*
X87527038Y-70892994D01*
X87798257Y-70888215D01*
X88046834Y-70883756D01*
X88270095Y-70879664D01*
X88465366Y-70875989D01*
X88629976Y-70872780D01*
X88761250Y-70870086D01*
X88856516Y-70867955D01*
X88913100Y-70866436D01*
X88928676Y-70865705D01*
X88951224Y-70880519D01*
X88984880Y-70923903D01*
X89023396Y-70984730D01*
X89060524Y-71051873D01*
X89090014Y-71114203D01*
X89105618Y-71160594D01*
X89104276Y-71178415D01*
X89079134Y-71183806D01*
X89013537Y-71191942D01*
X88910384Y-71202606D01*
X88772574Y-71215581D01*
X88603007Y-71230652D01*
X88404582Y-71247603D01*
X88180200Y-71266218D01*
X87932758Y-71286280D01*
X87665158Y-71307573D01*
X87380298Y-71329882D01*
X87081077Y-71352990D01*
X86770396Y-71376681D01*
X86451154Y-71400739D01*
X86126250Y-71424948D01*
X85798584Y-71449092D01*
X85471055Y-71472955D01*
X85146562Y-71496320D01*
X84828006Y-71518972D01*
X84518286Y-71540694D01*
X84220300Y-71561271D01*
X83936950Y-71580486D01*
X83671133Y-71598123D01*
X83425750Y-71613966D01*
X83203700Y-71627799D01*
X83007882Y-71639406D01*
X82841197Y-71648571D01*
X82711466Y-71654863D01*
X82471822Y-71665581D01*
X82272052Y-71675038D01*
X82108600Y-71683501D01*
X81977913Y-71691236D01*
X81876434Y-71698509D01*
X81800609Y-71705588D01*
X81746882Y-71712737D01*
X81711698Y-71720224D01*
X81691503Y-71728315D01*
X81686986Y-71731634D01*
X81644752Y-71789736D01*
X81645561Y-71847348D01*
X81677928Y-71892322D01*
X81692367Y-71905140D01*
X81708515Y-71915163D01*
X81731170Y-71922536D01*
X81765129Y-71927406D01*
X81815190Y-71929917D01*
X81886151Y-71930217D01*
X81982810Y-71928450D01*
X82109964Y-71924763D01*
X82272411Y-71919300D01*
X82408819Y-71914529D01*
X82512193Y-71911384D01*
X82655868Y-71907756D01*
X82836695Y-71903698D01*
X83051522Y-71899265D01*
X83297198Y-71894512D01*
X83570573Y-71889494D01*
X83868496Y-71884265D01*
X84187816Y-71878879D01*
X84525382Y-71873391D01*
X84878044Y-71867855D01*
X85242650Y-71862327D01*
X85616050Y-71856860D01*
X85995093Y-71851509D01*
X86258192Y-71847914D01*
X86625925Y-71842927D01*
X86981854Y-71838035D01*
X87323549Y-71833275D01*
X87648578Y-71828683D01*
X87954512Y-71824297D01*
X88238917Y-71820152D01*
X88499364Y-71816285D01*
X88733422Y-71812733D01*
X88938659Y-71809531D01*
X89112644Y-71806717D01*
X89252947Y-71804327D01*
X89357137Y-71802397D01*
X89422782Y-71800965D01*
X89447451Y-71800065D01*
X89447507Y-71800053D01*
X89467200Y-71815322D01*
X89501412Y-71860546D01*
X89544121Y-71927386D01*
X89563891Y-71961211D01*
X89658560Y-72127551D01*
X89492540Y-72141078D01*
X89436424Y-72145226D01*
X89340021Y-72151844D01*
X89206341Y-72160744D01*
X89038394Y-72171740D01*
X88839190Y-72184642D01*
X88611741Y-72199262D01*
X88359056Y-72215413D01*
X88084146Y-72232906D01*
X87790022Y-72251553D01*
X87479693Y-72271167D01*
X87156171Y-72291558D01*
X86822466Y-72312540D01*
X86481588Y-72333923D01*
X86136548Y-72355521D01*
X85790357Y-72377144D01*
X85446024Y-72398605D01*
X85106560Y-72419715D01*
X84774975Y-72440287D01*
X84454281Y-72460133D01*
X84147488Y-72479064D01*
X83857605Y-72496892D01*
X83587644Y-72513430D01*
X83340614Y-72528488D01*
X83119527Y-72541880D01*
X82927393Y-72553417D01*
X82767222Y-72562911D01*
X82642025Y-72570173D01*
X82554812Y-72575017D01*
X82514800Y-72577007D01*
X82375167Y-72584077D01*
X82273315Y-72592002D01*
X82203572Y-72601506D01*
X82160264Y-72613310D01*
X82141207Y-72624560D01*
X82102981Y-72681795D01*
X82104220Y-72742039D01*
X82140011Y-72790534D01*
X82151165Y-72798349D01*
X82165942Y-72804973D01*
X82187515Y-72810438D01*
X82219060Y-72814775D01*
X82263750Y-72818017D01*
X82324761Y-72820197D01*
X82405266Y-72821345D01*
X82508440Y-72821494D01*
X82637459Y-72820677D01*
X82795495Y-72818924D01*
X82985725Y-72816269D01*
X83211321Y-72812743D01*
X83475460Y-72808379D01*
X83637001Y-72805655D01*
X83883988Y-72801733D01*
X84118170Y-72798519D01*
X84335931Y-72796029D01*
X84533655Y-72794280D01*
X84707725Y-72793290D01*
X84854527Y-72793077D01*
X84970444Y-72793657D01*
X85051860Y-72795048D01*
X85095160Y-72797267D01*
X85101327Y-72798615D01*
X85117453Y-72823075D01*
X85148984Y-72876294D01*
X85191595Y-72950494D01*
X85240961Y-73037900D01*
X85292758Y-73130735D01*
X85342659Y-73221223D01*
X85386340Y-73301587D01*
X85419476Y-73364052D01*
X85437742Y-73400842D01*
X85439883Y-73407313D01*
X85417979Y-73409341D01*
X85356379Y-73413621D01*
X85258770Y-73419930D01*
X85128841Y-73428041D01*
X84970282Y-73437731D01*
X84786779Y-73448773D01*
X84582023Y-73460944D01*
X84359700Y-73474017D01*
X84123501Y-73487768D01*
X84078250Y-73490387D01*
X83796238Y-73506715D01*
X83554447Y-73520906D01*
X83349716Y-73533361D01*
X83178884Y-73544486D01*
X83038791Y-73554683D01*
X82926275Y-73564357D01*
X82838176Y-73573912D01*
X82771333Y-73583751D01*
X82722585Y-73594277D01*
X82688772Y-73605895D01*
X82666733Y-73619009D01*
X82653306Y-73634021D01*
X82645332Y-73651337D01*
X82639650Y-73671359D01*
X82638899Y-73674241D01*
X82647021Y-73720949D01*
X82679040Y-73762455D01*
X82729784Y-73810126D01*
X84192138Y-73794750D01*
X85654493Y-73779375D01*
X85792566Y-74032397D01*
X85842899Y-74126368D01*
X85883688Y-74205867D01*
X85911332Y-74263615D01*
X85922231Y-74292334D01*
X85922003Y-74294055D01*
X85899372Y-74296403D01*
X85836967Y-74300276D01*
X85738436Y-74305507D01*
X85607430Y-74311927D01*
X85447597Y-74319367D01*
X85262586Y-74327658D01*
X85056045Y-74336632D01*
X84831625Y-74346119D01*
X84592973Y-74355953D01*
X84512843Y-74359199D01*
X84229157Y-74370733D01*
X83985707Y-74380874D01*
X83779304Y-74389832D01*
X83606757Y-74397814D01*
X83464877Y-74405030D01*
X83350472Y-74411690D01*
X83260355Y-74418002D01*
X83191333Y-74424175D01*
X83140218Y-74430419D01*
X83103819Y-74436943D01*
X83078947Y-74443956D01*
X83062411Y-74451667D01*
X83058000Y-74454572D01*
X83007688Y-74510764D01*
X82998612Y-74572910D01*
X83031025Y-74633424D01*
X83051368Y-74652141D01*
X83112320Y-74700680D01*
X83970575Y-74687146D01*
X84195519Y-74683516D01*
X84437804Y-74679461D01*
X84686686Y-74675170D01*
X84931419Y-74670832D01*
X85161261Y-74666638D01*
X85365467Y-74662776D01*
X85480669Y-74660508D01*
X86132508Y-74647405D01*
X86314153Y-74976903D01*
X86372857Y-75084637D01*
X86422718Y-75178546D01*
X86460505Y-75252341D01*
X86482983Y-75299730D01*
X86487696Y-75314504D01*
X86465162Y-75316068D01*
X86402740Y-75317923D01*
X86303997Y-75320016D01*
X86172501Y-75322297D01*
X86011818Y-75324712D01*
X85825516Y-75327210D01*
X85617161Y-75329739D01*
X85390320Y-75332248D01*
X85148560Y-75334684D01*
X85013236Y-75335950D01*
X84708063Y-75338912D01*
X84443953Y-75341899D01*
X84218516Y-75344977D01*
X84029360Y-75348208D01*
X83874094Y-75351658D01*
X83750324Y-75355390D01*
X83655661Y-75359469D01*
X83587712Y-75363960D01*
X83544085Y-75368927D01*
X83522389Y-75374434D01*
X83519874Y-75376125D01*
X83492244Y-75431455D01*
X83494640Y-75501696D01*
X83526212Y-75570406D01*
X83568607Y-75628492D01*
X85122157Y-75629540D01*
X86675707Y-75630587D01*
X86798652Y-75852934D01*
X86846352Y-75940262D01*
X86884602Y-76012326D01*
X86909432Y-76061502D01*
X86916940Y-76080119D01*
X86895025Y-76082146D01*
X86833382Y-76086356D01*
X86735674Y-76092533D01*
X86605561Y-76100459D01*
X86446706Y-76109915D01*
X86262770Y-76120686D01*
X86057415Y-76132553D01*
X85834304Y-76145299D01*
X85597097Y-76158706D01*
X85534989Y-76162193D01*
X85294756Y-76175744D01*
X85067667Y-76188705D01*
X84857387Y-76200857D01*
X84667581Y-76211983D01*
X84501912Y-76221861D01*
X84364045Y-76230274D01*
X84257645Y-76237003D01*
X84186377Y-76241828D01*
X84153904Y-76244530D01*
X84152273Y-76244852D01*
X84139609Y-76265834D01*
X84116064Y-76309631D01*
X84113630Y-76314308D01*
X84094201Y-76358439D01*
X84097604Y-76389743D01*
X84127662Y-76427575D01*
X84138197Y-76438659D01*
X84195985Y-76498977D01*
X87159315Y-76498977D01*
X87182925Y-76558729D01*
X87198327Y-76605437D01*
X87220293Y-76681785D01*
X87245271Y-76775149D01*
X87259294Y-76830328D01*
X87312053Y-77042176D01*
X87265480Y-77042810D01*
X87226801Y-77044603D01*
X87154689Y-77049046D01*
X87059039Y-77055491D01*
X86949748Y-77063294D01*
X86936443Y-77064272D01*
X86857223Y-77069378D01*
X86740245Y-77075895D01*
X86591177Y-77083554D01*
X86415683Y-77092086D01*
X86219429Y-77101221D01*
X86008083Y-77110690D01*
X85787310Y-77120223D01*
X85568755Y-77129308D01*
X85319370Y-77139619D01*
X85109892Y-77148678D01*
X84936800Y-77156737D01*
X84796571Y-77164043D01*
X84685681Y-77170847D01*
X84600609Y-77177398D01*
X84537832Y-77183946D01*
X84493828Y-77190741D01*
X84465074Y-77198032D01*
X84448047Y-77206068D01*
X84444332Y-77208989D01*
X84409886Y-77265394D01*
X84413516Y-77328432D01*
X84447604Y-77378068D01*
X84462946Y-77389689D01*
X84483418Y-77398307D01*
X84514328Y-77404047D01*
X84560986Y-77407032D01*
X84628700Y-77407388D01*
X84722779Y-77405239D01*
X84848533Y-77400711D01*
X85011271Y-77393927D01*
X85050555Y-77392231D01*
X85203466Y-77386662D01*
X85390732Y-77381546D01*
X85603252Y-77377034D01*
X85831928Y-77373276D01*
X86067659Y-77370423D01*
X86301345Y-77368624D01*
X86517259Y-77368028D01*
X87423482Y-77368096D01*
X87467858Y-77517102D01*
X87498328Y-77656471D01*
X87511969Y-77801032D01*
X87512234Y-77821294D01*
X87510819Y-77903011D01*
X87505123Y-77950228D01*
X87492967Y-77971848D01*
X87474210Y-77976786D01*
X87440444Y-77978104D01*
X87371485Y-77981551D01*
X87275522Y-77986693D01*
X87160743Y-77993094D01*
X87077675Y-77997854D01*
X86982954Y-78002729D01*
X86850824Y-78008631D01*
X86687314Y-78015333D01*
X86498451Y-78022611D01*
X86290265Y-78030236D01*
X86068784Y-78037984D01*
X85840037Y-78045626D01*
X85611617Y-78052890D01*
X85359707Y-78060830D01*
X85147745Y-78067889D01*
X84972240Y-78074279D01*
X84829697Y-78080211D01*
X84716624Y-78085896D01*
X84629528Y-78091544D01*
X84564915Y-78097367D01*
X84519292Y-78103576D01*
X84489167Y-78110380D01*
X84471045Y-78117993D01*
X84465466Y-78122101D01*
X84431490Y-78178156D01*
X84435265Y-78241055D01*
X84469185Y-78290509D01*
X84482645Y-78300656D01*
X84501075Y-78308581D01*
X84528958Y-78314363D01*
X84570775Y-78318080D01*
X84631011Y-78319812D01*
X84714147Y-78319637D01*
X84824668Y-78317636D01*
X84967055Y-78313886D01*
X85145791Y-78308467D01*
X85267688Y-78304597D01*
X85490476Y-78298273D01*
X85739782Y-78292576D01*
X86001859Y-78287729D01*
X86262962Y-78283956D01*
X86509345Y-78281482D01*
X86727263Y-78280531D01*
X86744597Y-78280527D01*
X87465325Y-78280671D01*
X87477203Y-78340423D01*
X87505834Y-78496943D01*
X87522254Y-78619382D01*
X87527219Y-78715134D01*
X87522631Y-78783810D01*
X87510821Y-78844564D01*
X87496784Y-78882584D01*
X87489453Y-78889054D01*
X87464322Y-78890071D01*
X87400523Y-78892975D01*
X87302793Y-78897539D01*
X87175869Y-78903541D01*
X87024487Y-78910756D01*
X86853385Y-78918959D01*
X86667299Y-78927926D01*
X86606077Y-78930885D01*
X86382414Y-78941230D01*
X86143065Y-78951459D01*
X85898361Y-78961186D01*
X85658636Y-78970026D01*
X85434221Y-78977594D01*
X85235450Y-78983505D01*
X85114338Y-78986512D01*
X84898392Y-78992110D01*
X84725142Y-78998482D01*
X84593834Y-79005673D01*
X84503714Y-79013727D01*
X84454029Y-79022690D01*
X84445960Y-79026106D01*
X84399741Y-79075081D01*
X84394190Y-79139128D01*
X84407950Y-79179885D01*
X84433837Y-79236701D01*
X87473785Y-79236701D01*
X87459108Y-79361637D01*
X87431034Y-79485926D01*
X87379506Y-79617009D01*
X87313550Y-79732812D01*
X87299388Y-79752241D01*
X87262363Y-79800630D01*
X85719676Y-79845582D01*
X85423804Y-79854223D01*
X85168301Y-79861785D01*
X84950102Y-79868448D01*
X84766138Y-79874391D01*
X84613342Y-79879794D01*
X84488648Y-79884835D01*
X84388986Y-79889693D01*
X84311291Y-79894548D01*
X84252494Y-79899578D01*
X84209529Y-79904963D01*
X84179328Y-79910883D01*
X84158823Y-79917515D01*
X84144947Y-79925040D01*
X84134633Y-79933635D01*
X84129819Y-79938425D01*
X84100914Y-79971549D01*
X84094277Y-80000698D01*
X84108334Y-80044094D01*
X84118635Y-80067796D01*
X84154622Y-80149276D01*
X85659604Y-80149276D01*
X85910991Y-80149433D01*
X86149227Y-80149887D01*
X86370814Y-80150611D01*
X86572259Y-80151581D01*
X86750067Y-80152769D01*
X86900740Y-80154150D01*
X87020786Y-80155698D01*
X87106708Y-80157387D01*
X87155010Y-80159191D01*
X87164587Y-80160450D01*
X87155360Y-80182825D01*
X87129982Y-80236811D01*
X87091911Y-80315240D01*
X87044600Y-80410942D01*
X87023199Y-80453778D01*
X86965431Y-80567029D01*
X86922014Y-80646316D01*
X86889217Y-80697188D01*
X86863308Y-80725196D01*
X86840555Y-80735890D01*
X86833080Y-80736565D01*
X86793534Y-80738360D01*
X86720646Y-80742804D01*
X86624403Y-80749252D01*
X86514794Y-80757057D01*
X86501883Y-80758005D01*
X86427707Y-80762777D01*
X86315057Y-80769083D01*
X86168877Y-80776687D01*
X85994113Y-80785352D01*
X85795709Y-80794838D01*
X85578612Y-80804910D01*
X85347765Y-80815330D01*
X85108116Y-80825859D01*
X84926605Y-80833643D01*
X83633791Y-80888475D01*
X83584599Y-80944136D01*
X83552801Y-80984395D01*
X83548609Y-81015038D01*
X83569859Y-81058106D01*
X83572905Y-81063275D01*
X83610402Y-81126754D01*
X85180179Y-81132326D01*
X86749957Y-81137899D01*
X86619444Y-81371475D01*
X86568766Y-81460750D01*
X86525515Y-81534278D01*
X86494085Y-81584775D01*
X86478868Y-81604961D01*
X86478529Y-81605050D01*
X86455598Y-81606175D01*
X86392931Y-81609422D01*
X86294186Y-81614596D01*
X86163022Y-81621504D01*
X86003096Y-81629954D01*
X85818068Y-81639752D01*
X85611594Y-81650704D01*
X85387334Y-81662617D01*
X85148946Y-81675297D01*
X85072687Y-81679357D01*
X84816205Y-81692890D01*
X84561501Y-81706094D01*
X84313772Y-81718714D01*
X84078216Y-81730496D01*
X83860030Y-81741184D01*
X83664410Y-81750526D01*
X83496556Y-81758265D01*
X83361662Y-81764147D01*
X83264928Y-81767918D01*
X83264416Y-81767935D01*
X83118790Y-81773350D01*
X83010216Y-81778633D01*
X82932301Y-81784584D01*
X82878649Y-81792006D01*
X82842868Y-81801700D01*
X82818563Y-81814468D01*
X82805124Y-81825503D01*
X82771515Y-81880399D01*
X82779581Y-81938019D01*
X82813667Y-81979023D01*
X82828001Y-81984350D01*
X82858897Y-81988903D01*
X82908895Y-81992710D01*
X82980533Y-81995802D01*
X83076349Y-81998211D01*
X83198882Y-81999965D01*
X83350671Y-82001096D01*
X83534253Y-82001633D01*
X83752169Y-82001608D01*
X84006955Y-82001051D01*
X84301152Y-81999991D01*
X84495237Y-81999138D01*
X84758583Y-81998095D01*
X85008933Y-81997449D01*
X85242946Y-81997185D01*
X85457283Y-81997292D01*
X85648604Y-81997757D01*
X85813568Y-81998568D01*
X85948836Y-81999713D01*
X86051068Y-82001178D01*
X86116923Y-82002952D01*
X86143063Y-82005022D01*
X86143372Y-82005289D01*
X86133019Y-82029861D01*
X86105430Y-82081611D01*
X86065806Y-82151759D01*
X86019350Y-82231522D01*
X85971264Y-82312120D01*
X85926751Y-82384772D01*
X85891013Y-82440696D01*
X85869252Y-82471111D01*
X85865586Y-82474169D01*
X85842586Y-82474951D01*
X85779149Y-82477225D01*
X85678263Y-82480880D01*
X85542917Y-82485807D01*
X85376100Y-82491898D01*
X85180799Y-82499043D01*
X84960005Y-82507131D01*
X84716706Y-82516055D01*
X84453891Y-82525705D01*
X84174547Y-82535970D01*
X83881665Y-82546743D01*
X83766648Y-82550976D01*
X83414720Y-82563997D01*
X83103707Y-82575671D01*
X82831093Y-82586131D01*
X82594363Y-82595510D01*
X82390999Y-82603940D01*
X82218487Y-82611554D01*
X82074310Y-82618484D01*
X81955953Y-82624863D01*
X81860900Y-82630824D01*
X81786634Y-82636499D01*
X81730640Y-82642021D01*
X81690402Y-82647522D01*
X81663404Y-82653135D01*
X81647130Y-82658992D01*
X81641122Y-82662983D01*
X81606825Y-82719104D01*
X81611104Y-82782029D01*
X81647956Y-82834745D01*
X81657682Y-82842298D01*
X81670986Y-82848905D01*
X81690756Y-82854650D01*
X81719878Y-82859619D01*
X81761238Y-82863897D01*
X81817724Y-82867569D01*
X81892222Y-82870721D01*
X81987619Y-82873436D01*
X82106802Y-82875801D01*
X82252657Y-82877901D01*
X82428071Y-82879820D01*
X82635932Y-82881645D01*
X82879124Y-82883459D01*
X83160536Y-82885349D01*
X83419759Y-82887001D01*
X85145832Y-82897865D01*
X84869028Y-83136872D01*
X84773321Y-83219308D01*
X84685939Y-83294195D01*
X84613551Y-83355848D01*
X84562823Y-83398582D01*
X84544149Y-83413897D01*
X84529868Y-83422078D01*
X84506507Y-83429690D01*
X84470840Y-83437001D01*
X84419642Y-83444276D01*
X84349687Y-83451780D01*
X84257750Y-83459780D01*
X84140605Y-83468541D01*
X83995027Y-83478330D01*
X83817789Y-83489413D01*
X83605667Y-83502055D01*
X83355434Y-83516522D01*
X83174086Y-83526845D01*
X82909049Y-83541518D01*
X82633666Y-83556123D01*
X82355128Y-83570317D01*
X82080623Y-83583760D01*
X81817343Y-83596111D01*
X81572476Y-83607028D01*
X81353212Y-83616169D01*
X81166742Y-83623194D01*
X81092170Y-83625678D01*
X80879511Y-83632543D01*
X80706263Y-83638885D01*
X80568396Y-83645375D01*
X80461879Y-83652683D01*
X80382685Y-83661480D01*
X80326784Y-83672436D01*
X80290146Y-83686222D01*
X80268742Y-83703507D01*
X80258542Y-83724964D01*
X80255517Y-83751262D01*
X80255424Y-83764919D01*
X80254963Y-83785300D01*
X80255153Y-83803014D01*
X80258832Y-83818237D01*
X80268837Y-83831142D01*
X80288005Y-83841903D01*
X80319174Y-83850695D01*
X80365181Y-83857690D01*
X80428863Y-83863063D01*
X80513058Y-83866988D01*
X80620603Y-83869639D01*
X80754336Y-83871190D01*
X80917093Y-83871814D01*
X81111712Y-83871686D01*
X81341031Y-83870980D01*
X81607886Y-83869869D01*
X81915115Y-83868527D01*
X81943568Y-83868407D01*
X83590335Y-83861449D01*
X83492559Y-83924226D01*
X83375712Y-83997826D01*
X83270022Y-84060334D01*
X83169128Y-84114197D01*
X83066669Y-84161866D01*
X82956282Y-84205788D01*
X82831608Y-84248413D01*
X82686284Y-84292191D01*
X82513949Y-84339570D01*
X82308242Y-84392999D01*
X82210609Y-84417770D01*
X82056881Y-84455505D01*
X81930497Y-84483248D01*
X81817111Y-84503268D01*
X81702373Y-84517831D01*
X81571937Y-84529204D01*
X81456402Y-84536928D01*
X81302716Y-84546146D01*
X81181562Y-84552323D01*
X81082119Y-84555438D01*
X80993567Y-84555473D01*
X80905088Y-84552407D01*
X80805861Y-84546221D01*
X80685066Y-84536896D01*
X80667923Y-84535510D01*
X80563470Y-84523324D01*
X80428163Y-84501936D01*
X80273137Y-84473348D01*
X80109524Y-84439562D01*
X80010378Y-84417282D01*
X79872065Y-84384670D01*
X79758074Y-84356016D01*
X79659142Y-84328098D01*
X79566002Y-84297694D01*
X79469389Y-84261583D01*
X79360040Y-84216541D01*
X79228689Y-84159348D01*
X79086939Y-84096136D01*
X78913486Y-84017385D01*
X78771162Y-83950005D01*
X78650810Y-83889065D01*
X78543277Y-83829634D01*
X78439407Y-83766782D01*
X78330047Y-83695577D01*
X78277846Y-83660341D01*
X77993523Y-83446979D01*
X77710764Y-83196440D01*
X77435114Y-82914820D01*
X77172118Y-82608215D01*
X76927320Y-82282722D01*
X76706266Y-81944438D01*
X76685145Y-81909242D01*
X76615895Y-81792093D01*
X76564774Y-81701694D01*
X76527474Y-81627580D01*
X76499685Y-81559287D01*
X76477101Y-81486349D01*
X76455411Y-81398301D01*
X76432885Y-81296525D01*
X76392946Y-81081928D01*
X76360144Y-80836455D01*
X76333669Y-80554033D01*
X76333340Y-80549786D01*
X76320314Y-80398501D01*
X76304950Y-80247181D01*
X76288514Y-80106630D01*
X76272269Y-79987650D01*
X76257481Y-79901043D01*
X76257237Y-79899855D01*
X76236085Y-79782403D01*
X76228359Y-79697257D01*
X76233374Y-79635625D01*
X76235836Y-79625380D01*
X76243386Y-79583034D01*
X76253661Y-79504548D01*
X76265869Y-79397098D01*
X76279220Y-79267856D01*
X76292919Y-79123999D01*
X76300325Y-79041150D01*
X76314982Y-78876364D01*
X76327720Y-78745991D01*
X76340110Y-78641127D01*
X76353727Y-78552871D01*
X76370144Y-78472318D01*
X76390933Y-78390567D01*
X76417670Y-78298714D01*
X76450082Y-78193759D01*
X76552527Y-77905391D01*
X76682621Y-77602456D01*
X76833992Y-77297423D01*
X77000269Y-77002765D01*
X77175082Y-76730953D01*
X77253279Y-76621512D01*
X77406754Y-76421194D01*
X77576955Y-76211177D01*
X77756971Y-75999264D01*
X77939890Y-75793256D01*
X78118802Y-75600957D01*
X78286796Y-75430169D01*
X78421326Y-75302765D01*
X78490378Y-75240718D01*
X78553361Y-75185875D01*
X78614418Y-75135559D01*
X78677691Y-75087092D01*
X78747323Y-75037796D01*
X78827458Y-74984995D01*
X78922238Y-74926011D01*
X79035806Y-74858167D01*
X79172306Y-74778784D01*
X79335881Y-74685186D01*
X79530673Y-74574695D01*
X79668436Y-74496817D01*
X79883286Y-74380672D01*
X80076594Y-74288692D01*
X80259779Y-74216723D01*
X80444262Y-74160613D01*
X80641462Y-74116208D01*
X80782876Y-74091493D01*
X80883325Y-74074605D01*
X80967457Y-74058746D01*
X81026305Y-74045723D01*
X81050767Y-74037490D01*
X81041814Y-74017418D01*
X81013081Y-73960757D01*
X80965447Y-73869149D01*
X80899789Y-73744236D01*
X80816987Y-73587661D01*
X80717919Y-73401066D01*
X80603463Y-73186094D01*
X80474499Y-72944386D01*
X80331903Y-72677586D01*
X80176555Y-72387334D01*
X80009334Y-72075274D01*
X79831118Y-71743049D01*
X79642785Y-71392299D01*
X79445214Y-71024668D01*
X79239284Y-70641797D01*
X79025872Y-70245330D01*
X78805858Y-69836908D01*
X78580120Y-69418174D01*
X78541204Y-69346019D01*
X76018095Y-64668096D01*
X78652632Y-64652080D01*
X79233204Y-64648168D01*
X79774571Y-64643682D01*
X80280982Y-64638531D01*
X80756686Y-64632622D01*
X81205931Y-64625863D01*
X81632966Y-64618160D01*
X82042039Y-64609421D01*
X82437399Y-64599553D01*
X82823295Y-64588464D01*
X83203975Y-64576061D01*
X83583688Y-64562252D01*
X83966682Y-64546943D01*
X84357207Y-64530043D01*
X84457694Y-64525504D01*
X84657154Y-64516813D01*
X84843133Y-64509458D01*
X85011161Y-64503563D01*
X85156764Y-64499250D01*
X85275473Y-64496641D01*
X85362815Y-64495857D01*
X85414318Y-64497021D01*
X85414318Y-64497021D01*
G37*
X85414318Y-64497021D02*
X85426627Y-64499030D01*
X85450667Y-64533946D01*
X85482831Y-64589509D01*
X85517727Y-64655063D01*
X85549963Y-64719951D01*
X85574146Y-64773517D01*
X85584884Y-64805102D01*
X85583648Y-64809328D01*
X85559679Y-64810891D01*
X85495499Y-64815428D01*
X85394237Y-64822711D01*
X85259020Y-64832512D01*
X85092976Y-64844601D01*
X84899232Y-64858751D01*
X84680917Y-64874733D01*
X84441157Y-64892319D01*
X84183081Y-64911280D01*
X83909815Y-64931388D01*
X83651783Y-64950402D01*
X83308893Y-64975368D01*
X82935496Y-65001981D01*
X82540061Y-65029670D01*
X82131055Y-65057863D01*
X81716948Y-65085988D01*
X81306207Y-65113472D01*
X80907302Y-65139743D01*
X80528700Y-65164230D01*
X80178871Y-65186360D01*
X79949928Y-65200490D01*
X79624113Y-65220440D01*
X79339005Y-65238125D01*
X79091927Y-65253757D01*
X78880199Y-65267548D01*
X78701143Y-65279711D01*
X78552082Y-65290458D01*
X78430337Y-65300000D01*
X78333230Y-65308550D01*
X78258083Y-65316319D01*
X78202217Y-65323520D01*
X78162955Y-65330365D01*
X78137618Y-65337066D01*
X78123528Y-65343836D01*
X78121790Y-65345247D01*
X78087174Y-65401888D01*
X78090322Y-65465017D01*
X78122659Y-65512690D01*
X78137581Y-65523453D01*
X78158848Y-65531475D01*
X78191554Y-65536859D01*
X78240791Y-65539711D01*
X78311654Y-65540137D01*
X78409237Y-65538242D01*
X78538633Y-65534132D01*
X78704935Y-65527910D01*
X78758203Y-65525828D01*
X78849775Y-65522738D01*
X78981817Y-65519035D01*
X79151344Y-65514780D01*
X79355376Y-65510032D01*
X79590930Y-65504850D01*
X79855023Y-65499294D01*
X80144674Y-65493423D01*
X80456900Y-65487297D01*
X80788719Y-65480976D01*
X81137149Y-65474518D01*
X81499208Y-65467983D01*
X81871913Y-65461431D01*
X82252282Y-65454922D01*
X82622075Y-65448764D01*
X82995484Y-65442565D01*
X83356989Y-65436431D01*
X83704209Y-65430408D01*
X84034763Y-65424544D01*
X84346268Y-65418885D01*
X84636343Y-65413477D01*
X84902608Y-65408367D01*
X85142679Y-65403602D01*
X85354177Y-65399228D01*
X85534719Y-65395293D01*
X85681924Y-65391842D01*
X85793410Y-65388923D01*
X85866797Y-65386581D01*
X85899701Y-65384864D01*
X85901320Y-65384542D01*
X85915501Y-65397817D01*
X85945700Y-65441933D01*
X85987161Y-65509559D01*
X86024932Y-65575107D01*
X86069874Y-65657632D01*
X86103699Y-65724790D01*
X86122572Y-65768619D01*
X86124387Y-65781513D01*
X86100485Y-65784021D01*
X86036051Y-65789318D01*
X85933905Y-65797205D01*
X85796867Y-65807484D01*
X85627759Y-65819957D01*
X85429400Y-65834426D01*
X85204612Y-65850694D01*
X84956215Y-65868561D01*
X84687029Y-65887831D01*
X84399876Y-65908304D01*
X84097576Y-65929783D01*
X83782949Y-65952070D01*
X83458816Y-65974966D01*
X83127998Y-65998274D01*
X82793316Y-66021796D01*
X82457589Y-66045333D01*
X82123639Y-66068688D01*
X81794285Y-66091662D01*
X81472350Y-66114057D01*
X81160653Y-66135676D01*
X80862015Y-66156320D01*
X80579256Y-66175790D01*
X80315198Y-66193891D01*
X80072660Y-66210422D01*
X79854464Y-66225186D01*
X79663429Y-66237985D01*
X79502378Y-66248621D01*
X79374129Y-66256895D01*
X79281505Y-66262610D01*
X79238824Y-66265011D01*
X79084270Y-66273246D01*
X78966742Y-66280515D01*
X78879848Y-66287711D01*
X78817197Y-66295727D01*
X78772397Y-66305459D01*
X78739059Y-66317798D01*
X78710790Y-66333638D01*
X78700826Y-66340232D01*
X78625033Y-66391667D01*
X78692119Y-66458752D01*
X78749645Y-66505342D01*
X78810041Y-66523837D01*
X78849876Y-66525690D01*
X78899475Y-66525002D01*
X78988055Y-66523086D01*
X79112920Y-66520024D01*
X79271375Y-66515897D01*
X79460723Y-66510786D01*
X79678269Y-66504773D01*
X79921317Y-66497938D01*
X80187171Y-66490364D01*
X80473135Y-66482130D01*
X80776513Y-66473319D01*
X81094609Y-66464012D01*
X81424727Y-66454290D01*
X81764173Y-66444234D01*
X82110248Y-66433925D01*
X82460259Y-66423445D01*
X82811508Y-66412875D01*
X83161300Y-66402296D01*
X83506939Y-66391789D01*
X83845729Y-66381436D01*
X84174974Y-66371318D01*
X84491979Y-66361516D01*
X84794047Y-66352112D01*
X85078482Y-66343186D01*
X85342590Y-66334820D01*
X85583673Y-66327095D01*
X85799035Y-66320092D01*
X85985982Y-66313893D01*
X86141817Y-66308579D01*
X86263844Y-66304231D01*
X86349367Y-66300930D01*
X86395691Y-66298758D01*
X86403525Y-66298054D01*
X86420105Y-66310917D01*
X86450313Y-66352208D01*
X86488131Y-66411594D01*
X86527538Y-66478744D01*
X86562516Y-66543325D01*
X86587043Y-66595005D01*
X86595100Y-66623452D01*
X86594244Y-66625407D01*
X86571993Y-66627862D01*
X86508630Y-66633217D01*
X86406394Y-66641307D01*
X86267522Y-66651968D01*
X86094249Y-66665037D01*
X85888815Y-66680349D01*
X85653454Y-66697740D01*
X85390406Y-66717045D01*
X85101906Y-66738102D01*
X84790191Y-66760745D01*
X84457500Y-66784810D01*
X84106068Y-66810134D01*
X83738133Y-66836552D01*
X83355932Y-66863900D01*
X82961702Y-66892014D01*
X82915753Y-66895285D01*
X79245968Y-67156456D01*
X79197788Y-67215954D01*
X79149607Y-67275452D01*
X79208936Y-67335685D01*
X79268266Y-67395918D01*
X83086746Y-67330024D01*
X83490992Y-67323021D01*
X83883636Y-67316167D01*
X84262465Y-67309502D01*
X84625267Y-67303068D01*
X84969828Y-67296905D01*
X85293937Y-67291054D01*
X85595380Y-67285557D01*
X85871945Y-67280453D01*
X86121419Y-67275785D01*
X86341589Y-67271592D01*
X86530243Y-67267917D01*
X86685167Y-67264799D01*
X86804150Y-67262280D01*
X86884977Y-67260401D01*
X86925438Y-67259203D01*
X86929806Y-67258927D01*
X86947309Y-67274556D01*
X86979677Y-67318362D01*
X87020934Y-67380597D01*
X87065103Y-67451511D01*
X87106205Y-67521354D01*
X87138266Y-67580378D01*
X87155307Y-67618832D01*
X87155976Y-67627846D01*
X87133970Y-67629754D01*
X87071400Y-67633736D01*
X86971104Y-67639644D01*
X86835918Y-67647327D01*
X86668679Y-67656639D01*
X86472221Y-67667429D01*
X86249383Y-67679548D01*
X86003000Y-67692849D01*
X85735908Y-67707183D01*
X85450943Y-67722400D01*
X85150943Y-67738352D01*
X84838743Y-67754890D01*
X84517180Y-67771866D01*
X84189090Y-67789130D01*
X83857309Y-67806533D01*
X83524674Y-67823928D01*
X83194021Y-67841165D01*
X82868186Y-67858095D01*
X82550005Y-67874571D01*
X82242315Y-67890442D01*
X81947953Y-67905560D01*
X81669754Y-67919776D01*
X81410554Y-67932942D01*
X81173191Y-67944909D01*
X80960500Y-67955528D01*
X80775318Y-67964650D01*
X80620481Y-67972127D01*
X80498826Y-67977809D01*
X80413188Y-67981549D01*
X80411343Y-67981624D01*
X80254218Y-67988318D01*
X80110772Y-67995045D01*
X79986904Y-68001479D01*
X79888511Y-68007294D01*
X79821491Y-68012165D01*
X79791743Y-68015765D01*
X79791385Y-68015888D01*
X79761798Y-68040584D01*
X79730002Y-68083428D01*
X79709233Y-68123578D01*
X79713536Y-68151140D01*
X79747160Y-68184442D01*
X79754953Y-68191029D01*
X79814692Y-68241296D01*
X80844259Y-68219988D01*
X81160315Y-68213481D01*
X81435706Y-68207909D01*
X81673211Y-68203258D01*
X81875612Y-68199510D01*
X82045688Y-68196648D01*
X82186219Y-68194658D01*
X82299986Y-68193521D01*
X82389769Y-68193223D01*
X82458347Y-68193746D01*
X82508502Y-68195074D01*
X82543013Y-68197190D01*
X82564660Y-68200079D01*
X82576224Y-68203724D01*
X82580485Y-68208108D01*
X82580763Y-68209755D01*
X82591049Y-68235439D01*
X82618929Y-68291902D01*
X82660729Y-68372030D01*
X82712772Y-68468707D01*
X82742973Y-68523721D01*
X82798240Y-68624685D01*
X82844637Y-68711272D01*
X82878691Y-68776849D01*
X82896927Y-68814785D01*
X82898953Y-68821468D01*
X82876853Y-68823716D01*
X82815379Y-68828146D01*
X82718543Y-68834510D01*
X82590358Y-68842564D01*
X82434839Y-68852059D01*
X82255998Y-68862749D01*
X82057849Y-68874387D01*
X81844405Y-68886727D01*
X81742660Y-68892545D01*
X81450181Y-68909171D01*
X81198038Y-68923507D01*
X80983187Y-68935848D01*
X80802585Y-68946493D01*
X80653189Y-68955737D01*
X80531955Y-68963879D01*
X80435840Y-68971215D01*
X80361801Y-68978043D01*
X80306795Y-68984659D01*
X80267778Y-68991360D01*
X80241706Y-68998445D01*
X80225538Y-69006209D01*
X80216229Y-69014949D01*
X80210736Y-69024964D01*
X80206016Y-69036550D01*
X80203089Y-69042840D01*
X80186941Y-69083554D01*
X80193455Y-69115384D01*
X80227127Y-69156350D01*
X80232918Y-69162435D01*
X80292080Y-69224267D01*
X80854809Y-69199587D01*
X80917560Y-69197336D01*
X81020705Y-69194271D01*
X81161191Y-69190458D01*
X81335964Y-69185963D01*
X81541972Y-69180854D01*
X81776161Y-69175196D01*
X82035478Y-69169056D01*
X82316870Y-69162500D01*
X82617283Y-69155595D01*
X82933665Y-69148408D01*
X83262963Y-69141003D01*
X83602122Y-69133449D01*
X83948091Y-69125811D01*
X84297816Y-69118156D01*
X84648243Y-69110551D01*
X84996320Y-69103061D01*
X85338993Y-69095753D01*
X85673210Y-69088693D01*
X85995916Y-69081949D01*
X86304060Y-69075586D01*
X86594587Y-69069670D01*
X86864445Y-69064269D01*
X87110580Y-69059449D01*
X87329940Y-69055275D01*
X87519470Y-69051816D01*
X87676119Y-69049136D01*
X87796832Y-69047302D01*
X87878557Y-69046381D01*
X87901591Y-69046282D01*
X87916535Y-69032275D01*
X87912296Y-69019122D01*
X87907284Y-69003660D01*
X87920643Y-69013690D01*
X87939298Y-69039423D01*
X87971457Y-69091338D01*
X88010997Y-69158657D01*
X88051791Y-69230599D01*
X88087714Y-69296384D01*
X88112642Y-69345232D01*
X88120617Y-69365629D01*
X88106743Y-69365806D01*
X88101159Y-69362740D01*
X88077500Y-69362893D01*
X88013081Y-69366224D01*
X87910465Y-69372549D01*
X87772218Y-69381684D01*
X87600903Y-69393445D01*
X87399087Y-69407648D01*
X87169333Y-69424108D01*
X86914207Y-69442642D01*
X86636272Y-69463066D01*
X86338094Y-69485195D01*
X86022238Y-69508845D01*
X85691268Y-69533832D01*
X85347748Y-69559973D01*
X85260226Y-69566665D01*
X84720273Y-69607713D01*
X84222604Y-69644963D01*
X83766219Y-69678481D01*
X83350118Y-69708336D01*
X82973303Y-69734597D01*
X82634773Y-69757330D01*
X82333529Y-69776605D01*
X82068572Y-69792489D01*
X81838901Y-69805050D01*
X81643517Y-69814357D01*
X81591362Y-69816528D01*
X80743971Y-69850440D01*
X80695011Y-69905943D01*
X80662563Y-69953998D01*
X80663275Y-69992834D01*
X80666665Y-69999963D01*
X80679314Y-70022942D01*
X80693037Y-70041733D01*
X80711887Y-70056579D01*
X80739918Y-70067724D01*
X80781182Y-70075410D01*
X80839731Y-70079881D01*
X80919619Y-70081381D01*
X81024898Y-70080152D01*
X81159621Y-70076438D01*
X81327841Y-70070482D01*
X81533610Y-70062527D01*
X81639452Y-70058364D01*
X81778112Y-70053566D01*
X81956764Y-70048456D01*
X82171944Y-70043098D01*
X82420190Y-70037551D01*
X82698040Y-70031877D01*
X83002029Y-70026138D01*
X83328696Y-70020395D01*
X83674578Y-70014709D01*
X84036212Y-70009143D01*
X84410134Y-70003757D01*
X84792883Y-69998612D01*
X85180994Y-69993772D01*
X85467643Y-69990443D01*
X85821774Y-69986389D01*
X86163966Y-69982327D01*
X86491700Y-69978295D01*
X86802458Y-69974328D01*
X87093721Y-69970465D01*
X87362969Y-69966742D01*
X87607684Y-69963196D01*
X87825348Y-69959863D01*
X88013441Y-69956782D01*
X88169444Y-69953989D01*
X88290840Y-69951521D01*
X88375109Y-69949414D01*
X88419732Y-69947707D01*
X88426416Y-69947000D01*
X88442790Y-69959981D01*
X88472669Y-70001452D01*
X88510094Y-70061050D01*
X88549108Y-70128412D01*
X88583751Y-70193175D01*
X88608064Y-70244976D01*
X88616090Y-70273451D01*
X88615246Y-70275407D01*
X88592154Y-70278828D01*
X88528553Y-70285166D01*
X88427274Y-70294209D01*
X88291151Y-70305745D01*
X88123016Y-70319560D01*
X87925702Y-70335443D01*
X87702043Y-70353182D01*
X87454870Y-70372564D01*
X87187018Y-70393376D01*
X86901319Y-70415407D01*
X86600605Y-70438444D01*
X86287710Y-70462274D01*
X85965466Y-70486686D01*
X85636707Y-70511467D01*
X85304265Y-70536404D01*
X84970973Y-70561286D01*
X84639665Y-70585899D01*
X84313172Y-70610033D01*
X83994328Y-70633473D01*
X83685966Y-70656009D01*
X83390919Y-70677427D01*
X83112019Y-70697515D01*
X82852099Y-70716062D01*
X82613993Y-70732854D01*
X82400532Y-70747679D01*
X82214551Y-70760325D01*
X82058882Y-70770579D01*
X81936358Y-70778230D01*
X81849811Y-70783065D01*
X81830369Y-70783974D01*
X81663039Y-70791302D01*
X81533659Y-70797497D01*
X81436764Y-70803285D01*
X81366886Y-70809389D01*
X81318561Y-70816534D01*
X81286322Y-70825446D01*
X81264703Y-70836848D01*
X81248237Y-70851465D01*
X81238211Y-70862471D01*
X81205736Y-70910204D01*
X81206505Y-70948943D01*
X81209864Y-70955994D01*
X81220794Y-70976270D01*
X81232440Y-70993318D01*
X81248301Y-71007270D01*
X81271877Y-71018257D01*
X81306668Y-71026413D01*
X81356172Y-71031870D01*
X81423891Y-71034758D01*
X81513324Y-71035211D01*
X81627970Y-71033361D01*
X81771328Y-71029339D01*
X81946900Y-71023278D01*
X82158184Y-71015310D01*
X82408680Y-71005567D01*
X82464929Y-71003372D01*
X82644649Y-70996896D01*
X82863367Y-70989913D01*
X83116627Y-70982530D01*
X83399976Y-70974849D01*
X83708960Y-70966975D01*
X84039124Y-70959012D01*
X84386013Y-70951065D01*
X84745175Y-70943238D01*
X85112153Y-70935635D01*
X85482495Y-70928360D01*
X85851745Y-70921518D01*
X86215450Y-70915213D01*
X86269192Y-70914321D01*
X86604252Y-70908755D01*
X86927362Y-70903312D01*
X87235848Y-70898042D01*
X87527038Y-70892994D01*
X87798257Y-70888215D01*
X88046834Y-70883756D01*
X88270095Y-70879664D01*
X88465366Y-70875989D01*
X88629976Y-70872780D01*
X88761250Y-70870086D01*
X88856516Y-70867955D01*
X88913100Y-70866436D01*
X88928676Y-70865705D01*
X88951224Y-70880519D01*
X88984880Y-70923903D01*
X89023396Y-70984730D01*
X89060524Y-71051873D01*
X89090014Y-71114203D01*
X89105618Y-71160594D01*
X89104276Y-71178415D01*
X89079134Y-71183806D01*
X89013537Y-71191942D01*
X88910384Y-71202606D01*
X88772574Y-71215581D01*
X88603007Y-71230652D01*
X88404582Y-71247603D01*
X88180200Y-71266218D01*
X87932758Y-71286280D01*
X87665158Y-71307573D01*
X87380298Y-71329882D01*
X87081077Y-71352990D01*
X86770396Y-71376681D01*
X86451154Y-71400739D01*
X86126250Y-71424948D01*
X85798584Y-71449092D01*
X85471055Y-71472955D01*
X85146562Y-71496320D01*
X84828006Y-71518972D01*
X84518286Y-71540694D01*
X84220300Y-71561271D01*
X83936950Y-71580486D01*
X83671133Y-71598123D01*
X83425750Y-71613966D01*
X83203700Y-71627799D01*
X83007882Y-71639406D01*
X82841197Y-71648571D01*
X82711466Y-71654863D01*
X82471822Y-71665581D01*
X82272052Y-71675038D01*
X82108600Y-71683501D01*
X81977913Y-71691236D01*
X81876434Y-71698509D01*
X81800609Y-71705588D01*
X81746882Y-71712737D01*
X81711698Y-71720224D01*
X81691503Y-71728315D01*
X81686986Y-71731634D01*
X81644752Y-71789736D01*
X81645561Y-71847348D01*
X81677928Y-71892322D01*
X81692367Y-71905140D01*
X81708515Y-71915163D01*
X81731170Y-71922536D01*
X81765129Y-71927406D01*
X81815190Y-71929917D01*
X81886151Y-71930217D01*
X81982810Y-71928450D01*
X82109964Y-71924763D01*
X82272411Y-71919300D01*
X82408819Y-71914529D01*
X82512193Y-71911384D01*
X82655868Y-71907756D01*
X82836695Y-71903698D01*
X83051522Y-71899265D01*
X83297198Y-71894512D01*
X83570573Y-71889494D01*
X83868496Y-71884265D01*
X84187816Y-71878879D01*
X84525382Y-71873391D01*
X84878044Y-71867855D01*
X85242650Y-71862327D01*
X85616050Y-71856860D01*
X85995093Y-71851509D01*
X86258192Y-71847914D01*
X86625925Y-71842927D01*
X86981854Y-71838035D01*
X87323549Y-71833275D01*
X87648578Y-71828683D01*
X87954512Y-71824297D01*
X88238917Y-71820152D01*
X88499364Y-71816285D01*
X88733422Y-71812733D01*
X88938659Y-71809531D01*
X89112644Y-71806717D01*
X89252947Y-71804327D01*
X89357137Y-71802397D01*
X89422782Y-71800965D01*
X89447451Y-71800065D01*
X89447507Y-71800053D01*
X89467200Y-71815322D01*
X89501412Y-71860546D01*
X89544121Y-71927386D01*
X89563891Y-71961211D01*
X89658560Y-72127551D01*
X89492540Y-72141078D01*
X89436424Y-72145226D01*
X89340021Y-72151844D01*
X89206341Y-72160744D01*
X89038394Y-72171740D01*
X88839190Y-72184642D01*
X88611741Y-72199262D01*
X88359056Y-72215413D01*
X88084146Y-72232906D01*
X87790022Y-72251553D01*
X87479693Y-72271167D01*
X87156171Y-72291558D01*
X86822466Y-72312540D01*
X86481588Y-72333923D01*
X86136548Y-72355521D01*
X85790357Y-72377144D01*
X85446024Y-72398605D01*
X85106560Y-72419715D01*
X84774975Y-72440287D01*
X84454281Y-72460133D01*
X84147488Y-72479064D01*
X83857605Y-72496892D01*
X83587644Y-72513430D01*
X83340614Y-72528488D01*
X83119527Y-72541880D01*
X82927393Y-72553417D01*
X82767222Y-72562911D01*
X82642025Y-72570173D01*
X82554812Y-72575017D01*
X82514800Y-72577007D01*
X82375167Y-72584077D01*
X82273315Y-72592002D01*
X82203572Y-72601506D01*
X82160264Y-72613310D01*
X82141207Y-72624560D01*
X82102981Y-72681795D01*
X82104220Y-72742039D01*
X82140011Y-72790534D01*
X82151165Y-72798349D01*
X82165942Y-72804973D01*
X82187515Y-72810438D01*
X82219060Y-72814775D01*
X82263750Y-72818017D01*
X82324761Y-72820197D01*
X82405266Y-72821345D01*
X82508440Y-72821494D01*
X82637459Y-72820677D01*
X82795495Y-72818924D01*
X82985725Y-72816269D01*
X83211321Y-72812743D01*
X83475460Y-72808379D01*
X83637001Y-72805655D01*
X83883988Y-72801733D01*
X84118170Y-72798519D01*
X84335931Y-72796029D01*
X84533655Y-72794280D01*
X84707725Y-72793290D01*
X84854527Y-72793077D01*
X84970444Y-72793657D01*
X85051860Y-72795048D01*
X85095160Y-72797267D01*
X85101327Y-72798615D01*
X85117453Y-72823075D01*
X85148984Y-72876294D01*
X85191595Y-72950494D01*
X85240961Y-73037900D01*
X85292758Y-73130735D01*
X85342659Y-73221223D01*
X85386340Y-73301587D01*
X85419476Y-73364052D01*
X85437742Y-73400842D01*
X85439883Y-73407313D01*
X85417979Y-73409341D01*
X85356379Y-73413621D01*
X85258770Y-73419930D01*
X85128841Y-73428041D01*
X84970282Y-73437731D01*
X84786779Y-73448773D01*
X84582023Y-73460944D01*
X84359700Y-73474017D01*
X84123501Y-73487768D01*
X84078250Y-73490387D01*
X83796238Y-73506715D01*
X83554447Y-73520906D01*
X83349716Y-73533361D01*
X83178884Y-73544486D01*
X83038791Y-73554683D01*
X82926275Y-73564357D01*
X82838176Y-73573912D01*
X82771333Y-73583751D01*
X82722585Y-73594277D01*
X82688772Y-73605895D01*
X82666733Y-73619009D01*
X82653306Y-73634021D01*
X82645332Y-73651337D01*
X82639650Y-73671359D01*
X82638899Y-73674241D01*
X82647021Y-73720949D01*
X82679040Y-73762455D01*
X82729784Y-73810126D01*
X84192138Y-73794750D01*
X85654493Y-73779375D01*
X85792566Y-74032397D01*
X85842899Y-74126368D01*
X85883688Y-74205867D01*
X85911332Y-74263615D01*
X85922231Y-74292334D01*
X85922003Y-74294055D01*
X85899372Y-74296403D01*
X85836967Y-74300276D01*
X85738436Y-74305507D01*
X85607430Y-74311927D01*
X85447597Y-74319367D01*
X85262586Y-74327658D01*
X85056045Y-74336632D01*
X84831625Y-74346119D01*
X84592973Y-74355953D01*
X84512843Y-74359199D01*
X84229157Y-74370733D01*
X83985707Y-74380874D01*
X83779304Y-74389832D01*
X83606757Y-74397814D01*
X83464877Y-74405030D01*
X83350472Y-74411690D01*
X83260355Y-74418002D01*
X83191333Y-74424175D01*
X83140218Y-74430419D01*
X83103819Y-74436943D01*
X83078947Y-74443956D01*
X83062411Y-74451667D01*
X83058000Y-74454572D01*
X83007688Y-74510764D01*
X82998612Y-74572910D01*
X83031025Y-74633424D01*
X83051368Y-74652141D01*
X83112320Y-74700680D01*
X83970575Y-74687146D01*
X84195519Y-74683516D01*
X84437804Y-74679461D01*
X84686686Y-74675170D01*
X84931419Y-74670832D01*
X85161261Y-74666638D01*
X85365467Y-74662776D01*
X85480669Y-74660508D01*
X86132508Y-74647405D01*
X86314153Y-74976903D01*
X86372857Y-75084637D01*
X86422718Y-75178546D01*
X86460505Y-75252341D01*
X86482983Y-75299730D01*
X86487696Y-75314504D01*
X86465162Y-75316068D01*
X86402740Y-75317923D01*
X86303997Y-75320016D01*
X86172501Y-75322297D01*
X86011818Y-75324712D01*
X85825516Y-75327210D01*
X85617161Y-75329739D01*
X85390320Y-75332248D01*
X85148560Y-75334684D01*
X85013236Y-75335950D01*
X84708063Y-75338912D01*
X84443953Y-75341899D01*
X84218516Y-75344977D01*
X84029360Y-75348208D01*
X83874094Y-75351658D01*
X83750324Y-75355390D01*
X83655661Y-75359469D01*
X83587712Y-75363960D01*
X83544085Y-75368927D01*
X83522389Y-75374434D01*
X83519874Y-75376125D01*
X83492244Y-75431455D01*
X83494640Y-75501696D01*
X83526212Y-75570406D01*
X83568607Y-75628492D01*
X85122157Y-75629540D01*
X86675707Y-75630587D01*
X86798652Y-75852934D01*
X86846352Y-75940262D01*
X86884602Y-76012326D01*
X86909432Y-76061502D01*
X86916940Y-76080119D01*
X86895025Y-76082146D01*
X86833382Y-76086356D01*
X86735674Y-76092533D01*
X86605561Y-76100459D01*
X86446706Y-76109915D01*
X86262770Y-76120686D01*
X86057415Y-76132553D01*
X85834304Y-76145299D01*
X85597097Y-76158706D01*
X85534989Y-76162193D01*
X85294756Y-76175744D01*
X85067667Y-76188705D01*
X84857387Y-76200857D01*
X84667581Y-76211983D01*
X84501912Y-76221861D01*
X84364045Y-76230274D01*
X84257645Y-76237003D01*
X84186377Y-76241828D01*
X84153904Y-76244530D01*
X84152273Y-76244852D01*
X84139609Y-76265834D01*
X84116064Y-76309631D01*
X84113630Y-76314308D01*
X84094201Y-76358439D01*
X84097604Y-76389743D01*
X84127662Y-76427575D01*
X84138197Y-76438659D01*
X84195985Y-76498977D01*
X87159315Y-76498977D01*
X87182925Y-76558729D01*
X87198327Y-76605437D01*
X87220293Y-76681785D01*
X87245271Y-76775149D01*
X87259294Y-76830328D01*
X87312053Y-77042176D01*
X87265480Y-77042810D01*
X87226801Y-77044603D01*
X87154689Y-77049046D01*
X87059039Y-77055491D01*
X86949748Y-77063294D01*
X86936443Y-77064272D01*
X86857223Y-77069378D01*
X86740245Y-77075895D01*
X86591177Y-77083554D01*
X86415683Y-77092086D01*
X86219429Y-77101221D01*
X86008083Y-77110690D01*
X85787310Y-77120223D01*
X85568755Y-77129308D01*
X85319370Y-77139619D01*
X85109892Y-77148678D01*
X84936800Y-77156737D01*
X84796571Y-77164043D01*
X84685681Y-77170847D01*
X84600609Y-77177398D01*
X84537832Y-77183946D01*
X84493828Y-77190741D01*
X84465074Y-77198032D01*
X84448047Y-77206068D01*
X84444332Y-77208989D01*
X84409886Y-77265394D01*
X84413516Y-77328432D01*
X84447604Y-77378068D01*
X84462946Y-77389689D01*
X84483418Y-77398307D01*
X84514328Y-77404047D01*
X84560986Y-77407032D01*
X84628700Y-77407388D01*
X84722779Y-77405239D01*
X84848533Y-77400711D01*
X85011271Y-77393927D01*
X85050555Y-77392231D01*
X85203466Y-77386662D01*
X85390732Y-77381546D01*
X85603252Y-77377034D01*
X85831928Y-77373276D01*
X86067659Y-77370423D01*
X86301345Y-77368624D01*
X86517259Y-77368028D01*
X87423482Y-77368096D01*
X87467858Y-77517102D01*
X87498328Y-77656471D01*
X87511969Y-77801032D01*
X87512234Y-77821294D01*
X87510819Y-77903011D01*
X87505123Y-77950228D01*
X87492967Y-77971848D01*
X87474210Y-77976786D01*
X87440444Y-77978104D01*
X87371485Y-77981551D01*
X87275522Y-77986693D01*
X87160743Y-77993094D01*
X87077675Y-77997854D01*
X86982954Y-78002729D01*
X86850824Y-78008631D01*
X86687314Y-78015333D01*
X86498451Y-78022611D01*
X86290265Y-78030236D01*
X86068784Y-78037984D01*
X85840037Y-78045626D01*
X85611617Y-78052890D01*
X85359707Y-78060830D01*
X85147745Y-78067889D01*
X84972240Y-78074279D01*
X84829697Y-78080211D01*
X84716624Y-78085896D01*
X84629528Y-78091544D01*
X84564915Y-78097367D01*
X84519292Y-78103576D01*
X84489167Y-78110380D01*
X84471045Y-78117993D01*
X84465466Y-78122101D01*
X84431490Y-78178156D01*
X84435265Y-78241055D01*
X84469185Y-78290509D01*
X84482645Y-78300656D01*
X84501075Y-78308581D01*
X84528958Y-78314363D01*
X84570775Y-78318080D01*
X84631011Y-78319812D01*
X84714147Y-78319637D01*
X84824668Y-78317636D01*
X84967055Y-78313886D01*
X85145791Y-78308467D01*
X85267688Y-78304597D01*
X85490476Y-78298273D01*
X85739782Y-78292576D01*
X86001859Y-78287729D01*
X86262962Y-78283956D01*
X86509345Y-78281482D01*
X86727263Y-78280531D01*
X86744597Y-78280527D01*
X87465325Y-78280671D01*
X87477203Y-78340423D01*
X87505834Y-78496943D01*
X87522254Y-78619382D01*
X87527219Y-78715134D01*
X87522631Y-78783810D01*
X87510821Y-78844564D01*
X87496784Y-78882584D01*
X87489453Y-78889054D01*
X87464322Y-78890071D01*
X87400523Y-78892975D01*
X87302793Y-78897539D01*
X87175869Y-78903541D01*
X87024487Y-78910756D01*
X86853385Y-78918959D01*
X86667299Y-78927926D01*
X86606077Y-78930885D01*
X86382414Y-78941230D01*
X86143065Y-78951459D01*
X85898361Y-78961186D01*
X85658636Y-78970026D01*
X85434221Y-78977594D01*
X85235450Y-78983505D01*
X85114338Y-78986512D01*
X84898392Y-78992110D01*
X84725142Y-78998482D01*
X84593834Y-79005673D01*
X84503714Y-79013727D01*
X84454029Y-79022690D01*
X84445960Y-79026106D01*
X84399741Y-79075081D01*
X84394190Y-79139128D01*
X84407950Y-79179885D01*
X84433837Y-79236701D01*
X87473785Y-79236701D01*
X87459108Y-79361637D01*
X87431034Y-79485926D01*
X87379506Y-79617009D01*
X87313550Y-79732812D01*
X87299388Y-79752241D01*
X87262363Y-79800630D01*
X85719676Y-79845582D01*
X85423804Y-79854223D01*
X85168301Y-79861785D01*
X84950102Y-79868448D01*
X84766138Y-79874391D01*
X84613342Y-79879794D01*
X84488648Y-79884835D01*
X84388986Y-79889693D01*
X84311291Y-79894548D01*
X84252494Y-79899578D01*
X84209529Y-79904963D01*
X84179328Y-79910883D01*
X84158823Y-79917515D01*
X84144947Y-79925040D01*
X84134633Y-79933635D01*
X84129819Y-79938425D01*
X84100914Y-79971549D01*
X84094277Y-80000698D01*
X84108334Y-80044094D01*
X84118635Y-80067796D01*
X84154622Y-80149276D01*
X85659604Y-80149276D01*
X85910991Y-80149433D01*
X86149227Y-80149887D01*
X86370814Y-80150611D01*
X86572259Y-80151581D01*
X86750067Y-80152769D01*
X86900740Y-80154150D01*
X87020786Y-80155698D01*
X87106708Y-80157387D01*
X87155010Y-80159191D01*
X87164587Y-80160450D01*
X87155360Y-80182825D01*
X87129982Y-80236811D01*
X87091911Y-80315240D01*
X87044600Y-80410942D01*
X87023199Y-80453778D01*
X86965431Y-80567029D01*
X86922014Y-80646316D01*
X86889217Y-80697188D01*
X86863308Y-80725196D01*
X86840555Y-80735890D01*
X86833080Y-80736565D01*
X86793534Y-80738360D01*
X86720646Y-80742804D01*
X86624403Y-80749252D01*
X86514794Y-80757057D01*
X86501883Y-80758005D01*
X86427707Y-80762777D01*
X86315057Y-80769083D01*
X86168877Y-80776687D01*
X85994113Y-80785352D01*
X85795709Y-80794838D01*
X85578612Y-80804910D01*
X85347765Y-80815330D01*
X85108116Y-80825859D01*
X84926605Y-80833643D01*
X83633791Y-80888475D01*
X83584599Y-80944136D01*
X83552801Y-80984395D01*
X83548609Y-81015038D01*
X83569859Y-81058106D01*
X83572905Y-81063275D01*
X83610402Y-81126754D01*
X85180179Y-81132326D01*
X86749957Y-81137899D01*
X86619444Y-81371475D01*
X86568766Y-81460750D01*
X86525515Y-81534278D01*
X86494085Y-81584775D01*
X86478868Y-81604961D01*
X86478529Y-81605050D01*
X86455598Y-81606175D01*
X86392931Y-81609422D01*
X86294186Y-81614596D01*
X86163022Y-81621504D01*
X86003096Y-81629954D01*
X85818068Y-81639752D01*
X85611594Y-81650704D01*
X85387334Y-81662617D01*
X85148946Y-81675297D01*
X85072687Y-81679357D01*
X84816205Y-81692890D01*
X84561501Y-81706094D01*
X84313772Y-81718714D01*
X84078216Y-81730496D01*
X83860030Y-81741184D01*
X83664410Y-81750526D01*
X83496556Y-81758265D01*
X83361662Y-81764147D01*
X83264928Y-81767918D01*
X83264416Y-81767935D01*
X83118790Y-81773350D01*
X83010216Y-81778633D01*
X82932301Y-81784584D01*
X82878649Y-81792006D01*
X82842868Y-81801700D01*
X82818563Y-81814468D01*
X82805124Y-81825503D01*
X82771515Y-81880399D01*
X82779581Y-81938019D01*
X82813667Y-81979023D01*
X82828001Y-81984350D01*
X82858897Y-81988903D01*
X82908895Y-81992710D01*
X82980533Y-81995802D01*
X83076349Y-81998211D01*
X83198882Y-81999965D01*
X83350671Y-82001096D01*
X83534253Y-82001633D01*
X83752169Y-82001608D01*
X84006955Y-82001051D01*
X84301152Y-81999991D01*
X84495237Y-81999138D01*
X84758583Y-81998095D01*
X85008933Y-81997449D01*
X85242946Y-81997185D01*
X85457283Y-81997292D01*
X85648604Y-81997757D01*
X85813568Y-81998568D01*
X85948836Y-81999713D01*
X86051068Y-82001178D01*
X86116923Y-82002952D01*
X86143063Y-82005022D01*
X86143372Y-82005289D01*
X86133019Y-82029861D01*
X86105430Y-82081611D01*
X86065806Y-82151759D01*
X86019350Y-82231522D01*
X85971264Y-82312120D01*
X85926751Y-82384772D01*
X85891013Y-82440696D01*
X85869252Y-82471111D01*
X85865586Y-82474169D01*
X85842586Y-82474951D01*
X85779149Y-82477225D01*
X85678263Y-82480880D01*
X85542917Y-82485807D01*
X85376100Y-82491898D01*
X85180799Y-82499043D01*
X84960005Y-82507131D01*
X84716706Y-82516055D01*
X84453891Y-82525705D01*
X84174547Y-82535970D01*
X83881665Y-82546743D01*
X83766648Y-82550976D01*
X83414720Y-82563997D01*
X83103707Y-82575671D01*
X82831093Y-82586131D01*
X82594363Y-82595510D01*
X82390999Y-82603940D01*
X82218487Y-82611554D01*
X82074310Y-82618484D01*
X81955953Y-82624863D01*
X81860900Y-82630824D01*
X81786634Y-82636499D01*
X81730640Y-82642021D01*
X81690402Y-82647522D01*
X81663404Y-82653135D01*
X81647130Y-82658992D01*
X81641122Y-82662983D01*
X81606825Y-82719104D01*
X81611104Y-82782029D01*
X81647956Y-82834745D01*
X81657682Y-82842298D01*
X81670986Y-82848905D01*
X81690756Y-82854650D01*
X81719878Y-82859619D01*
X81761238Y-82863897D01*
X81817724Y-82867569D01*
X81892222Y-82870721D01*
X81987619Y-82873436D01*
X82106802Y-82875801D01*
X82252657Y-82877901D01*
X82428071Y-82879820D01*
X82635932Y-82881645D01*
X82879124Y-82883459D01*
X83160536Y-82885349D01*
X83419759Y-82887001D01*
X85145832Y-82897865D01*
X84869028Y-83136872D01*
X84773321Y-83219308D01*
X84685939Y-83294195D01*
X84613551Y-83355848D01*
X84562823Y-83398582D01*
X84544149Y-83413897D01*
X84529868Y-83422078D01*
X84506507Y-83429690D01*
X84470840Y-83437001D01*
X84419642Y-83444276D01*
X84349687Y-83451780D01*
X84257750Y-83459780D01*
X84140605Y-83468541D01*
X83995027Y-83478330D01*
X83817789Y-83489413D01*
X83605667Y-83502055D01*
X83355434Y-83516522D01*
X83174086Y-83526845D01*
X82909049Y-83541518D01*
X82633666Y-83556123D01*
X82355128Y-83570317D01*
X82080623Y-83583760D01*
X81817343Y-83596111D01*
X81572476Y-83607028D01*
X81353212Y-83616169D01*
X81166742Y-83623194D01*
X81092170Y-83625678D01*
X80879511Y-83632543D01*
X80706263Y-83638885D01*
X80568396Y-83645375D01*
X80461879Y-83652683D01*
X80382685Y-83661480D01*
X80326784Y-83672436D01*
X80290146Y-83686222D01*
X80268742Y-83703507D01*
X80258542Y-83724964D01*
X80255517Y-83751262D01*
X80255424Y-83764919D01*
X80254963Y-83785300D01*
X80255153Y-83803014D01*
X80258832Y-83818237D01*
X80268837Y-83831142D01*
X80288005Y-83841903D01*
X80319174Y-83850695D01*
X80365181Y-83857690D01*
X80428863Y-83863063D01*
X80513058Y-83866988D01*
X80620603Y-83869639D01*
X80754336Y-83871190D01*
X80917093Y-83871814D01*
X81111712Y-83871686D01*
X81341031Y-83870980D01*
X81607886Y-83869869D01*
X81915115Y-83868527D01*
X81943568Y-83868407D01*
X83590335Y-83861449D01*
X83492559Y-83924226D01*
X83375712Y-83997826D01*
X83270022Y-84060334D01*
X83169128Y-84114197D01*
X83066669Y-84161866D01*
X82956282Y-84205788D01*
X82831608Y-84248413D01*
X82686284Y-84292191D01*
X82513949Y-84339570D01*
X82308242Y-84392999D01*
X82210609Y-84417770D01*
X82056881Y-84455505D01*
X81930497Y-84483248D01*
X81817111Y-84503268D01*
X81702373Y-84517831D01*
X81571937Y-84529204D01*
X81456402Y-84536928D01*
X81302716Y-84546146D01*
X81181562Y-84552323D01*
X81082119Y-84555438D01*
X80993567Y-84555473D01*
X80905088Y-84552407D01*
X80805861Y-84546221D01*
X80685066Y-84536896D01*
X80667923Y-84535510D01*
X80563470Y-84523324D01*
X80428163Y-84501936D01*
X80273137Y-84473348D01*
X80109524Y-84439562D01*
X80010378Y-84417282D01*
X79872065Y-84384670D01*
X79758074Y-84356016D01*
X79659142Y-84328098D01*
X79566002Y-84297694D01*
X79469389Y-84261583D01*
X79360040Y-84216541D01*
X79228689Y-84159348D01*
X79086939Y-84096136D01*
X78913486Y-84017385D01*
X78771162Y-83950005D01*
X78650810Y-83889065D01*
X78543277Y-83829634D01*
X78439407Y-83766782D01*
X78330047Y-83695577D01*
X78277846Y-83660341D01*
X77993523Y-83446979D01*
X77710764Y-83196440D01*
X77435114Y-82914820D01*
X77172118Y-82608215D01*
X76927320Y-82282722D01*
X76706266Y-81944438D01*
X76685145Y-81909242D01*
X76615895Y-81792093D01*
X76564774Y-81701694D01*
X76527474Y-81627580D01*
X76499685Y-81559287D01*
X76477101Y-81486349D01*
X76455411Y-81398301D01*
X76432885Y-81296525D01*
X76392946Y-81081928D01*
X76360144Y-80836455D01*
X76333669Y-80554033D01*
X76333340Y-80549786D01*
X76320314Y-80398501D01*
X76304950Y-80247181D01*
X76288514Y-80106630D01*
X76272269Y-79987650D01*
X76257481Y-79901043D01*
X76257237Y-79899855D01*
X76236085Y-79782403D01*
X76228359Y-79697257D01*
X76233374Y-79635625D01*
X76235836Y-79625380D01*
X76243386Y-79583034D01*
X76253661Y-79504548D01*
X76265869Y-79397098D01*
X76279220Y-79267856D01*
X76292919Y-79123999D01*
X76300325Y-79041150D01*
X76314982Y-78876364D01*
X76327720Y-78745991D01*
X76340110Y-78641127D01*
X76353727Y-78552871D01*
X76370144Y-78472318D01*
X76390933Y-78390567D01*
X76417670Y-78298714D01*
X76450082Y-78193759D01*
X76552527Y-77905391D01*
X76682621Y-77602456D01*
X76833992Y-77297423D01*
X77000269Y-77002765D01*
X77175082Y-76730953D01*
X77253279Y-76621512D01*
X77406754Y-76421194D01*
X77576955Y-76211177D01*
X77756971Y-75999264D01*
X77939890Y-75793256D01*
X78118802Y-75600957D01*
X78286796Y-75430169D01*
X78421326Y-75302765D01*
X78490378Y-75240718D01*
X78553361Y-75185875D01*
X78614418Y-75135559D01*
X78677691Y-75087092D01*
X78747323Y-75037796D01*
X78827458Y-74984995D01*
X78922238Y-74926011D01*
X79035806Y-74858167D01*
X79172306Y-74778784D01*
X79335881Y-74685186D01*
X79530673Y-74574695D01*
X79668436Y-74496817D01*
X79883286Y-74380672D01*
X80076594Y-74288692D01*
X80259779Y-74216723D01*
X80444262Y-74160613D01*
X80641462Y-74116208D01*
X80782876Y-74091493D01*
X80883325Y-74074605D01*
X80967457Y-74058746D01*
X81026305Y-74045723D01*
X81050767Y-74037490D01*
X81041814Y-74017418D01*
X81013081Y-73960757D01*
X80965447Y-73869149D01*
X80899789Y-73744236D01*
X80816987Y-73587661D01*
X80717919Y-73401066D01*
X80603463Y-73186094D01*
X80474499Y-72944386D01*
X80331903Y-72677586D01*
X80176555Y-72387334D01*
X80009334Y-72075274D01*
X79831118Y-71743049D01*
X79642785Y-71392299D01*
X79445214Y-71024668D01*
X79239284Y-70641797D01*
X79025872Y-70245330D01*
X78805858Y-69836908D01*
X78580120Y-69418174D01*
X78541204Y-69346019D01*
X76018095Y-64668096D01*
X78652632Y-64652080D01*
X79233204Y-64648168D01*
X79774571Y-64643682D01*
X80280982Y-64638531D01*
X80756686Y-64632622D01*
X81205931Y-64625863D01*
X81632966Y-64618160D01*
X82042039Y-64609421D01*
X82437399Y-64599553D01*
X82823295Y-64588464D01*
X83203975Y-64576061D01*
X83583688Y-64562252D01*
X83966682Y-64546943D01*
X84357207Y-64530043D01*
X84457694Y-64525504D01*
X84657154Y-64516813D01*
X84843133Y-64509458D01*
X85011161Y-64503563D01*
X85156764Y-64499250D01*
X85275473Y-64496641D01*
X85362815Y-64495857D01*
X85414318Y-64497021D01*
G36*
X91599428Y-85497695D02*
X91750406Y-85508802D01*
X91870176Y-85529325D01*
X91964647Y-85560907D01*
X92039725Y-85605193D01*
X92101318Y-85663828D01*
X92124388Y-85692859D01*
X92160885Y-85770797D01*
X92178554Y-85870070D01*
X92175175Y-85971856D01*
X92163324Y-86022742D01*
X92137218Y-86075569D01*
X92095759Y-86134707D01*
X92048971Y-86188297D01*
X92006879Y-86224483D01*
X91985486Y-86233109D01*
X91954994Y-86240158D01*
X91912608Y-86254662D01*
X91855919Y-86276215D01*
X91931876Y-86342907D01*
X91979796Y-86397964D01*
X92039339Y-86487373D01*
X92106538Y-86604922D01*
X92140085Y-86669001D01*
X92272337Y-86928404D01*
X91879920Y-86928404D01*
X91758026Y-86683964D01*
X91677047Y-86530802D01*
X91607627Y-86419330D01*
X91549646Y-86349382D01*
X91502984Y-86320791D01*
X91495252Y-86320020D01*
X91483430Y-86329594D01*
X91475175Y-86361910D01*
X91469980Y-86422364D01*
X91467339Y-86516352D01*
X91466725Y-86624212D01*
X91466725Y-86928404D01*
X91097350Y-86928404D01*
X91097350Y-85733365D01*
X91466725Y-85733365D01*
X91466725Y-86086542D01*
X91576074Y-86076035D01*
X91677968Y-86053295D01*
X91739034Y-86015163D01*
X91786262Y-85949235D01*
X91794527Y-85883209D01*
X91767923Y-85822868D01*
X91710544Y-85773995D01*
X91626484Y-85742371D01*
X91539531Y-85733365D01*
X91466725Y-85733365D01*
X91097350Y-85733365D01*
X91097350Y-85494357D01*
X91411336Y-85494357D01*
X91599428Y-85497695D01*
X91599428Y-85497695D01*
G37*
X91599428Y-85497695D02*
X91750406Y-85508802D01*
X91870176Y-85529325D01*
X91964647Y-85560907D01*
X92039725Y-85605193D01*
X92101318Y-85663828D01*
X92124388Y-85692859D01*
X92160885Y-85770797D01*
X92178554Y-85870070D01*
X92175175Y-85971856D01*
X92163324Y-86022742D01*
X92137218Y-86075569D01*
X92095759Y-86134707D01*
X92048971Y-86188297D01*
X92006879Y-86224483D01*
X91985486Y-86233109D01*
X91954994Y-86240158D01*
X91912608Y-86254662D01*
X91855919Y-86276215D01*
X91931876Y-86342907D01*
X91979796Y-86397964D01*
X92039339Y-86487373D01*
X92106538Y-86604922D01*
X92140085Y-86669001D01*
X92272337Y-86928404D01*
X91879920Y-86928404D01*
X91758026Y-86683964D01*
X91677047Y-86530802D01*
X91607627Y-86419330D01*
X91549646Y-86349382D01*
X91502984Y-86320791D01*
X91495252Y-86320020D01*
X91483430Y-86329594D01*
X91475175Y-86361910D01*
X91469980Y-86422364D01*
X91467339Y-86516352D01*
X91466725Y-86624212D01*
X91466725Y-86928404D01*
X91097350Y-86928404D01*
X91097350Y-85733365D01*
X91466725Y-85733365D01*
X91466725Y-86086542D01*
X91576074Y-86076035D01*
X91677968Y-86053295D01*
X91739034Y-86015163D01*
X91786262Y-85949235D01*
X91794527Y-85883209D01*
X91767923Y-85822868D01*
X91710544Y-85773995D01*
X91626484Y-85742371D01*
X91539531Y-85733365D01*
X91466725Y-85733365D01*
X91097350Y-85733365D01*
X91097350Y-85494357D01*
X91411336Y-85494357D01*
X91599428Y-85497695D01*
D15*
X191944667Y-86828381D02*
X191944667Y-87542667D01*
X191897047Y-87685524D01*
X191801809Y-87780762D01*
X191658952Y-87828381D01*
X191563714Y-87828381D01*
X192944667Y-87828381D02*
X192373238Y-87828381D01*
X192658952Y-87828381D02*
X192658952Y-86828381D01*
X192563714Y-86971238D01*
X192468476Y-87066476D01*
X192373238Y-87114095D01*
X155448095Y-103338381D02*
X155448095Y-104147905D01*
X155495714Y-104243143D01*
X155543333Y-104290762D01*
X155638571Y-104338381D01*
X155829048Y-104338381D01*
X155924286Y-104290762D01*
X155971905Y-104243143D01*
X156019524Y-104147905D01*
X156019524Y-103338381D01*
X156924286Y-103338381D02*
X156733809Y-103338381D01*
X156638571Y-103386000D01*
X156590952Y-103433619D01*
X156495714Y-103576476D01*
X156448095Y-103766952D01*
X156448095Y-104147905D01*
X156495714Y-104243143D01*
X156543333Y-104290762D01*
X156638571Y-104338381D01*
X156829048Y-104338381D01*
X156924286Y-104290762D01*
X156971905Y-104243143D01*
X157019524Y-104147905D01*
X157019524Y-103909810D01*
X156971905Y-103814571D01*
X156924286Y-103766952D01*
X156829048Y-103719333D01*
X156638571Y-103719333D01*
X156543333Y-103766952D01*
X156495714Y-103814571D01*
X156448095Y-103909810D01*
X156614834Y-72112143D02*
X156567215Y-72159762D01*
X156424358Y-72207381D01*
X156329120Y-72207381D01*
X156186262Y-72159762D01*
X156091024Y-72064524D01*
X156043405Y-71969286D01*
X155995786Y-71778810D01*
X155995786Y-71635952D01*
X156043405Y-71445476D01*
X156091024Y-71350238D01*
X156186262Y-71255000D01*
X156329120Y-71207381D01*
X156424358Y-71207381D01*
X156567215Y-71255000D01*
X156614834Y-71302619D01*
X157471977Y-71540714D02*
X157471977Y-72207381D01*
X157233881Y-71159762D02*
X156995786Y-71874048D01*
X157614834Y-71874048D01*
X153439834Y-71921643D02*
X153392215Y-71969262D01*
X153249358Y-72016881D01*
X153154120Y-72016881D01*
X153011262Y-71969262D01*
X152916024Y-71874024D01*
X152868405Y-71778786D01*
X152820786Y-71588310D01*
X152820786Y-71445452D01*
X152868405Y-71254976D01*
X152916024Y-71159738D01*
X153011262Y-71064500D01*
X153154120Y-71016881D01*
X153249358Y-71016881D01*
X153392215Y-71064500D01*
X153439834Y-71112119D01*
X154344596Y-71016881D02*
X153868405Y-71016881D01*
X153820786Y-71493071D01*
X153868405Y-71445452D01*
X153963643Y-71397833D01*
X154201739Y-71397833D01*
X154296977Y-71445452D01*
X154344596Y-71493071D01*
X154392215Y-71588310D01*
X154392215Y-71826405D01*
X154344596Y-71921643D01*
X154296977Y-71969262D01*
X154201739Y-72016881D01*
X153963643Y-72016881D01*
X153868405Y-71969262D01*
X153820786Y-71921643D01*
X108481905Y-85542381D02*
X108481905Y-84542381D01*
X108720000Y-84542381D01*
X108862858Y-84590000D01*
X108958096Y-84685238D01*
X109005715Y-84780476D01*
X109053334Y-84970952D01*
X109053334Y-85113810D01*
X109005715Y-85304286D01*
X108958096Y-85399524D01*
X108862858Y-85494762D01*
X108720000Y-85542381D01*
X108481905Y-85542381D01*
X110005715Y-85542381D02*
X109434286Y-85542381D01*
X109720000Y-85542381D02*
X109720000Y-84542381D01*
X109624762Y-84685238D01*
X109529524Y-84780476D01*
X109434286Y-84828095D01*
X126587262Y-49188619D02*
X126492024Y-49141000D01*
X126396786Y-49045762D01*
X126253929Y-48902905D01*
X126158690Y-48855286D01*
X126063452Y-48855286D01*
X126111071Y-49093381D02*
X126015833Y-49045762D01*
X125920595Y-48950524D01*
X125872976Y-48760048D01*
X125872976Y-48426714D01*
X125920595Y-48236238D01*
X126015833Y-48141000D01*
X126111071Y-48093381D01*
X126301548Y-48093381D01*
X126396786Y-48141000D01*
X126492024Y-48236238D01*
X126539643Y-48426714D01*
X126539643Y-48760048D01*
X126492024Y-48950524D01*
X126396786Y-49045762D01*
X126301548Y-49093381D01*
X126111071Y-49093381D01*
X127492024Y-49093381D02*
X126920595Y-49093381D01*
X127206309Y-49093381D02*
X127206309Y-48093381D01*
X127111071Y-48236238D01*
X127015833Y-48331476D01*
X126920595Y-48379095D01*
X118578334Y-97607381D02*
X118245000Y-97131190D01*
X118006905Y-97607381D02*
X118006905Y-96607381D01*
X118387858Y-96607381D01*
X118483096Y-96655000D01*
X118530715Y-96702619D01*
X118578334Y-96797857D01*
X118578334Y-96940714D01*
X118530715Y-97035952D01*
X118483096Y-97083571D01*
X118387858Y-97131190D01*
X118006905Y-97131190D01*
X119530715Y-97607381D02*
X118959286Y-97607381D01*
X119245000Y-97607381D02*
X119245000Y-96607381D01*
X119149762Y-96750238D01*
X119054524Y-96845476D01*
X118959286Y-96893095D01*
X117308334Y-89352381D02*
X116975000Y-88876190D01*
X116736905Y-89352381D02*
X116736905Y-88352381D01*
X117117858Y-88352381D01*
X117213096Y-88400000D01*
X117260715Y-88447619D01*
X117308334Y-88542857D01*
X117308334Y-88685714D01*
X117260715Y-88780952D01*
X117213096Y-88828571D01*
X117117858Y-88876190D01*
X116736905Y-88876190D01*
X117689286Y-88447619D02*
X117736905Y-88400000D01*
X117832143Y-88352381D01*
X118070239Y-88352381D01*
X118165477Y-88400000D01*
X118213096Y-88447619D01*
X118260715Y-88542857D01*
X118260715Y-88638095D01*
X118213096Y-88780952D01*
X117641667Y-89352381D01*
X118260715Y-89352381D01*
X121118334Y-89352381D02*
X120785000Y-88876190D01*
X120546905Y-89352381D02*
X120546905Y-88352381D01*
X120927858Y-88352381D01*
X121023096Y-88400000D01*
X121070715Y-88447619D01*
X121118334Y-88542857D01*
X121118334Y-88685714D01*
X121070715Y-88780952D01*
X121023096Y-88828571D01*
X120927858Y-88876190D01*
X120546905Y-88876190D01*
X121451667Y-88352381D02*
X122070715Y-88352381D01*
X121737381Y-88733333D01*
X121880239Y-88733333D01*
X121975477Y-88780952D01*
X122023096Y-88828571D01*
X122070715Y-88923810D01*
X122070715Y-89161905D01*
X122023096Y-89257143D01*
X121975477Y-89304762D01*
X121880239Y-89352381D01*
X121594524Y-89352381D01*
X121499286Y-89304762D01*
X121451667Y-89257143D01*
X135151834Y-89352381D02*
X134818500Y-88876190D01*
X134580405Y-89352381D02*
X134580405Y-88352381D01*
X134961358Y-88352381D01*
X135056596Y-88400000D01*
X135104215Y-88447619D01*
X135151834Y-88542857D01*
X135151834Y-88685714D01*
X135104215Y-88780952D01*
X135056596Y-88828571D01*
X134961358Y-88876190D01*
X134580405Y-88876190D01*
X136008977Y-88685714D02*
X136008977Y-89352381D01*
X135770881Y-88304762D02*
X135532786Y-89019048D01*
X136151834Y-89019048D01*
X132611834Y-89415881D02*
X132278500Y-88939690D01*
X132040405Y-89415881D02*
X132040405Y-88415881D01*
X132421358Y-88415881D01*
X132516596Y-88463500D01*
X132564215Y-88511119D01*
X132611834Y-88606357D01*
X132611834Y-88749214D01*
X132564215Y-88844452D01*
X132516596Y-88892071D01*
X132421358Y-88939690D01*
X132040405Y-88939690D01*
X133516596Y-88415881D02*
X133040405Y-88415881D01*
X132992786Y-88892071D01*
X133040405Y-88844452D01*
X133135643Y-88796833D01*
X133373739Y-88796833D01*
X133468977Y-88844452D01*
X133516596Y-88892071D01*
X133564215Y-88987310D01*
X133564215Y-89225405D01*
X133516596Y-89320643D01*
X133468977Y-89368262D01*
X133373739Y-89415881D01*
X133135643Y-89415881D01*
X133040405Y-89368262D01*
X132992786Y-89320643D01*
X124293334Y-89352381D02*
X123960000Y-88876190D01*
X123721905Y-89352381D02*
X123721905Y-88352381D01*
X124102858Y-88352381D01*
X124198096Y-88400000D01*
X124245715Y-88447619D01*
X124293334Y-88542857D01*
X124293334Y-88685714D01*
X124245715Y-88780952D01*
X124198096Y-88828571D01*
X124102858Y-88876190D01*
X123721905Y-88876190D01*
X125150477Y-88352381D02*
X124960000Y-88352381D01*
X124864762Y-88400000D01*
X124817143Y-88447619D01*
X124721905Y-88590476D01*
X124674286Y-88780952D01*
X124674286Y-89161905D01*
X124721905Y-89257143D01*
X124769524Y-89304762D01*
X124864762Y-89352381D01*
X125055239Y-89352381D01*
X125150477Y-89304762D01*
X125198096Y-89257143D01*
X125245715Y-89161905D01*
X125245715Y-88923810D01*
X125198096Y-88828571D01*
X125150477Y-88780952D01*
X125055239Y-88733333D01*
X124864762Y-88733333D01*
X124769524Y-88780952D01*
X124721905Y-88828571D01*
X124674286Y-88923810D01*
X128722381Y-56173666D02*
X128246190Y-56507000D01*
X128722381Y-56745095D02*
X127722381Y-56745095D01*
X127722381Y-56364142D01*
X127770000Y-56268904D01*
X127817619Y-56221285D01*
X127912857Y-56173666D01*
X128055714Y-56173666D01*
X128150952Y-56221285D01*
X128198571Y-56268904D01*
X128246190Y-56364142D01*
X128246190Y-56745095D01*
X127722381Y-55840333D02*
X127722381Y-55173666D01*
X128722381Y-55602238D01*
X114768334Y-65031881D02*
X114435000Y-64555690D01*
X114196905Y-65031881D02*
X114196905Y-64031881D01*
X114577858Y-64031881D01*
X114673096Y-64079500D01*
X114720715Y-64127119D01*
X114768334Y-64222357D01*
X114768334Y-64365214D01*
X114720715Y-64460452D01*
X114673096Y-64508071D01*
X114577858Y-64555690D01*
X114196905Y-64555690D01*
X115339762Y-64460452D02*
X115244524Y-64412833D01*
X115196905Y-64365214D01*
X115149286Y-64269976D01*
X115149286Y-64222357D01*
X115196905Y-64127119D01*
X115244524Y-64079500D01*
X115339762Y-64031881D01*
X115530239Y-64031881D01*
X115625477Y-64079500D01*
X115673096Y-64127119D01*
X115720715Y-64222357D01*
X115720715Y-64269976D01*
X115673096Y-64365214D01*
X115625477Y-64412833D01*
X115530239Y-64460452D01*
X115339762Y-64460452D01*
X115244524Y-64508071D01*
X115196905Y-64555690D01*
X115149286Y-64650929D01*
X115149286Y-64841405D01*
X115196905Y-64936643D01*
X115244524Y-64984262D01*
X115339762Y-65031881D01*
X115530239Y-65031881D01*
X115625477Y-64984262D01*
X115673096Y-64936643D01*
X115720715Y-64841405D01*
X115720715Y-64650929D01*
X115673096Y-64555690D01*
X115625477Y-64508071D01*
X115530239Y-64460452D01*
X124912381Y-56046666D02*
X124436190Y-56380000D01*
X124912381Y-56618095D02*
X123912381Y-56618095D01*
X123912381Y-56237142D01*
X123960000Y-56141904D01*
X124007619Y-56094285D01*
X124102857Y-56046666D01*
X124245714Y-56046666D01*
X124340952Y-56094285D01*
X124388571Y-56141904D01*
X124436190Y-56237142D01*
X124436190Y-56618095D01*
X124912381Y-55570476D02*
X124912381Y-55380000D01*
X124864762Y-55284761D01*
X124817143Y-55237142D01*
X124674286Y-55141904D01*
X124483810Y-55094285D01*
X124102857Y-55094285D01*
X124007619Y-55141904D01*
X123960000Y-55189523D01*
X123912381Y-55284761D01*
X123912381Y-55475238D01*
X123960000Y-55570476D01*
X124007619Y-55618095D01*
X124102857Y-55665714D01*
X124340952Y-55665714D01*
X124436190Y-55618095D01*
X124483810Y-55570476D01*
X124531429Y-55475238D01*
X124531429Y-55284761D01*
X124483810Y-55189523D01*
X124436190Y-55141904D01*
X124340952Y-55094285D01*
X136707643Y-58364381D02*
X136374309Y-57888190D01*
X136136214Y-58364381D02*
X136136214Y-57364381D01*
X136517167Y-57364381D01*
X136612405Y-57412000D01*
X136660024Y-57459619D01*
X136707643Y-57554857D01*
X136707643Y-57697714D01*
X136660024Y-57792952D01*
X136612405Y-57840571D01*
X136517167Y-57888190D01*
X136136214Y-57888190D01*
X137660024Y-58364381D02*
X137088595Y-58364381D01*
X137374309Y-58364381D02*
X137374309Y-57364381D01*
X137279071Y-57507238D01*
X137183833Y-57602476D01*
X137088595Y-57650095D01*
X138279071Y-57364381D02*
X138374310Y-57364381D01*
X138469548Y-57412000D01*
X138517167Y-57459619D01*
X138564786Y-57554857D01*
X138612405Y-57745333D01*
X138612405Y-57983429D01*
X138564786Y-58173905D01*
X138517167Y-58269143D01*
X138469548Y-58316762D01*
X138374310Y-58364381D01*
X138279071Y-58364381D01*
X138183833Y-58316762D01*
X138136214Y-58269143D01*
X138088595Y-58173905D01*
X138040976Y-57983429D01*
X138040976Y-57745333D01*
X138088595Y-57554857D01*
X138136214Y-57459619D01*
X138183833Y-57412000D01*
X138279071Y-57364381D01*
X142930643Y-44076881D02*
X142597309Y-43600690D01*
X142359214Y-44076881D02*
X142359214Y-43076881D01*
X142740167Y-43076881D01*
X142835405Y-43124500D01*
X142883024Y-43172119D01*
X142930643Y-43267357D01*
X142930643Y-43410214D01*
X142883024Y-43505452D01*
X142835405Y-43553071D01*
X142740167Y-43600690D01*
X142359214Y-43600690D01*
X143883024Y-44076881D02*
X143311595Y-44076881D01*
X143597309Y-44076881D02*
X143597309Y-43076881D01*
X143502071Y-43219738D01*
X143406833Y-43314976D01*
X143311595Y-43362595D01*
X144835405Y-44076881D02*
X144263976Y-44076881D01*
X144549690Y-44076881D02*
X144549690Y-43076881D01*
X144454452Y-43219738D01*
X144359214Y-43314976D01*
X144263976Y-43362595D01*
X111752143Y-85542381D02*
X111418809Y-85066190D01*
X111180714Y-85542381D02*
X111180714Y-84542381D01*
X111561667Y-84542381D01*
X111656905Y-84590000D01*
X111704524Y-84637619D01*
X111752143Y-84732857D01*
X111752143Y-84875714D01*
X111704524Y-84970952D01*
X111656905Y-85018571D01*
X111561667Y-85066190D01*
X111180714Y-85066190D01*
X112704524Y-85542381D02*
X112133095Y-85542381D01*
X112418809Y-85542381D02*
X112418809Y-84542381D01*
X112323571Y-84685238D01*
X112228333Y-84780476D01*
X112133095Y-84828095D01*
X113085476Y-84637619D02*
X113133095Y-84590000D01*
X113228333Y-84542381D01*
X113466429Y-84542381D01*
X113561667Y-84590000D01*
X113609286Y-84637619D01*
X113656905Y-84732857D01*
X113656905Y-84828095D01*
X113609286Y-84970952D01*
X113037857Y-85542381D01*
X113656905Y-85542381D01*
X151757143Y-60777381D02*
X151423809Y-60301190D01*
X151185714Y-60777381D02*
X151185714Y-59777381D01*
X151566667Y-59777381D01*
X151661905Y-59825000D01*
X151709524Y-59872619D01*
X151757143Y-59967857D01*
X151757143Y-60110714D01*
X151709524Y-60205952D01*
X151661905Y-60253571D01*
X151566667Y-60301190D01*
X151185714Y-60301190D01*
X152709524Y-60777381D02*
X152138095Y-60777381D01*
X152423809Y-60777381D02*
X152423809Y-59777381D01*
X152328571Y-59920238D01*
X152233333Y-60015476D01*
X152138095Y-60063095D01*
X153042857Y-59777381D02*
X153661905Y-59777381D01*
X153328571Y-60158333D01*
X153471429Y-60158333D01*
X153566667Y-60205952D01*
X153614286Y-60253571D01*
X153661905Y-60348810D01*
X153661905Y-60586905D01*
X153614286Y-60682143D01*
X153566667Y-60729762D01*
X153471429Y-60777381D01*
X153185714Y-60777381D01*
X153090476Y-60729762D01*
X153042857Y-60682143D01*
X179697143Y-64587381D02*
X179363809Y-64111190D01*
X179125714Y-64587381D02*
X179125714Y-63587381D01*
X179506667Y-63587381D01*
X179601905Y-63635000D01*
X179649524Y-63682619D01*
X179697143Y-63777857D01*
X179697143Y-63920714D01*
X179649524Y-64015952D01*
X179601905Y-64063571D01*
X179506667Y-64111190D01*
X179125714Y-64111190D01*
X180649524Y-64587381D02*
X180078095Y-64587381D01*
X180363809Y-64587381D02*
X180363809Y-63587381D01*
X180268571Y-63730238D01*
X180173333Y-63825476D01*
X180078095Y-63873095D01*
X181506667Y-63920714D02*
X181506667Y-64587381D01*
X181268571Y-63539762D02*
X181030476Y-64254048D01*
X181649524Y-64254048D01*
X165155643Y-58364381D02*
X164822309Y-57888190D01*
X164584214Y-58364381D02*
X164584214Y-57364381D01*
X164965167Y-57364381D01*
X165060405Y-57412000D01*
X165108024Y-57459619D01*
X165155643Y-57554857D01*
X165155643Y-57697714D01*
X165108024Y-57792952D01*
X165060405Y-57840571D01*
X164965167Y-57888190D01*
X164584214Y-57888190D01*
X166108024Y-58364381D02*
X165536595Y-58364381D01*
X165822309Y-58364381D02*
X165822309Y-57364381D01*
X165727071Y-57507238D01*
X165631833Y-57602476D01*
X165536595Y-57650095D01*
X167012786Y-57364381D02*
X166536595Y-57364381D01*
X166488976Y-57840571D01*
X166536595Y-57792952D01*
X166631833Y-57745333D01*
X166869929Y-57745333D01*
X166965167Y-57792952D01*
X167012786Y-57840571D01*
X167060405Y-57935810D01*
X167060405Y-58173905D01*
X167012786Y-58269143D01*
X166965167Y-58316762D01*
X166869929Y-58364381D01*
X166631833Y-58364381D01*
X166536595Y-58316762D01*
X166488976Y-58269143D01*
X171902381Y-46553357D02*
X171426190Y-46886691D01*
X171902381Y-47124786D02*
X170902381Y-47124786D01*
X170902381Y-46743833D01*
X170950000Y-46648595D01*
X170997619Y-46600976D01*
X171092857Y-46553357D01*
X171235714Y-46553357D01*
X171330952Y-46600976D01*
X171378571Y-46648595D01*
X171426190Y-46743833D01*
X171426190Y-47124786D01*
X171902381Y-45600976D02*
X171902381Y-46172405D01*
X171902381Y-45886691D02*
X170902381Y-45886691D01*
X171045238Y-45981929D01*
X171140476Y-46077167D01*
X171188095Y-46172405D01*
X170902381Y-44743833D02*
X170902381Y-44934310D01*
X170950000Y-45029548D01*
X170997619Y-45077167D01*
X171140476Y-45172405D01*
X171330952Y-45220024D01*
X171711905Y-45220024D01*
X171807143Y-45172405D01*
X171854762Y-45124786D01*
X171902381Y-45029548D01*
X171902381Y-44839071D01*
X171854762Y-44743833D01*
X171807143Y-44696214D01*
X171711905Y-44648595D01*
X171473810Y-44648595D01*
X171378571Y-44696214D01*
X171330952Y-44743833D01*
X171283333Y-44839071D01*
X171283333Y-45029548D01*
X171330952Y-45124786D01*
X171378571Y-45172405D01*
X171473810Y-45220024D01*
X175648881Y-46616857D02*
X175172690Y-46950191D01*
X175648881Y-47188286D02*
X174648881Y-47188286D01*
X174648881Y-46807333D01*
X174696500Y-46712095D01*
X174744119Y-46664476D01*
X174839357Y-46616857D01*
X174982214Y-46616857D01*
X175077452Y-46664476D01*
X175125071Y-46712095D01*
X175172690Y-46807333D01*
X175172690Y-47188286D01*
X175648881Y-45664476D02*
X175648881Y-46235905D01*
X175648881Y-45950191D02*
X174648881Y-45950191D01*
X174791738Y-46045429D01*
X174886976Y-46140667D01*
X174934595Y-46235905D01*
X175077452Y-45093048D02*
X175029833Y-45188286D01*
X174982214Y-45235905D01*
X174886976Y-45283524D01*
X174839357Y-45283524D01*
X174744119Y-45235905D01*
X174696500Y-45188286D01*
X174648881Y-45093048D01*
X174648881Y-44902571D01*
X174696500Y-44807333D01*
X174744119Y-44759714D01*
X174839357Y-44712095D01*
X174886976Y-44712095D01*
X174982214Y-44759714D01*
X175029833Y-44807333D01*
X175077452Y-44902571D01*
X175077452Y-45093048D01*
X175125071Y-45188286D01*
X175172690Y-45235905D01*
X175267929Y-45283524D01*
X175458405Y-45283524D01*
X175553643Y-45235905D01*
X175601262Y-45188286D01*
X175648881Y-45093048D01*
X175648881Y-44902571D01*
X175601262Y-44807333D01*
X175553643Y-44759714D01*
X175458405Y-44712095D01*
X175267929Y-44712095D01*
X175172690Y-44759714D01*
X175125071Y-44807333D01*
X175077452Y-44902571D01*
X179458881Y-46616857D02*
X178982690Y-46950191D01*
X179458881Y-47188286D02*
X178458881Y-47188286D01*
X178458881Y-46807333D01*
X178506500Y-46712095D01*
X178554119Y-46664476D01*
X178649357Y-46616857D01*
X178792214Y-46616857D01*
X178887452Y-46664476D01*
X178935071Y-46712095D01*
X178982690Y-46807333D01*
X178982690Y-47188286D01*
X179458881Y-45664476D02*
X179458881Y-46235905D01*
X179458881Y-45950191D02*
X178458881Y-45950191D01*
X178601738Y-46045429D01*
X178696976Y-46140667D01*
X178744595Y-46235905D01*
X179458881Y-45188286D02*
X179458881Y-44997810D01*
X179411262Y-44902571D01*
X179363643Y-44854952D01*
X179220786Y-44759714D01*
X179030310Y-44712095D01*
X178649357Y-44712095D01*
X178554119Y-44759714D01*
X178506500Y-44807333D01*
X178458881Y-44902571D01*
X178458881Y-45093048D01*
X178506500Y-45188286D01*
X178554119Y-45235905D01*
X178649357Y-45283524D01*
X178887452Y-45283524D01*
X178982690Y-45235905D01*
X179030310Y-45188286D01*
X179077929Y-45093048D01*
X179077929Y-44902571D01*
X179030310Y-44807333D01*
X178982690Y-44759714D01*
X178887452Y-44712095D01*
X76073095Y-118578381D02*
X76073095Y-119387905D01*
X76120714Y-119483143D01*
X76168333Y-119530762D01*
X76263571Y-119578381D01*
X76454048Y-119578381D01*
X76549286Y-119530762D01*
X76596905Y-119483143D01*
X76644524Y-119387905D01*
X76644524Y-118578381D01*
X77644524Y-119578381D02*
X77073095Y-119578381D01*
X77358809Y-119578381D02*
X77358809Y-118578381D01*
X77263571Y-118721238D01*
X77168333Y-118816476D01*
X77073095Y-118864095D01*
X104648095Y-118578381D02*
X104648095Y-119387905D01*
X104695714Y-119483143D01*
X104743333Y-119530762D01*
X104838571Y-119578381D01*
X105029048Y-119578381D01*
X105124286Y-119530762D01*
X105171905Y-119483143D01*
X105219524Y-119387905D01*
X105219524Y-118578381D01*
X105648095Y-118673619D02*
X105695714Y-118626000D01*
X105790952Y-118578381D01*
X106029048Y-118578381D01*
X106124286Y-118626000D01*
X106171905Y-118673619D01*
X106219524Y-118768857D01*
X106219524Y-118864095D01*
X106171905Y-119006952D01*
X105600476Y-119578381D01*
X106219524Y-119578381D01*
X130048095Y-118578381D02*
X130048095Y-119387905D01*
X130095714Y-119483143D01*
X130143333Y-119530762D01*
X130238571Y-119578381D01*
X130429048Y-119578381D01*
X130524286Y-119530762D01*
X130571905Y-119483143D01*
X130619524Y-119387905D01*
X130619524Y-118578381D01*
X131000476Y-118578381D02*
X131619524Y-118578381D01*
X131286190Y-118959333D01*
X131429048Y-118959333D01*
X131524286Y-119006952D01*
X131571905Y-119054571D01*
X131619524Y-119149810D01*
X131619524Y-119387905D01*
X131571905Y-119483143D01*
X131524286Y-119530762D01*
X131429048Y-119578381D01*
X131143333Y-119578381D01*
X131048095Y-119530762D01*
X131000476Y-119483143D01*
X155448095Y-118578381D02*
X155448095Y-119387905D01*
X155495714Y-119483143D01*
X155543333Y-119530762D01*
X155638571Y-119578381D01*
X155829048Y-119578381D01*
X155924286Y-119530762D01*
X155971905Y-119483143D01*
X156019524Y-119387905D01*
X156019524Y-118578381D01*
X156924286Y-118911714D02*
X156924286Y-119578381D01*
X156686190Y-118530762D02*
X156448095Y-119245048D01*
X157067143Y-119245048D01*
X144018095Y-88352381D02*
X144018095Y-89161905D01*
X144065714Y-89257143D01*
X144113333Y-89304762D01*
X144208571Y-89352381D01*
X144399048Y-89352381D01*
X144494286Y-89304762D01*
X144541905Y-89257143D01*
X144589524Y-89161905D01*
X144589524Y-88352381D01*
X145541905Y-88352381D02*
X145065714Y-88352381D01*
X145018095Y-88828571D01*
X145065714Y-88780952D01*
X145160952Y-88733333D01*
X145399048Y-88733333D01*
X145494286Y-88780952D01*
X145541905Y-88828571D01*
X145589524Y-88923810D01*
X145589524Y-89161905D01*
X145541905Y-89257143D01*
X145494286Y-89304762D01*
X145399048Y-89352381D01*
X145160952Y-89352381D01*
X145065714Y-89304762D01*
X145018095Y-89257143D01*
X155448095Y-83018381D02*
X155448095Y-83827905D01*
X155495714Y-83923143D01*
X155543333Y-83970762D01*
X155638571Y-84018381D01*
X155829048Y-84018381D01*
X155924286Y-83970762D01*
X155971905Y-83923143D01*
X156019524Y-83827905D01*
X156019524Y-83018381D01*
X156400476Y-83018381D02*
X157067143Y-83018381D01*
X156638571Y-84018381D01*
X133223095Y-71842381D02*
X133223095Y-72651905D01*
X133270714Y-72747143D01*
X133318333Y-72794762D01*
X133413571Y-72842381D01*
X133604048Y-72842381D01*
X133699286Y-72794762D01*
X133746905Y-72747143D01*
X133794524Y-72651905D01*
X133794524Y-71842381D01*
X134413571Y-72270952D02*
X134318333Y-72223333D01*
X134270714Y-72175714D01*
X134223095Y-72080476D01*
X134223095Y-72032857D01*
X134270714Y-71937619D01*
X134318333Y-71890000D01*
X134413571Y-71842381D01*
X134604048Y-71842381D01*
X134699286Y-71890000D01*
X134746905Y-71937619D01*
X134794524Y-72032857D01*
X134794524Y-72080476D01*
X134746905Y-72175714D01*
X134699286Y-72223333D01*
X134604048Y-72270952D01*
X134413571Y-72270952D01*
X134318333Y-72318571D01*
X134270714Y-72366190D01*
X134223095Y-72461429D01*
X134223095Y-72651905D01*
X134270714Y-72747143D01*
X134318333Y-72794762D01*
X134413571Y-72842381D01*
X134604048Y-72842381D01*
X134699286Y-72794762D01*
X134746905Y-72747143D01*
X134794524Y-72651905D01*
X134794524Y-72461429D01*
X134746905Y-72366190D01*
X134699286Y-72318571D01*
X134604048Y-72270952D01*
X149034595Y-31202381D02*
X149034595Y-32011905D01*
X149082214Y-32107143D01*
X149129833Y-32154762D01*
X149225071Y-32202381D01*
X149415548Y-32202381D01*
X149510786Y-32154762D01*
X149558405Y-32107143D01*
X149606024Y-32011905D01*
X149606024Y-31202381D01*
X150129833Y-32202381D02*
X150320309Y-32202381D01*
X150415548Y-32154762D01*
X150463167Y-32107143D01*
X150558405Y-31964286D01*
X150606024Y-31773810D01*
X150606024Y-31392857D01*
X150558405Y-31297619D01*
X150510786Y-31250000D01*
X150415548Y-31202381D01*
X150225071Y-31202381D01*
X150129833Y-31250000D01*
X150082214Y-31297619D01*
X150034595Y-31392857D01*
X150034595Y-31630952D01*
X150082214Y-31726190D01*
X150129833Y-31773810D01*
X150225071Y-31821429D01*
X150415548Y-31821429D01*
X150510786Y-31773810D01*
X150558405Y-31726190D01*
X150606024Y-31630952D01*
X114927143Y-39092143D02*
X114879524Y-39139762D01*
X114736667Y-39187381D01*
X114641429Y-39187381D01*
X114498571Y-39139762D01*
X114403333Y-39044524D01*
X114355714Y-38949286D01*
X114308095Y-38758810D01*
X114308095Y-38615952D01*
X114355714Y-38425476D01*
X114403333Y-38330238D01*
X114498571Y-38235000D01*
X114641429Y-38187381D01*
X114736667Y-38187381D01*
X114879524Y-38235000D01*
X114927143Y-38282619D01*
X115879524Y-39187381D02*
X115308095Y-39187381D01*
X115593809Y-39187381D02*
X115593809Y-38187381D01*
X115498571Y-38330238D01*
X115403333Y-38425476D01*
X115308095Y-38473095D01*
X116450952Y-38615952D02*
X116355714Y-38568333D01*
X116308095Y-38520714D01*
X116260476Y-38425476D01*
X116260476Y-38377857D01*
X116308095Y-38282619D01*
X116355714Y-38235000D01*
X116450952Y-38187381D01*
X116641429Y-38187381D01*
X116736667Y-38235000D01*
X116784286Y-38282619D01*
X116831905Y-38377857D01*
X116831905Y-38425476D01*
X116784286Y-38520714D01*
X116736667Y-38568333D01*
X116641429Y-38615952D01*
X116450952Y-38615952D01*
X116355714Y-38663571D01*
X116308095Y-38711190D01*
X116260476Y-38806429D01*
X116260476Y-38996905D01*
X116308095Y-39092143D01*
X116355714Y-39139762D01*
X116450952Y-39187381D01*
X116641429Y-39187381D01*
X116736667Y-39139762D01*
X116784286Y-39092143D01*
X116831905Y-38996905D01*
X116831905Y-38806429D01*
X116784286Y-38711190D01*
X116736667Y-38663571D01*
X116641429Y-38615952D01*
X126992143Y-118467143D02*
X126944524Y-118514762D01*
X126801667Y-118562381D01*
X126706429Y-118562381D01*
X126563571Y-118514762D01*
X126468333Y-118419524D01*
X126420714Y-118324286D01*
X126373095Y-118133810D01*
X126373095Y-117990952D01*
X126420714Y-117800476D01*
X126468333Y-117705238D01*
X126563571Y-117610000D01*
X126706429Y-117562381D01*
X126801667Y-117562381D01*
X126944524Y-117610000D01*
X126992143Y-117657619D01*
X127373095Y-117657619D02*
X127420714Y-117610000D01*
X127515952Y-117562381D01*
X127754048Y-117562381D01*
X127849286Y-117610000D01*
X127896905Y-117657619D01*
X127944524Y-117752857D01*
X127944524Y-117848095D01*
X127896905Y-117990952D01*
X127325476Y-118562381D01*
X127944524Y-118562381D01*
X128801667Y-117895714D02*
X128801667Y-118562381D01*
X128563571Y-117514762D02*
X128325476Y-118229048D01*
X128944524Y-118229048D01*
X152868334Y-82907143D02*
X152820715Y-82954762D01*
X152677858Y-83002381D01*
X152582620Y-83002381D01*
X152439762Y-82954762D01*
X152344524Y-82859524D01*
X152296905Y-82764286D01*
X152249286Y-82573810D01*
X152249286Y-82430952D01*
X152296905Y-82240476D01*
X152344524Y-82145238D01*
X152439762Y-82050000D01*
X152582620Y-82002381D01*
X152677858Y-82002381D01*
X152820715Y-82050000D01*
X152868334Y-82097619D01*
X153249286Y-82097619D02*
X153296905Y-82050000D01*
X153392143Y-82002381D01*
X153630239Y-82002381D01*
X153725477Y-82050000D01*
X153773096Y-82097619D01*
X153820715Y-82192857D01*
X153820715Y-82288095D01*
X153773096Y-82430952D01*
X153201667Y-83002381D01*
X153820715Y-83002381D01*
X152392143Y-118467143D02*
X152344524Y-118514762D01*
X152201667Y-118562381D01*
X152106429Y-118562381D01*
X151963571Y-118514762D01*
X151868333Y-118419524D01*
X151820714Y-118324286D01*
X151773095Y-118133810D01*
X151773095Y-117990952D01*
X151820714Y-117800476D01*
X151868333Y-117705238D01*
X151963571Y-117610000D01*
X152106429Y-117562381D01*
X152201667Y-117562381D01*
X152344524Y-117610000D01*
X152392143Y-117657619D01*
X152773095Y-117657619D02*
X152820714Y-117610000D01*
X152915952Y-117562381D01*
X153154048Y-117562381D01*
X153249286Y-117610000D01*
X153296905Y-117657619D01*
X153344524Y-117752857D01*
X153344524Y-117848095D01*
X153296905Y-117990952D01*
X152725476Y-118562381D01*
X153344524Y-118562381D01*
X154249286Y-117562381D02*
X153773095Y-117562381D01*
X153725476Y-118038571D01*
X153773095Y-117990952D01*
X153868333Y-117943333D01*
X154106429Y-117943333D01*
X154201667Y-117990952D01*
X154249286Y-118038571D01*
X154296905Y-118133810D01*
X154296905Y-118371905D01*
X154249286Y-118467143D01*
X154201667Y-118514762D01*
X154106429Y-118562381D01*
X153868333Y-118562381D01*
X153773095Y-118514762D01*
X153725476Y-118467143D01*
X99687143Y-118467143D02*
X99639524Y-118514762D01*
X99496667Y-118562381D01*
X99401429Y-118562381D01*
X99258571Y-118514762D01*
X99163333Y-118419524D01*
X99115714Y-118324286D01*
X99068095Y-118133810D01*
X99068095Y-117990952D01*
X99115714Y-117800476D01*
X99163333Y-117705238D01*
X99258571Y-117610000D01*
X99401429Y-117562381D01*
X99496667Y-117562381D01*
X99639524Y-117610000D01*
X99687143Y-117657619D01*
X100068095Y-117657619D02*
X100115714Y-117610000D01*
X100210952Y-117562381D01*
X100449048Y-117562381D01*
X100544286Y-117610000D01*
X100591905Y-117657619D01*
X100639524Y-117752857D01*
X100639524Y-117848095D01*
X100591905Y-117990952D01*
X100020476Y-118562381D01*
X100639524Y-118562381D01*
X101258571Y-117562381D02*
X101353810Y-117562381D01*
X101449048Y-117610000D01*
X101496667Y-117657619D01*
X101544286Y-117752857D01*
X101591905Y-117943333D01*
X101591905Y-118181429D01*
X101544286Y-118371905D01*
X101496667Y-118467143D01*
X101449048Y-118514762D01*
X101353810Y-118562381D01*
X101258571Y-118562381D01*
X101163333Y-118514762D01*
X101115714Y-118467143D01*
X101068095Y-118371905D01*
X101020476Y-118181429D01*
X101020476Y-117943333D01*
X101068095Y-117752857D01*
X101115714Y-117657619D01*
X101163333Y-117610000D01*
X101258571Y-117562381D01*
X72382143Y-118467143D02*
X72334524Y-118514762D01*
X72191667Y-118562381D01*
X72096429Y-118562381D01*
X71953571Y-118514762D01*
X71858333Y-118419524D01*
X71810714Y-118324286D01*
X71763095Y-118133810D01*
X71763095Y-117990952D01*
X71810714Y-117800476D01*
X71858333Y-117705238D01*
X71953571Y-117610000D01*
X72096429Y-117562381D01*
X72191667Y-117562381D01*
X72334524Y-117610000D01*
X72382143Y-117657619D01*
X73334524Y-118562381D02*
X72763095Y-118562381D01*
X73048809Y-118562381D02*
X73048809Y-117562381D01*
X72953571Y-117705238D01*
X72858333Y-117800476D01*
X72763095Y-117848095D01*
X73810714Y-118562381D02*
X74001190Y-118562381D01*
X74096429Y-118514762D01*
X74144048Y-118467143D01*
X74239286Y-118324286D01*
X74286905Y-118133810D01*
X74286905Y-117752857D01*
X74239286Y-117657619D01*
X74191667Y-117610000D01*
X74096429Y-117562381D01*
X73905952Y-117562381D01*
X73810714Y-117610000D01*
X73763095Y-117657619D01*
X73715476Y-117752857D01*
X73715476Y-117990952D01*
X73763095Y-118086190D01*
X73810714Y-118133810D01*
X73905952Y-118181429D01*
X74096429Y-118181429D01*
X74191667Y-118133810D01*
X74239286Y-118086190D01*
X74286905Y-117990952D01*
X125198143Y-95257857D02*
X125245762Y-95305476D01*
X125293381Y-95448333D01*
X125293381Y-95543571D01*
X125245762Y-95686429D01*
X125150524Y-95781667D01*
X125055286Y-95829286D01*
X124864810Y-95876905D01*
X124721952Y-95876905D01*
X124531476Y-95829286D01*
X124436238Y-95781667D01*
X124341000Y-95686429D01*
X124293381Y-95543571D01*
X124293381Y-95448333D01*
X124341000Y-95305476D01*
X124388619Y-95257857D01*
X124388619Y-94876905D02*
X124341000Y-94829286D01*
X124293381Y-94734048D01*
X124293381Y-94495952D01*
X124341000Y-94400714D01*
X124388619Y-94353095D01*
X124483857Y-94305476D01*
X124579095Y-94305476D01*
X124721952Y-94353095D01*
X125293381Y-94924524D01*
X125293381Y-94305476D01*
X124293381Y-93448333D02*
X124293381Y-93638810D01*
X124341000Y-93734048D01*
X124388619Y-93781667D01*
X124531476Y-93876905D01*
X124721952Y-93924524D01*
X125102905Y-93924524D01*
X125198143Y-93876905D01*
X125245762Y-93829286D01*
X125293381Y-93734048D01*
X125293381Y-93543571D01*
X125245762Y-93448333D01*
X125198143Y-93400714D01*
X125102905Y-93353095D01*
X124864810Y-93353095D01*
X124769571Y-93400714D01*
X124721952Y-93448333D01*
X124674333Y-93543571D01*
X124674333Y-93734048D01*
X124721952Y-93829286D01*
X124769571Y-93876905D01*
X124864810Y-93924524D01*
X187793334Y-104497143D02*
X187745715Y-104544762D01*
X187602858Y-104592381D01*
X187507620Y-104592381D01*
X187364762Y-104544762D01*
X187269524Y-104449524D01*
X187221905Y-104354286D01*
X187174286Y-104163810D01*
X187174286Y-104020952D01*
X187221905Y-103830476D01*
X187269524Y-103735238D01*
X187364762Y-103640000D01*
X187507620Y-103592381D01*
X187602858Y-103592381D01*
X187745715Y-103640000D01*
X187793334Y-103687619D01*
X188745715Y-104592381D02*
X188174286Y-104592381D01*
X188460000Y-104592381D02*
X188460000Y-103592381D01*
X188364762Y-103735238D01*
X188269524Y-103830476D01*
X188174286Y-103878095D01*
X128103334Y-89257143D02*
X128055715Y-89304762D01*
X127912858Y-89352381D01*
X127817620Y-89352381D01*
X127674762Y-89304762D01*
X127579524Y-89209524D01*
X127531905Y-89114286D01*
X127484286Y-88923810D01*
X127484286Y-88780952D01*
X127531905Y-88590476D01*
X127579524Y-88495238D01*
X127674762Y-88400000D01*
X127817620Y-88352381D01*
X127912858Y-88352381D01*
X128055715Y-88400000D01*
X128103334Y-88447619D01*
X128436667Y-88352381D02*
X129103334Y-88352381D01*
X128674762Y-89352381D01*
X130008334Y-72747143D02*
X129960715Y-72794762D01*
X129817858Y-72842381D01*
X129722620Y-72842381D01*
X129579762Y-72794762D01*
X129484524Y-72699524D01*
X129436905Y-72604286D01*
X129389286Y-72413810D01*
X129389286Y-72270952D01*
X129436905Y-72080476D01*
X129484524Y-71985238D01*
X129579762Y-71890000D01*
X129722620Y-71842381D01*
X129817858Y-71842381D01*
X129960715Y-71890000D01*
X130008334Y-71937619D01*
X130865477Y-71842381D02*
X130675000Y-71842381D01*
X130579762Y-71890000D01*
X130532143Y-71937619D01*
X130436905Y-72080476D01*
X130389286Y-72270952D01*
X130389286Y-72651905D01*
X130436905Y-72747143D01*
X130484524Y-72794762D01*
X130579762Y-72842381D01*
X130770239Y-72842381D01*
X130865477Y-72794762D01*
X130913096Y-72747143D01*
X130960715Y-72651905D01*
X130960715Y-72413810D01*
X130913096Y-72318571D01*
X130865477Y-72270952D01*
X130770239Y-72223333D01*
X130579762Y-72223333D01*
X130484524Y-72270952D01*
X130436905Y-72318571D01*
X130389286Y-72413810D01*
X118959334Y-72747143D02*
X118911715Y-72794762D01*
X118768858Y-72842381D01*
X118673620Y-72842381D01*
X118530762Y-72794762D01*
X118435524Y-72699524D01*
X118387905Y-72604286D01*
X118340286Y-72413810D01*
X118340286Y-72270952D01*
X118387905Y-72080476D01*
X118435524Y-71985238D01*
X118530762Y-71890000D01*
X118673620Y-71842381D01*
X118768858Y-71842381D01*
X118911715Y-71890000D01*
X118959334Y-71937619D01*
X119435524Y-72842381D02*
X119626000Y-72842381D01*
X119721239Y-72794762D01*
X119768858Y-72747143D01*
X119864096Y-72604286D01*
X119911715Y-72413810D01*
X119911715Y-72032857D01*
X119864096Y-71937619D01*
X119816477Y-71890000D01*
X119721239Y-71842381D01*
X119530762Y-71842381D01*
X119435524Y-71890000D01*
X119387905Y-71937619D01*
X119340286Y-72032857D01*
X119340286Y-72270952D01*
X119387905Y-72366190D01*
X119435524Y-72413810D01*
X119530762Y-72461429D01*
X119721239Y-72461429D01*
X119816477Y-72413810D01*
X119864096Y-72366190D01*
X119911715Y-72270952D01*
X121642143Y-56046666D02*
X121689762Y-56094285D01*
X121737381Y-56237142D01*
X121737381Y-56332380D01*
X121689762Y-56475238D01*
X121594524Y-56570476D01*
X121499286Y-56618095D01*
X121308810Y-56665714D01*
X121165952Y-56665714D01*
X120975476Y-56618095D01*
X120880238Y-56570476D01*
X120785000Y-56475238D01*
X120737381Y-56332380D01*
X120737381Y-56237142D01*
X120785000Y-56094285D01*
X120832619Y-56046666D01*
X121165952Y-55475238D02*
X121118333Y-55570476D01*
X121070714Y-55618095D01*
X120975476Y-55665714D01*
X120927857Y-55665714D01*
X120832619Y-55618095D01*
X120785000Y-55570476D01*
X120737381Y-55475238D01*
X120737381Y-55284761D01*
X120785000Y-55189523D01*
X120832619Y-55141904D01*
X120927857Y-55094285D01*
X120975476Y-55094285D01*
X121070714Y-55141904D01*
X121118333Y-55189523D01*
X121165952Y-55284761D01*
X121165952Y-55475238D01*
X121213571Y-55570476D01*
X121261190Y-55618095D01*
X121356429Y-55665714D01*
X121546905Y-55665714D01*
X121642143Y-55618095D01*
X121689762Y-55570476D01*
X121737381Y-55475238D01*
X121737381Y-55284761D01*
X121689762Y-55189523D01*
X121642143Y-55141904D01*
X121546905Y-55094285D01*
X121356429Y-55094285D01*
X121261190Y-55141904D01*
X121213571Y-55189523D01*
X121165952Y-55284761D01*
X147312143Y-60682143D02*
X147264524Y-60729762D01*
X147121667Y-60777381D01*
X147026429Y-60777381D01*
X146883571Y-60729762D01*
X146788333Y-60634524D01*
X146740714Y-60539286D01*
X146693095Y-60348810D01*
X146693095Y-60205952D01*
X146740714Y-60015476D01*
X146788333Y-59920238D01*
X146883571Y-59825000D01*
X147026429Y-59777381D01*
X147121667Y-59777381D01*
X147264524Y-59825000D01*
X147312143Y-59872619D01*
X148264524Y-60777381D02*
X147693095Y-60777381D01*
X147978809Y-60777381D02*
X147978809Y-59777381D01*
X147883571Y-59920238D01*
X147788333Y-60015476D01*
X147693095Y-60063095D01*
X148645476Y-59872619D02*
X148693095Y-59825000D01*
X148788333Y-59777381D01*
X149026429Y-59777381D01*
X149121667Y-59825000D01*
X149169286Y-59872619D01*
X149216905Y-59967857D01*
X149216905Y-60063095D01*
X149169286Y-60205952D01*
X148597857Y-60777381D01*
X149216905Y-60777381D01*
X147312143Y-43537143D02*
X147264524Y-43584762D01*
X147121667Y-43632381D01*
X147026429Y-43632381D01*
X146883571Y-43584762D01*
X146788333Y-43489524D01*
X146740714Y-43394286D01*
X146693095Y-43203810D01*
X146693095Y-43060952D01*
X146740714Y-42870476D01*
X146788333Y-42775238D01*
X146883571Y-42680000D01*
X147026429Y-42632381D01*
X147121667Y-42632381D01*
X147264524Y-42680000D01*
X147312143Y-42727619D01*
X148264524Y-43632381D02*
X147693095Y-43632381D01*
X147978809Y-43632381D02*
X147978809Y-42632381D01*
X147883571Y-42775238D01*
X147788333Y-42870476D01*
X147693095Y-42918095D01*
X149121667Y-42965714D02*
X149121667Y-43632381D01*
X148883571Y-42584762D02*
X148645476Y-43299048D01*
X149264524Y-43299048D01*
X162282143Y-32392857D02*
X162329762Y-32440476D01*
X162377381Y-32583333D01*
X162377381Y-32678571D01*
X162329762Y-32821429D01*
X162234524Y-32916667D01*
X162139286Y-32964286D01*
X161948810Y-33011905D01*
X161805952Y-33011905D01*
X161615476Y-32964286D01*
X161520238Y-32916667D01*
X161425000Y-32821429D01*
X161377381Y-32678571D01*
X161377381Y-32583333D01*
X161425000Y-32440476D01*
X161472619Y-32392857D01*
X162377381Y-31440476D02*
X162377381Y-32011905D01*
X162377381Y-31726191D02*
X161377381Y-31726191D01*
X161520238Y-31821429D01*
X161615476Y-31916667D01*
X161663095Y-32011905D01*
X161377381Y-30583333D02*
X161377381Y-30773810D01*
X161425000Y-30869048D01*
X161472619Y-30916667D01*
X161615476Y-31011905D01*
X161805952Y-31059524D01*
X162186905Y-31059524D01*
X162282143Y-31011905D01*
X162329762Y-30964286D01*
X162377381Y-30869048D01*
X162377381Y-30678571D01*
X162329762Y-30583333D01*
X162282143Y-30535714D01*
X162186905Y-30488095D01*
X161948810Y-30488095D01*
X161853571Y-30535714D01*
X161805952Y-30583333D01*
X161758333Y-30678571D01*
X161758333Y-30869048D01*
X161805952Y-30964286D01*
X161853571Y-31011905D01*
X161948810Y-31059524D01*
X166092143Y-32392857D02*
X166139762Y-32440476D01*
X166187381Y-32583333D01*
X166187381Y-32678571D01*
X166139762Y-32821429D01*
X166044524Y-32916667D01*
X165949286Y-32964286D01*
X165758810Y-33011905D01*
X165615952Y-33011905D01*
X165425476Y-32964286D01*
X165330238Y-32916667D01*
X165235000Y-32821429D01*
X165187381Y-32678571D01*
X165187381Y-32583333D01*
X165235000Y-32440476D01*
X165282619Y-32392857D01*
X166187381Y-31440476D02*
X166187381Y-32011905D01*
X166187381Y-31726191D02*
X165187381Y-31726191D01*
X165330238Y-31821429D01*
X165425476Y-31916667D01*
X165473095Y-32011905D01*
X165187381Y-31107143D02*
X165187381Y-30440476D01*
X166187381Y-30869048D01*
X177792143Y-59412143D02*
X177744524Y-59459762D01*
X177601667Y-59507381D01*
X177506429Y-59507381D01*
X177363571Y-59459762D01*
X177268333Y-59364524D01*
X177220714Y-59269286D01*
X177173095Y-59078810D01*
X177173095Y-58935952D01*
X177220714Y-58745476D01*
X177268333Y-58650238D01*
X177363571Y-58555000D01*
X177506429Y-58507381D01*
X177601667Y-58507381D01*
X177744524Y-58555000D01*
X177792143Y-58602619D01*
X178744524Y-59507381D02*
X178173095Y-59507381D01*
X178458809Y-59507381D02*
X178458809Y-58507381D01*
X178363571Y-58650238D01*
X178268333Y-58745476D01*
X178173095Y-58793095D01*
X179077857Y-58507381D02*
X179696905Y-58507381D01*
X179363571Y-58888333D01*
X179506429Y-58888333D01*
X179601667Y-58935952D01*
X179649286Y-58983571D01*
X179696905Y-59078810D01*
X179696905Y-59316905D01*
X179649286Y-59412143D01*
X179601667Y-59459762D01*
X179506429Y-59507381D01*
X179220714Y-59507381D01*
X179125476Y-59459762D01*
X179077857Y-59412143D01*
X182237143Y-118467143D02*
X182189524Y-118514762D01*
X182046667Y-118562381D01*
X181951429Y-118562381D01*
X181808571Y-118514762D01*
X181713333Y-118419524D01*
X181665714Y-118324286D01*
X181618095Y-118133810D01*
X181618095Y-117990952D01*
X181665714Y-117800476D01*
X181713333Y-117705238D01*
X181808571Y-117610000D01*
X181951429Y-117562381D01*
X182046667Y-117562381D01*
X182189524Y-117610000D01*
X182237143Y-117657619D01*
X182618095Y-117657619D02*
X182665714Y-117610000D01*
X182760952Y-117562381D01*
X182999048Y-117562381D01*
X183094286Y-117610000D01*
X183141905Y-117657619D01*
X183189524Y-117752857D01*
X183189524Y-117848095D01*
X183141905Y-117990952D01*
X182570476Y-118562381D01*
X183189524Y-118562381D01*
X183522857Y-117562381D02*
X184141905Y-117562381D01*
X183808571Y-117943333D01*
X183951429Y-117943333D01*
X184046667Y-117990952D01*
X184094286Y-118038571D01*
X184141905Y-118133810D01*
X184141905Y-118371905D01*
X184094286Y-118467143D01*
X184046667Y-118514762D01*
X183951429Y-118562381D01*
X183665714Y-118562381D01*
X183570476Y-118514762D01*
X183522857Y-118467143D01*
X189222143Y-124817143D02*
X189174524Y-124864762D01*
X189031667Y-124912381D01*
X188936429Y-124912381D01*
X188793571Y-124864762D01*
X188698333Y-124769524D01*
X188650714Y-124674286D01*
X188603095Y-124483810D01*
X188603095Y-124340952D01*
X188650714Y-124150476D01*
X188698333Y-124055238D01*
X188793571Y-123960000D01*
X188936429Y-123912381D01*
X189031667Y-123912381D01*
X189174524Y-123960000D01*
X189222143Y-124007619D01*
X189603095Y-124007619D02*
X189650714Y-123960000D01*
X189745952Y-123912381D01*
X189984048Y-123912381D01*
X190079286Y-123960000D01*
X190126905Y-124007619D01*
X190174524Y-124102857D01*
X190174524Y-124198095D01*
X190126905Y-124340952D01*
X189555476Y-124912381D01*
X190174524Y-124912381D01*
X191126905Y-124912381D02*
X190555476Y-124912381D01*
X190841190Y-124912381D02*
X190841190Y-123912381D01*
X190745952Y-124055238D01*
X190650714Y-124150476D01*
X190555476Y-124198095D01*
X194302143Y-124817143D02*
X194254524Y-124864762D01*
X194111667Y-124912381D01*
X194016429Y-124912381D01*
X193873571Y-124864762D01*
X193778333Y-124769524D01*
X193730714Y-124674286D01*
X193683095Y-124483810D01*
X193683095Y-124340952D01*
X193730714Y-124150476D01*
X193778333Y-124055238D01*
X193873571Y-123960000D01*
X194016429Y-123912381D01*
X194111667Y-123912381D01*
X194254524Y-123960000D01*
X194302143Y-124007619D01*
X194683095Y-124007619D02*
X194730714Y-123960000D01*
X194825952Y-123912381D01*
X195064048Y-123912381D01*
X195159286Y-123960000D01*
X195206905Y-124007619D01*
X195254524Y-124102857D01*
X195254524Y-124198095D01*
X195206905Y-124340952D01*
X194635476Y-124912381D01*
X195254524Y-124912381D01*
X195635476Y-124007619D02*
X195683095Y-123960000D01*
X195778333Y-123912381D01*
X196016429Y-123912381D01*
X196111667Y-123960000D01*
X196159286Y-124007619D01*
X196206905Y-124102857D01*
X196206905Y-124198095D01*
X196159286Y-124340952D01*
X195587857Y-124912381D01*
X196206905Y-124912381D01*
X104767143Y-93067143D02*
X104719524Y-93114762D01*
X104576667Y-93162381D01*
X104481429Y-93162381D01*
X104338571Y-93114762D01*
X104243333Y-93019524D01*
X104195714Y-92924286D01*
X104148095Y-92733810D01*
X104148095Y-92590952D01*
X104195714Y-92400476D01*
X104243333Y-92305238D01*
X104338571Y-92210000D01*
X104481429Y-92162381D01*
X104576667Y-92162381D01*
X104719524Y-92210000D01*
X104767143Y-92257619D01*
X105719524Y-93162381D02*
X105148095Y-93162381D01*
X105433809Y-93162381D02*
X105433809Y-92162381D01*
X105338571Y-92305238D01*
X105243333Y-92400476D01*
X105148095Y-92448095D01*
X106671905Y-93162381D02*
X106100476Y-93162381D01*
X106386190Y-93162381D02*
X106386190Y-92162381D01*
X106290952Y-92305238D01*
X106195714Y-92400476D01*
X106100476Y-92448095D01*
X167536834Y-82907143D02*
X167489215Y-82954762D01*
X167346358Y-83002381D01*
X167251120Y-83002381D01*
X167108262Y-82954762D01*
X167013024Y-82859524D01*
X166965405Y-82764286D01*
X166917786Y-82573810D01*
X166917786Y-82430952D01*
X166965405Y-82240476D01*
X167013024Y-82145238D01*
X167108262Y-82050000D01*
X167251120Y-82002381D01*
X167346358Y-82002381D01*
X167489215Y-82050000D01*
X167536834Y-82097619D01*
X167870167Y-82002381D02*
X168489215Y-82002381D01*
X168155881Y-82383333D01*
X168298739Y-82383333D01*
X168393977Y-82430952D01*
X168441596Y-82478571D01*
X168489215Y-82573810D01*
X168489215Y-82811905D01*
X168441596Y-82907143D01*
X168393977Y-82954762D01*
X168298739Y-83002381D01*
X168013024Y-83002381D01*
X167917786Y-82954762D01*
X167870167Y-82907143D01*
X135247143Y-46966143D02*
X135199524Y-47013762D01*
X135056667Y-47061381D01*
X134961429Y-47061381D01*
X134818571Y-47013762D01*
X134723333Y-46918524D01*
X134675714Y-46823286D01*
X134628095Y-46632810D01*
X134628095Y-46489952D01*
X134675714Y-46299476D01*
X134723333Y-46204238D01*
X134818571Y-46109000D01*
X134961429Y-46061381D01*
X135056667Y-46061381D01*
X135199524Y-46109000D01*
X135247143Y-46156619D01*
X136199524Y-47061381D02*
X135628095Y-47061381D01*
X135913809Y-47061381D02*
X135913809Y-46061381D01*
X135818571Y-46204238D01*
X135723333Y-46299476D01*
X135628095Y-46347095D01*
X136818571Y-46061381D02*
X136913810Y-46061381D01*
X137009048Y-46109000D01*
X137056667Y-46156619D01*
X137104286Y-46251857D01*
X137151905Y-46442333D01*
X137151905Y-46680429D01*
X137104286Y-46870905D01*
X137056667Y-46966143D01*
X137009048Y-47013762D01*
X136913810Y-47061381D01*
X136818571Y-47061381D01*
X136723333Y-47013762D01*
X136675714Y-46966143D01*
X136628095Y-46870905D01*
X136580476Y-46680429D01*
X136580476Y-46442333D01*
X136628095Y-46251857D01*
X136675714Y-46156619D01*
X136723333Y-46109000D01*
X136818571Y-46061381D01*
X144899143Y-32996143D02*
X144851524Y-33043762D01*
X144708667Y-33091381D01*
X144613429Y-33091381D01*
X144470571Y-33043762D01*
X144375333Y-32948524D01*
X144327714Y-32853286D01*
X144280095Y-32662810D01*
X144280095Y-32519952D01*
X144327714Y-32329476D01*
X144375333Y-32234238D01*
X144470571Y-32139000D01*
X144613429Y-32091381D01*
X144708667Y-32091381D01*
X144851524Y-32139000D01*
X144899143Y-32186619D01*
X145851524Y-33091381D02*
X145280095Y-33091381D01*
X145565809Y-33091381D02*
X145565809Y-32091381D01*
X145470571Y-32234238D01*
X145375333Y-32329476D01*
X145280095Y-32377095D01*
X146756286Y-32091381D02*
X146280095Y-32091381D01*
X146232476Y-32567571D01*
X146280095Y-32519952D01*
X146375333Y-32472333D01*
X146613429Y-32472333D01*
X146708667Y-32519952D01*
X146756286Y-32567571D01*
X146803905Y-32662810D01*
X146803905Y-32900905D01*
X146756286Y-32996143D01*
X146708667Y-33043762D01*
X146613429Y-33091381D01*
X146375333Y-33091381D01*
X146280095Y-33043762D01*
X146232476Y-32996143D01*
M02*
